NotoSansMendeKikakui-Regular.ufo
<glyph name="u1E800" format="2">
  <advance width="597"/>
  <unicode hex="1E800"/>
  <outline>
    <contour>
      <point x="50" y="515" type="curve"/>
      <point x="119" y="546" type="line"/>
      <point x="109" y="565"/>
      <point x="106" y="582"/>
      <point x="106" y="597" type="curve" smooth="yes"/>
      <point x="106" y="637"/>
      <point x="129" y="654"/>
      <point x="165" y="654" type="curve" smooth="yes"/>
      <point x="239" y="654"/>
      <point x="250" y="591"/>
      <point x="362" y="591" type="curve" smooth="yes"/>
      <point x="395" y="591"/>
      <point x="422" y="594"/>
      <point x="448" y="608" type="curve"/>
      <point x="204" y="0" type="line"/>
      <point x="281" y="0" type="line"/>
      <point x="567" y="714" type="line"/>
      <point x="501" y="714" type="line"/>
      <point x="477" y="669"/>
      <point x="418" y="657"/>
      <point x="374" y="657" type="curve" smooth="yes"/>
      <point x="266" y="657"/>
      <point x="266" y="720"/>
      <point x="165" y="720" type="curve" smooth="yes"/>
      <point x="98" y="720"/>
      <point x="30" y="676"/>
      <point x="30" y="594" type="curve" smooth="yes"/>
      <point x="30" y="570"/>
      <point x="35" y="543"/>
    </contour>
  </outline>
</glyph>
<glyph name="u1E804" format="2">
  <advance width="871"/>
  <unicode hex="1E804"/>
  <outline>
    <contour>
      <point x="63" y="248" type="curve"/>
      <point x="63" y="180" type="line"/>
      <point x="226" y="180"/>
      <point x="288" y="257"/>
      <point x="299" y="336" type="curve"/>
      <point x="732" y="336" type="line"/>
      <point x="721" y="287"/>
      <point x="672" y="249"/>
      <point x="573" y="248" type="curve"/>
      <point x="573" y="180" type="line"/>
      <point x="754" y="180"/>
      <point x="811" y="275"/>
      <point x="811" y="362" type="curve" smooth="yes"/>
      <point x="811" y="478"/>
      <point x="717" y="552"/>
      <point x="573" y="552" type="curve"/>
      <point x="573" y="484" type="line"/>
      <point x="652" y="484"/>
      <point x="711" y="456"/>
      <point x="729" y="400" type="curve"/>
      <point x="297" y="400" type="line"/>
      <point x="278" y="494"/>
      <point x="190" y="552"/>
      <point x="63" y="552" type="curve"/>
      <point x="63" y="484" type="line"/>
      <point x="159" y="484"/>
      <point x="225" y="443"/>
      <point x="225" y="361" type="curve" smooth="yes"/>
      <point x="225" y="301"/>
      <point x="179" y="250"/>
    </contour>
    <contour>
      <point x="167" y="368" type="curve" smooth="yes"/>
      <point x="167" y="401"/>
      <point x="145" y="422"/>
      <point x="113" y="422" type="curve" smooth="yes"/>
      <point x="82" y="422"/>
      <point x="60" y="401"/>
      <point x="60" y="368" type="curve" smooth="yes"/>
      <point x="60" y="334"/>
      <point x="79" y="315"/>
      <point x="113" y="315" type="curve" smooth="yes"/>
      <point x="145" y="315"/>
      <point x="167" y="334"/>
    </contour>
  </outline>
</glyph>
<glyph name="u1E805" format="2">
  <advance width="1042"/>
  <unicode hex="1E805"/>
  <outline>
    <contour>
      <point x="992" y="199" type="line"/>
      <point x="992" y="267" type="line"/>
      <point x="938" y="267" type="line" smooth="yes"/>
      <point x="806" y="267"/>
      <point x="736" y="294"/>
      <point x="736" y="368" type="curve" smooth="yes"/>
      <point x="736" y="460"/>
      <point x="844" y="469"/>
      <point x="938" y="469" type="curve" smooth="yes"/>
      <point x="992" y="469" type="line"/>
      <point x="992" y="537" type="line"/>
      <point x="928" y="537" type="line" smooth="yes"/>
      <point x="809" y="537"/>
      <point x="683" y="507"/>
      <point x="663" y="400" type="curve"/>
      <point x="379" y="400" type="line"/>
      <point x="358" y="507"/>
      <point x="233" y="537"/>
      <point x="114" y="537" type="curve" smooth="yes"/>
      <point x="50" y="537" type="line"/>
      <point x="50" y="469" type="line"/>
      <point x="104" y="469" type="line" smooth="yes"/>
      <point x="198" y="469"/>
      <point x="306" y="460"/>
      <point x="306" y="368" type="curve" smooth="yes"/>
      <point x="306" y="294"/>
      <point x="236" y="267"/>
      <point x="104" y="267" type="curve" smooth="yes"/>
      <point x="50" y="267" type="line"/>
      <point x="50" y="199" type="line"/>
      <point x="114" y="199" type="line" smooth="yes"/>
      <point x="272" y="199"/>
      <point x="362" y="249"/>
      <point x="379" y="336" type="curve"/>
      <point x="663" y="336" type="line"/>
      <point x="680" y="249"/>
      <point x="769" y="199"/>
      <point x="928" y="199" type="curve" smooth="yes"/>
    </contour>
  </outline>
</glyph>
<glyph name="u1E806" format="2">
  <advance width="574"/>
  <unicode hex="1E806"/>
  <outline>
    <contour>
      <point x="50" y="64" type="curve"/>
      <point x="50" y="-4" type="line"/>
      <point x="313" y="37"/>
      <point x="524" y="281"/>
      <point x="524" y="532" type="curve" smooth="yes"/>
      <point x="524" y="625"/>
      <point x="467" y="727"/>
      <point x="309" y="727" type="curve" smooth="yes"/>
      <point x="152" y="727"/>
      <point x="93" y="623"/>
      <point x="93" y="532" type="curve" smooth="yes"/>
      <point x="93" y="422"/>
      <point x="162" y="333"/>
      <point x="309" y="333" type="curve" smooth="yes"/>
      <point x="349" y="333"/>
      <point x="383" y="341"/>
      <point x="412" y="354" type="curve"/>
      <point x="346" y="215"/>
      <point x="207" y="95"/>
    </contour>
    <contour>
      <point x="166" y="531" type="curve" smooth="yes"/>
      <point x="166" y="593"/>
      <point x="203" y="658"/>
      <point x="308" y="658" type="curve" smooth="yes"/>
      <point x="417" y="658"/>
      <point x="449" y="593"/>
      <point x="449" y="531" type="curve" smooth="yes"/>
      <point x="449" y="470"/>
      <point x="416" y="400"/>
      <point x="308" y="400" type="curve" smooth="yes"/>
      <point x="202" y="400"/>
      <point x="166" y="470"/>
    </contour>
    <contour>
      <point x="268" y="823" type="curve" smooth="yes"/>
      <point x="268" y="856"/>
      <point x="246" y="877"/>
      <point x="214" y="877" type="curve" smooth="yes"/>
      <point x="183" y="877"/>
      <point x="161" y="856"/>
      <point x="161" y="823" type="curve" smooth="yes"/>
      <point x="161" y="789"/>
      <point x="180" y="770"/>
      <point x="214" y="770" type="curve" smooth="yes"/>
      <point x="246" y="770"/>
      <point x="268" y="789"/>
    </contour>
    <contour>
      <point x="449" y="823" type="curve" smooth="yes"/>
      <point x="449" y="856"/>
      <point x="426" y="877"/>
      <point x="395" y="877" type="curve" smooth="yes"/>
      <point x="364" y="877"/>
      <point x="342" y="856"/>
      <point x="342" y="823" type="curve" smooth="yes"/>
      <point x="342" y="789"/>
      <point x="361" y="770"/>
      <point x="395" y="770" type="curve" smooth="yes"/>
      <point x="427" y="770"/>
      <point x="449" y="789"/>
    </contour>
  </outline>
</glyph>
<glyph name="u1E807" format="2">
  <advance width="398"/>
  <unicode hex="1E807"/>
  <outline>
    <contour>
      <point x="76" y="593" type="curve" smooth="yes"/>
      <point x="76" y="539"/>
      <point x="113" y="494"/>
      <point x="162" y="479" type="curve"/>
      <point x="162" y="436" type="line"/>
      <point x="64" y="436" type="line"/>
      <point x="64" y="378" type="line"/>
      <point x="162" y="378" type="line"/>
      <point x="162" y="335" type="line"/>
      <point x="64" y="335" type="line"/>
      <point x="64" y="277" type="line"/>
      <point x="162" y="277" type="line"/>
      <point x="162" y="223" type="line"/>
      <point x="113" y="207"/>
      <point x="76" y="162"/>
      <point x="76" y="108" type="curve" smooth="yes"/>
      <point x="76" y="41"/>
      <point x="133" y="-12"/>
      <point x="200" y="-12" type="curve" smooth="yes"/>
      <point x="266" y="-12"/>
      <point x="323" y="41"/>
      <point x="323" y="108" type="curve" smooth="yes"/>
      <point x="323" y="163"/>
      <point x="285" y="208"/>
      <point x="236" y="223" type="curve"/>
      <point x="236" y="277" type="line"/>
      <point x="334" y="277" type="line"/>
      <point x="334" y="335" type="line"/>
      <point x="236" y="335" type="line"/>
      <point x="236" y="378" type="line"/>
      <point x="334" y="378" type="line"/>
      <point x="334" y="436" type="line"/>
      <point x="236" y="436" type="line"/>
      <point x="236" y="478" type="line"/>
      <point x="285" y="493"/>
      <point x="323" y="538"/>
      <point x="323" y="593" type="curve" smooth="yes"/>
      <point x="323" y="661"/>
      <point x="266" y="714"/>
      <point x="200" y="714" type="curve" smooth="yes"/>
      <point x="133" y="714"/>
      <point x="76" y="661"/>
    </contour>
    <contour>
      <point x="142" y="109" type="curve" smooth="yes"/>
      <point x="142" y="142"/>
      <point x="169" y="166"/>
      <point x="200" y="166" type="curve" smooth="yes"/>
      <point x="231" y="166"/>
      <point x="257" y="143"/>
      <point x="257" y="109" type="curve" smooth="yes"/>
      <point x="257" y="76"/>
      <point x="231" y="51"/>
      <point x="200" y="51" type="curve" smooth="yes"/>
      <point x="169" y="51"/>
      <point x="142" y="76"/>
    </contour>
    <contour>
      <point x="142" y="594" type="curve" smooth="yes"/>
      <point x="142" y="627"/>
      <point x="169" y="651"/>
      <point x="200" y="651" type="curve" smooth="yes"/>
      <point x="231" y="651"/>
      <point x="257" y="628"/>
      <point x="257" y="594" type="curve" smooth="yes"/>
      <point x="257" y="561"/>
      <point x="231" y="536"/>
      <point x="200" y="536" type="curve" smooth="yes"/>
      <point x="169" y="536"/>
      <point x="142" y="561"/>
    </contour>
  </outline>
</glyph>
<glyph name="u1E808" format="2">
  <advance width="742"/>
  <unicode hex="1E808"/>
  <outline>
    <contour>
      <point x="304" y="-12" type="curve" smooth="yes"/>
      <point x="549" y="-12"/>
      <point x="682" y="168"/>
      <point x="682" y="357" type="curve" smooth="yes"/>
      <point x="682" y="556"/>
      <point x="537" y="727"/>
      <point x="320" y="727" type="curve" smooth="yes"/>
      <point x="211" y="727"/>
      <point x="115" y="688"/>
      <point x="50" y="617" type="curve"/>
      <point x="95" y="564" type="line"/>
      <point x="151" y="625"/>
      <point x="241" y="657"/>
      <point x="318" y="657" type="curve" smooth="yes"/>
      <point x="469" y="657"/>
      <point x="606" y="548"/>
      <point x="606" y="357" type="curve" smooth="yes"/>
      <point x="606" y="181"/>
      <point x="487" y="58"/>
      <point x="307" y="58" type="curve" smooth="yes"/>
      <point x="227" y="58"/>
      <point x="139" y="86"/>
      <point x="139" y="155" type="curve" smooth="yes"/>
      <point x="139" y="200"/>
      <point x="189" y="228"/>
      <point x="243" y="228" type="curve" smooth="yes"/>
      <point x="318" y="228"/>
      <point x="379" y="182"/>
      <point x="414" y="131" type="curve"/>
      <point x="464" y="179" type="line"/>
      <point x="415" y="241"/>
      <point x="341" y="296"/>
      <point x="247" y="296" type="curve" smooth="yes"/>
      <point x="139" y="296"/>
      <point x="74" y="239"/>
      <point x="74" y="154" type="curve" smooth="yes"/>
      <point x="74" y="62"/>
      <point x="146" y="-12"/>
    </contour>
  </outline>
</glyph>
<glyph name="u1E80B" format="2">
  <advance width="859"/>
  <unicode hex="1E80B"/>
  <outline>
    <contour>
      <point x="164" y="650" type="line"/>
      <point x="90" y="650" type="line"/>
      <point x="90" y="40" type="line"/>
      <point x="164" y="40" type="line"/>
      <point x="164" y="362" type="line"/>
      <point x="575" y="362" type="line" smooth="yes"/>
      <point x="759" y="362"/>
      <point x="819" y="460"/>
      <point x="819" y="566" type="curve" smooth="yes"/>
      <point x="819" y="573"/>
      <point x="819" y="579"/>
      <point x="818" y="586" type="curve"/>
      <point x="742" y="586" type="line"/>
      <point x="743" y="580"/>
      <point x="743" y="573"/>
      <point x="743" y="566" type="curve" smooth="yes"/>
      <point x="743" y="492"/>
      <point x="703" y="430"/>
      <point x="571" y="430" type="curve" smooth="yes"/>
      <point x="164" y="430" type="line"/>
    </contour>
    <contour>
      <point x="470" y="241" type="curve" smooth="yes"/>
      <point x="470" y="274"/>
      <point x="448" y="295"/>
      <point x="416" y="295" type="curve" smooth="yes"/>
      <point x="385" y="295"/>
      <point x="363" y="274"/>
      <point x="363" y="241" type="curve" smooth="yes"/>
      <point x="363" y="207"/>
      <point x="382" y="188"/>
      <point x="416" y="188" type="curve" smooth="yes"/>
      <point x="448" y="188"/>
      <point x="470" y="207"/>
    </contour>
    <contour>
      <point x="470" y="551" type="curve" smooth="yes"/>
      <point x="470" y="584"/>
      <point x="448" y="605"/>
      <point x="416" y="605" type="curve" smooth="yes"/>
      <point x="385" y="605"/>
      <point x="363" y="584"/>
      <point x="363" y="551" type="curve" smooth="yes"/>
      <point x="363" y="517"/>
      <point x="382" y="498"/>
      <point x="416" y="498" type="curve" smooth="yes"/>
      <point x="448" y="498"/>
      <point x="470" y="517"/>
    </contour>
  </outline>
</glyph>
<glyph name="u1E80C" format="2">
  <advance width="996"/>
  <unicode hex="1E80C"/>
  <outline>
    <contour>
      <point x="955" y="542" type="curve"/>
      <point x="879" y="542" type="line"/>
      <point x="880" y="536"/>
      <point x="880" y="529"/>
      <point x="880" y="522" type="curve" smooth="yes"/>
      <point x="880" y="448"/>
      <point x="840" y="386"/>
      <point x="708" y="386" type="curve" smooth="yes"/>
      <point x="345" y="386" type="line"/>
      <point x="352" y="407"/>
      <point x="357" y="426"/>
      <point x="357" y="451" type="curve" smooth="yes"/>
      <point x="357" y="532"/>
      <point x="288" y="594"/>
      <point x="211" y="594" type="curve" smooth="yes"/>
      <point x="134" y="594"/>
      <point x="67" y="531"/>
      <point x="67" y="452" type="curve" smooth="yes"/>
      <point x="67" y="364"/>
      <point x="134" y="312"/>
      <point x="211" y="312" type="curve" smooth="yes"/>
      <point x="217" y="312"/>
      <point x="224" y="312"/>
      <point x="231" y="313" type="curve"/>
      <point x="185" y="246"/>
      <point x="122" y="189"/>
      <point x="50" y="150" type="curve"/>
      <point x="81" y="93" type="line"/>
      <point x="166" y="141"/>
      <point x="258" y="231"/>
      <point x="311" y="318" type="curve"/>
      <point x="712" y="318" type="line" smooth="yes"/>
      <point x="896" y="318"/>
      <point x="956" y="416"/>
      <point x="956" y="522" type="curve" smooth="yes"/>
      <point x="956" y="529"/>
      <point x="956" y="535"/>
    </contour>
    <contour>
      <point x="136" y="451" type="curve" smooth="yes"/>
      <point x="136" y="495"/>
      <point x="171" y="529"/>
      <point x="211" y="529" type="curve" smooth="yes"/>
      <point x="253" y="529"/>
      <point x="288" y="496"/>
      <point x="288" y="451" type="curve" smooth="yes"/>
      <point x="288" y="400"/>
      <point x="253" y="376"/>
      <point x="211" y="376" type="curve" smooth="yes"/>
      <point x="171" y="376"/>
      <point x="136" y="400"/>
    </contour>
    <contour>
      <point x="417" y="192" type="line"/>
      <point x="417" y="133" type="line"/>
      <point x="600" y="39" type="line"/>
      <point x="623" y="97" type="line"/>
      <point x="480" y="164" type="line"/>
      <point x="623" y="230" type="line"/>
      <point x="600" y="286" type="line"/>
    </contour>
  </outline>
</glyph>
<glyph name="u1E80D" format="2">
  <advance width="794"/>
  <unicode hex="1E80D"/>
  <outline>
    <contour>
      <point x="744" y="170" type="line"/>
      <point x="744" y="238" type="line"/>
      <point x="434" y="238" type="line"/>
      <point x="434" y="460" type="line"/>
      <point x="744" y="460" type="line"/>
      <point x="744" y="528" type="line"/>
      <point x="434" y="528" type="line"/>
      <point x="434" y="714" type="line"/>
      <point x="360" y="714" type="line"/>
      <point x="360" y="528" type="line"/>
      <point x="50" y="528" type="line"/>
      <point x="50" y="460" type="line"/>
      <point x="360" y="460" type="line"/>
      <point x="360" y="238" type="line"/>
      <point x="50" y="238" type="line"/>
      <point x="50" y="170" type="line"/>
      <point x="360" y="170" type="line"/>
      <point x="360" y="0" type="line"/>
      <point x="434" y="0" type="line"/>
      <point x="434" y="170" type="line"/>
    </contour>
  </outline>
</glyph>
<glyph name="u1E80E" format="2">
  <advance width="742"/>
  <unicode hex="1E80E"/>
  <outline>
    <contour>
      <point x="304" y="-12" type="curve" smooth="yes"/>
      <point x="549" y="-12"/>
      <point x="682" y="168"/>
      <point x="682" y="357" type="curve" smooth="yes"/>
      <point x="682" y="441"/>
      <point x="657" y="516"/>
      <point x="612" y="580" type="curve"/>
      <point x="719" y="667" type="line"/>
      <point x="678" y="715" type="line"/>
      <point x="570" y="628" type="line"/>
      <point x="507" y="689"/>
      <point x="423" y="727"/>
      <point x="320" y="727" type="curve" smooth="yes"/>
      <point x="211" y="727"/>
      <point x="115" y="688"/>
      <point x="50" y="617" type="curve"/>
      <point x="95" y="564" type="line"/>
      <point x="151" y="625"/>
      <point x="241" y="657"/>
      <point x="318" y="657" type="curve" smooth="yes"/>
      <point x="391" y="657"/>
      <point x="461" y="631"/>
      <point x="514" y="582" type="curve"/>
      <point x="327" y="431" type="line"/>
      <point x="368" y="383" type="line"/>
      <point x="555" y="534" type="line"/>
      <point x="587" y="487"/>
      <point x="606" y="429"/>
      <point x="606" y="357" type="curve" smooth="yes"/>
      <point x="606" y="181"/>
      <point x="487" y="58"/>
      <point x="307" y="58" type="curve" smooth="yes"/>
      <point x="227" y="58"/>
      <point x="139" y="86"/>
      <point x="139" y="155" type="curve" smooth="yes"/>
      <point x="139" y="200"/>
      <point x="189" y="228"/>
      <point x="243" y="228" type="curve" smooth="yes"/>
      <point x="318" y="228"/>
      <point x="379" y="182"/>
      <point x="414" y="131" type="curve"/>
      <point x="464" y="179" type="line"/>
      <point x="415" y="241"/>
      <point x="341" y="296"/>
      <point x="247" y="296" type="curve" smooth="yes"/>
      <point x="139" y="296"/>
      <point x="74" y="239"/>
      <point x="74" y="154" type="curve" smooth="yes"/>
      <point x="74" y="62"/>
      <point x="146" y="-12"/>
    </contour>
  </outline>
</glyph>
<glyph name="u1E80F" format="2">
  <advance width="976"/>
  <unicode hex="1E80F"/>
  <outline>
    <contour>
      <point x="936" y="318" type="line"/>
      <point x="936" y="386" type="line"/>
      <point x="345" y="386" type="line"/>
      <point x="352" y="407"/>
      <point x="357" y="425"/>
      <point x="357" y="451" type="curve" smooth="yes"/>
      <point x="357" y="531"/>
      <point x="289" y="594"/>
      <point x="211" y="594" type="curve" smooth="yes"/>
      <point x="134" y="594"/>
      <point x="67" y="531"/>
      <point x="67" y="452" type="curve" smooth="yes"/>
      <point x="67" y="364"/>
      <point x="134" y="312"/>
      <point x="211" y="312" type="curve" smooth="yes"/>
      <point x="217" y="312"/>
      <point x="224" y="312"/>
      <point x="231" y="313" type="curve"/>
      <point x="185" y="246"/>
      <point x="122" y="189"/>
      <point x="50" y="150" type="curve"/>
      <point x="81" y="93" type="line"/>
      <point x="166" y="141"/>
      <point x="258" y="231"/>
      <point x="311" y="318" type="curve"/>
    </contour>
    <contour>
      <point x="136" y="451" type="curve" smooth="yes"/>
      <point x="136" y="495"/>
      <point x="171" y="529"/>
      <point x="211" y="529" type="curve" smooth="yes"/>
      <point x="253" y="529"/>
      <point x="288" y="496"/>
      <point x="288" y="451" type="curve" smooth="yes"/>
      <point x="288" y="400"/>
      <point x="253" y="376"/>
      <point x="211" y="376" type="curve" smooth="yes"/>
      <point x="171" y="376"/>
      <point x="136" y="400"/>
    </contour>
    <contour>
      <point x="447" y="192" type="line"/>
      <point x="447" y="133" type="line"/>
      <point x="630" y="39" type="line"/>
      <point x="653" y="97" type="line"/>
      <point x="510" y="164" type="line"/>
      <point x="653" y="230" type="line"/>
      <point x="630" y="286" type="line"/>
    </contour>
    <contour>
      <point x="447" y="562" type="line"/>
      <point x="447" y="503" type="line"/>
      <point x="630" y="409" type="line"/>
      <point x="653" y="467" type="line"/>
      <point x="510" y="534" type="line"/>
      <point x="653" y="600" type="line"/>
      <point x="630" y="656" type="line"/>
    </contour>
  </outline>
</glyph>
<glyph name="u1E810" format="2">
  <advance width="1004"/>
  <unicode hex="1E810"/>
  <outline>
    <contour>
      <point x="304" y="-12" type="curve" smooth="yes"/>
      <point x="544" y="-12"/>
      <point x="677" y="160"/>
      <point x="682" y="346" type="curve"/>
      <point x="730" y="346" type="line"/>
      <point x="742" y="291"/>
      <point x="792" y="252"/>
      <point x="851" y="252" type="curve" smooth="yes"/>
      <point x="917" y="252"/>
      <point x="974" y="305"/>
      <point x="974" y="372" type="curve" smooth="yes"/>
      <point x="974" y="440"/>
      <point x="917" y="493"/>
      <point x="851" y="493" type="curve" smooth="yes"/>
      <point x="795" y="493"/>
      <point x="746" y="456"/>
      <point x="731" y="404" type="curve"/>
      <point x="679" y="404" type="line"/>
      <point x="658" y="582"/>
      <point x="520" y="727"/>
      <point x="320" y="727" type="curve" smooth="yes"/>
      <point x="211" y="727"/>
      <point x="115" y="688"/>
      <point x="50" y="617" type="curve"/>
      <point x="95" y="564" type="line"/>
      <point x="151" y="625"/>
      <point x="241" y="657"/>
      <point x="318" y="657" type="curve" smooth="yes"/>
      <point x="457" y="657"/>
      <point x="582" y="566"/>
      <point x="603" y="404" type="curve"/>
      <point x="330" y="404" type="line"/>
      <point x="330" y="346" type="line"/>
      <point x="606" y="346" type="line"/>
      <point x="601" y="175"/>
      <point x="484" y="58"/>
      <point x="307" y="58" type="curve" smooth="yes"/>
      <point x="227" y="58"/>
      <point x="139" y="86"/>
      <point x="139" y="155" type="curve" smooth="yes"/>
      <point x="139" y="200"/>
      <point x="189" y="228"/>
      <point x="243" y="228" type="curve" smooth="yes"/>
      <point x="318" y="228"/>
      <point x="379" y="182"/>
      <point x="414" y="131" type="curve"/>
      <point x="464" y="179" type="line"/>
      <point x="415" y="241"/>
      <point x="341" y="296"/>
      <point x="247" y="296" type="curve" smooth="yes"/>
      <point x="139" y="296"/>
      <point x="74" y="239"/>
      <point x="74" y="154" type="curve" smooth="yes"/>
      <point x="74" y="62"/>
      <point x="146" y="-12"/>
    </contour>
    <contour>
      <point x="851" y="315" type="curve" smooth="yes"/>
      <point x="820" y="315"/>
      <point x="793" y="340"/>
      <point x="793" y="373" type="curve" smooth="yes"/>
      <point x="793" y="406"/>
      <point x="820" y="430"/>
      <point x="851" y="430" type="curve" smooth="yes"/>
      <point x="882" y="430"/>
      <point x="908" y="408"/>
      <point x="908" y="373" type="curve" smooth="yes"/>
      <point x="908" y="340"/>
      <point x="882" y="315"/>
    </contour>
  </outline>
</glyph>
<glyph name="u1E811" format="2">
  <advance width="1315"/>
  <unicode hex="1E811"/>
  <outline>
    <contour>
      <point x="60" y="365" type="curve" smooth="yes"/>
      <point x="60" y="229"/>
      <point x="171" y="119"/>
      <point x="308" y="119" type="curve" smooth="yes"/>
      <point x="433" y="119"/>
      <point x="536" y="211"/>
      <point x="552" y="332" type="curve"/>
      <point x="1000" y="332" type="line"/>
      <point x="1014" y="271"/>
      <point x="1071" y="226"/>
      <point x="1136" y="226" type="curve" smooth="yes"/>
      <point x="1211" y="226"/>
      <point x="1275" y="286"/>
      <point x="1275" y="361" type="curve" smooth="yes"/>
      <point x="1275" y="437"/>
      <point x="1211" y="497"/>
      <point x="1136" y="497" type="curve" smooth="yes"/>
      <point x="1074" y="497"/>
      <point x="1020" y="456"/>
      <point x="1003" y="400" type="curve"/>
      <point x="552" y="400" type="line"/>
      <point x="535" y="520"/>
      <point x="432" y="613"/>
      <point x="308" y="613" type="curve" smooth="yes"/>
      <point x="171" y="613"/>
      <point x="60" y="502"/>
    </contour>
    <contour>
      <point x="269" y="361" type="curve" smooth="yes"/>
      <point x="269" y="286"/>
      <point x="333" y="226"/>
      <point x="408" y="226" type="curve" smooth="yes"/>
      <point x="416" y="226" type="line"/>
      <point x="386" y="202"/>
      <point x="349" y="189"/>
      <point x="308" y="189" type="curve" smooth="yes"/>
      <point x="215" y="189"/>
      <point x="136" y="262"/>
      <point x="136" y="364" type="curve" smooth="yes"/>
      <point x="136" y="469"/>
      <point x="215" y="543"/>
      <point x="308" y="543" type="curve" smooth="yes"/>
      <point x="354" y="543"/>
      <point x="395" y="525"/>
      <point x="426" y="496" type="curve"/>
      <point x="420" y="497"/>
      <point x="414" y="497"/>
      <point x="408" y="497" type="curve" smooth="yes"/>
      <point x="333" y="497"/>
      <point x="269" y="437"/>
    </contour>
    <contour>
      <point x="1066" y="361" type="curve" smooth="yes"/>
      <point x="1066" y="401"/>
      <point x="1098" y="432"/>
      <point x="1136" y="432" type="curve" smooth="yes"/>
      <point x="1174" y="432"/>
      <point x="1206" y="402"/>
      <point x="1206" y="361" type="curve" smooth="yes"/>
      <point x="1206" y="322"/>
      <point x="1174" y="291"/>
      <point x="1136" y="291" type="curve" smooth="yes"/>
      <point x="1098" y="291"/>
      <point x="1066" y="322"/>
    </contour>
    <contour>
      <point x="338" y="361" type="curve" smooth="yes"/>
      <point x="338" y="401"/>
      <point x="370" y="432"/>
      <point x="408" y="432" type="curve" smooth="yes"/>
      <point x="446" y="432"/>
      <point x="478" y="402"/>
      <point x="478" y="361" type="curve" smooth="yes"/>
      <point x="478" y="322"/>
      <point x="446" y="291"/>
      <point x="408" y="291" type="curve" smooth="yes"/>
      <point x="370" y="291"/>
      <point x="338" y="322"/>
    </contour>
  </outline>
</glyph>
<glyph name="u1E812" format="2">
  <advance width="871"/>
  <unicode hex="1E812"/>
  <outline>
    <contour>
      <point x="304" y="-12" type="curve" smooth="yes"/>
      <point x="549" y="-12"/>
      <point x="682" y="168"/>
      <point x="682" y="357" type="curve" smooth="yes"/>
      <point x="682" y="364" type="line"/>
      <point x="773" y="364" type="line"/>
      <point x="773" y="308" type="line"/>
      <point x="841" y="308" type="line"/>
      <point x="841" y="477" type="line"/>
      <point x="773" y="477" type="line"/>
      <point x="773" y="422" type="line"/>
      <point x="676" y="422" type="line"/>
      <point x="647" y="592"/>
      <point x="514" y="727"/>
      <point x="320" y="727" type="curve" smooth="yes"/>
      <point x="211" y="727"/>
      <point x="115" y="688"/>
      <point x="50" y="617" type="curve"/>
      <point x="95" y="564" type="line"/>
      <point x="151" y="625"/>
      <point x="241" y="657"/>
      <point x="318" y="657" type="curve" smooth="yes"/>
      <point x="451" y="657"/>
      <point x="573" y="572"/>
      <point x="600" y="422" type="curve"/>
      <point x="491" y="422" type="line"/>
      <point x="491" y="477" type="line"/>
      <point x="423" y="477" type="line"/>
      <point x="423" y="308" type="line"/>
      <point x="491" y="308" type="line"/>
      <point x="491" y="364" type="line"/>
      <point x="605" y="364" type="line"/>
      <point x="605" y="361"/>
      <point x="606" y="360"/>
      <point x="606" y="357" type="curve" smooth="yes"/>
      <point x="606" y="181"/>
      <point x="487" y="58"/>
      <point x="307" y="58" type="curve" smooth="yes"/>
      <point x="227" y="58"/>
      <point x="139" y="86"/>
      <point x="139" y="155" type="curve" smooth="yes"/>
      <point x="139" y="200"/>
      <point x="189" y="228"/>
      <point x="243" y="228" type="curve" smooth="yes"/>
      <point x="318" y="228"/>
      <point x="379" y="182"/>
      <point x="414" y="131" type="curve"/>
      <point x="464" y="179" type="line"/>
      <point x="415" y="241"/>
      <point x="341" y="296"/>
      <point x="247" y="296" type="curve" smooth="yes"/>
      <point x="139" y="296"/>
      <point x="74" y="239"/>
      <point x="74" y="154" type="curve" smooth="yes"/>
      <point x="74" y="62"/>
      <point x="146" y="-12"/>
    </contour>
  </outline>
</glyph>
<glyph name="u1E813" format="2">
  <advance width="548"/>
  <unicode hex="1E813"/>
  <outline>
    <contour>
      <point x="458" y="714" type="line"/>
      <point x="384" y="714" type="line"/>
      <point x="384" y="394" type="line"/>
      <point x="191" y="405"/>
      <point x="126" y="515"/>
      <point x="126" y="714" type="curve"/>
      <point x="50" y="714" type="line"/>
      <point x="50" y="544"/>
      <point x="108" y="416"/>
      <point x="238" y="358" type="curve"/>
      <point x="108" y="300"/>
      <point x="50" y="170"/>
      <point x="50" y="0" type="curve"/>
      <point x="126" y="0" type="line"/>
      <point x="126" y="199"/>
      <point x="191" y="312"/>
      <point x="384" y="324" type="curve"/>
      <point x="384" y="0" type="line"/>
      <point x="458" y="0" type="line"/>
    </contour>
    <contour>
      <point x="325" y="582" type="curve" smooth="yes"/>
      <point x="325" y="615"/>
      <point x="303" y="636"/>
      <point x="271" y="636" type="curve" smooth="yes"/>
      <point x="240" y="636"/>
      <point x="218" y="615"/>
      <point x="218" y="582" type="curve" smooth="yes"/>
      <point x="218" y="548"/>
      <point x="237" y="529"/>
      <point x="271" y="529" type="curve" smooth="yes"/>
      <point x="303" y="529"/>
      <point x="325" y="548"/>
    </contour>
  </outline>
</glyph>
<glyph name="u1E814" format="2">
  <advance width="626"/>
  <unicode hex="1E814"/>
  <outline>
    <contour>
      <point x="60" y="0" type="curve"/>
      <point x="134" y="0" type="line"/>
      <point x="156" y="119"/>
      <point x="202" y="220"/>
      <point x="274" y="282" type="curve"/>
      <point x="296" y="205"/>
      <point x="346" y="142"/>
      <point x="442" y="142" type="curve" smooth="yes"/>
      <point x="530" y="142"/>
      <point x="586" y="199"/>
      <point x="586" y="274" type="curve" smooth="yes"/>
      <point x="586" y="350"/>
      <point x="530" y="412"/>
      <point x="442" y="412" type="curve" smooth="yes"/>
      <point x="406" y="412"/>
      <point x="369" y="407"/>
      <point x="334" y="393" type="curve"/>
      <point x="334" y="417" type="line" smooth="yes"/>
      <point x="334" y="519"/>
      <point x="369" y="625"/>
      <point x="425" y="700" type="curve"/>
      <point x="365" y="737" type="line"/>
      <point x="297" y="650"/>
      <point x="258" y="521"/>
      <point x="258" y="402" type="curve" smooth="yes"/>
      <point x="258" y="386"/>
      <point x="258" y="371"/>
      <point x="260" y="355" type="curve"/>
      <point x="150" y="280"/>
      <point x="84" y="140"/>
    </contour>
    <contour>
      <point x="512" y="274" type="curve" smooth="yes"/>
      <point x="512" y="235"/>
      <point x="480" y="210"/>
      <point x="445" y="210" type="curve" smooth="yes"/>
      <point x="392" y="210"/>
      <point x="356" y="247"/>
      <point x="341" y="324" type="curve"/>
      <point x="373" y="337"/>
      <point x="399" y="344"/>
      <point x="437" y="344" type="curve" smooth="yes"/>
      <point x="488" y="344"/>
      <point x="512" y="305"/>
    </contour>
  </outline>
</glyph>
<glyph name="u1E818" format="2">
  <advance width="928"/>
  <unicode hex="1E818"/>
  <outline>
    <contour>
      <point x="118" y="380" type="line"/>
      <point x="118" y="460" type="line"/>
      <point x="50" y="460" type="line"/>
      <point x="50" y="232" type="line"/>
      <point x="118" y="232" type="line"/>
      <point x="118" y="322" type="line"/>
      <point x="183" y="322" type="line"/>
      <point x="204" y="186"/>
      <point x="323" y="85"/>
      <point x="463" y="85" type="curve" smooth="yes"/>
      <point x="605" y="85"/>
      <point x="723" y="186"/>
      <point x="745" y="322" type="curve"/>
      <point x="810" y="322" type="line"/>
      <point x="810" y="232" type="line"/>
      <point x="878" y="232" type="line"/>
      <point x="878" y="460" type="line"/>
      <point x="810" y="460" type="line"/>
      <point x="810" y="380" type="line"/>
      <point x="748" y="380" type="line"/>
      <point x="740" y="529"/>
      <point x="615" y="650"/>
      <point x="463" y="650" type="curve" smooth="yes"/>
      <point x="312" y="650"/>
      <point x="187" y="529"/>
      <point x="180" y="380" type="curve"/>
    </contour>
    <contour>
      <point x="463" y="580" type="curve" smooth="yes"/>
      <point x="569" y="580"/>
      <point x="664" y="495"/>
      <point x="671" y="380" type="curve"/>
      <point x="256" y="380" type="line"/>
      <point x="263" y="495"/>
      <point x="358" y="580"/>
    </contour>
    <contour>
      <point x="463" y="155" type="curve" smooth="yes"/>
      <point x="368" y="155"/>
      <point x="281" y="224"/>
      <point x="260" y="322" type="curve"/>
      <point x="667" y="322" type="line"/>
      <point x="647" y="224"/>
      <point x="560" y="155"/>
    </contour>
  </outline>
</glyph>
<glyph name="u1E819" format="2">
  <advance width="743"/>
  <unicode hex="1E819"/>
  <outline>
    <contour>
      <point x="387" y="340" type="curve"/>
      <point x="292" y="340" type="line"/>
      <point x="440" y="0" type="line"/>
      <point x="523" y="0" type="line"/>
      <point x="401" y="270" type="line"/>
      <point x="568" y="274"/>
      <point x="703" y="354"/>
      <point x="703" y="495" type="curve" smooth="yes"/>
      <point x="703" y="543"/>
      <point x="679" y="613"/>
      <point x="556" y="613" type="curve" smooth="yes"/>
      <point x="442" y="613"/>
      <point x="344" y="563"/>
      <point x="263" y="494" type="curve"/>
      <point x="326" y="714" type="line"/>
      <point x="251" y="714" type="line"/>
      <point x="50" y="0" type="line"/>
      <point x="124" y="0" type="line"/>
      <point x="227" y="365" type="line"/>
      <point x="331" y="510"/>
      <point x="477" y="543"/>
      <point x="545" y="543" type="curve" smooth="yes"/>
      <point x="611" y="543"/>
      <point x="627" y="519"/>
      <point x="627" y="488" type="curve" smooth="yes"/>
      <point x="627" y="394"/>
      <point x="522" y="340"/>
    </contour>
  </outline>
</glyph>
<glyph name="u1E81A" format="2">
  <advance width="476"/>
  <unicode hex="1E81A"/>
  <outline>
    <contour>
      <point x="426" y="170" type="line"/>
      <point x="352" y="170" type="line"/>
      <point x="352" y="162" type="line" smooth="yes"/>
      <point x="352" y="74"/>
      <point x="308" y="45"/>
      <point x="256" y="45" type="curve" smooth="yes"/>
      <point x="184" y="45"/>
      <point x="164" y="85"/>
      <point x="164" y="150" type="curve" smooth="yes"/>
      <point x="164" y="714" type="line"/>
      <point x="90" y="714" type="line"/>
      <point x="90" y="150" type="line" smooth="yes"/>
      <point x="90" y="34"/>
      <point x="145" y="-20"/>
      <point x="250" y="-20" type="curve" smooth="yes"/>
      <point x="345" y="-20"/>
      <point x="426" y="31"/>
      <point x="426" y="162" type="curve" smooth="yes"/>
    </contour>
  </outline>
</glyph>
<glyph name="u1E81B" format="2">
  <advance width="475"/>
  <unicode hex="1E81B"/>
  <outline>
    <contour>
      <point x="385" y="714" type="line"/>
      <point x="311" y="714" type="line"/>
      <point x="311" y="650" type="line"/>
      <point x="277" y="650" type="line" smooth="yes"/>
      <point x="204" y="650"/>
      <point x="50" y="634"/>
      <point x="50" y="490" type="curve" smooth="yes"/>
      <point x="50" y="433"/>
      <point x="86" y="392"/>
      <point x="135" y="366" type="curve"/>
      <point x="86" y="340"/>
      <point x="50" y="299"/>
      <point x="50" y="242" type="curve" smooth="yes"/>
      <point x="50" y="98"/>
      <point x="204" y="82"/>
      <point x="277" y="82" type="curve" smooth="yes"/>
      <point x="311" y="82" type="line"/>
      <point x="311" y="0" type="line"/>
      <point x="385" y="0" type="line"/>
    </contour>
    <contour>
      <point x="126" y="493" type="curve" smooth="yes"/>
      <point x="126" y="576"/>
      <point x="215" y="582"/>
      <point x="278" y="582" type="curve" smooth="yes"/>
      <point x="311" y="582" type="line"/>
      <point x="311" y="400" type="line"/>
      <point x="279" y="400" type="line" smooth="yes"/>
      <point x="205" y="400"/>
      <point x="126" y="409"/>
    </contour>
    <contour>
      <point x="126" y="239" type="curve" smooth="yes"/>
      <point x="126" y="322"/>
      <point x="204" y="332"/>
      <point x="278" y="332" type="curve" smooth="yes"/>
      <point x="311" y="332" type="line"/>
      <point x="311" y="150" type="line"/>
      <point x="278" y="150" type="line" smooth="yes"/>
      <point x="215" y="150"/>
      <point x="126" y="156"/>
    </contour>
  </outline>
</glyph>
<glyph name="u1E81E" format="2">
  <advance width="573"/>
  <unicode hex="1E81E"/>
  <outline>
    <contour>
      <point x="202" y="176" type="curve"/>
      <point x="173" y="238" type="line"/>
      <point x="108" y="214"/>
      <point x="50" y="177"/>
      <point x="50" y="97" type="curve" smooth="yes"/>
      <point x="50" y="19"/>
      <point x="106" y="-30"/>
      <point x="235" y="-30" type="curve" smooth="yes"/>
      <point x="422" y="-30"/>
      <point x="523" y="83"/>
      <point x="523" y="214" type="curve" smooth="yes"/>
      <point x="523" y="309"/>
      <point x="460" y="384"/>
      <point x="304" y="385" type="curve"/>
      <point x="304" y="714" type="line"/>
      <point x="230" y="714" type="line"/>
      <point x="230" y="315" type="line"/>
      <point x="301" y="315" type="line" smooth="yes"/>
      <point x="410" y="315"/>
      <point x="447" y="273"/>
      <point x="447" y="214" type="curve" smooth="yes"/>
      <point x="447" y="90"/>
      <point x="342" y="40"/>
      <point x="241" y="40" type="curve" smooth="yes"/>
      <point x="173" y="40"/>
      <point x="126" y="50"/>
      <point x="126" y="106" type="curve" smooth="yes"/>
      <point x="126" y="137"/>
      <point x="163" y="161"/>
    </contour>
  </outline>
</glyph>
<glyph name="u1E81F" format="2">
  <advance width="814"/>
  <unicode hex="1E81F"/>
  <outline>
    <contour>
      <point x="444" y="720" type="line"/>
      <point x="370" y="720" type="line"/>
      <point x="20" y="0" type="line"/>
      <point x="102" y="0" type="line"/>
      <point x="407" y="640" type="line"/>
      <point x="712" y="0" type="line"/>
      <point x="794" y="0" type="line"/>
    </contour>
    <contour>
      <point x="462" y="240" type="curve" smooth="yes"/>
      <point x="462" y="273"/>
      <point x="440" y="294"/>
      <point x="408" y="294" type="curve" smooth="yes"/>
      <point x="377" y="294"/>
      <point x="355" y="273"/>
      <point x="355" y="240" type="curve" smooth="yes"/>
      <point x="355" y="206"/>
      <point x="374" y="187"/>
      <point x="408" y="187" type="curve" smooth="yes"/>
      <point x="440" y="187"/>
      <point x="462" y="206"/>
    </contour>
  </outline>
</glyph>
<glyph name="u1E821" format="2">
  <advance width="748"/>
  <unicode hex="1E821"/>
  <outline>
    <contour>
      <point x="658" y="650" type="line"/>
      <point x="584" y="650" type="line"/>
      <point x="584" y="400" type="line"/>
      <point x="164" y="400" type="line"/>
      <point x="164" y="650" type="line"/>
      <point x="90" y="650" type="line"/>
      <point x="90" y="40" type="line"/>
      <point x="164" y="40" type="line"/>
      <point x="164" y="332" type="line"/>
      <point x="584" y="332" type="line"/>
      <point x="584" y="40" type="line"/>
      <point x="658" y="40" type="line"/>
    </contour>
    <contour>
      <point x="427" y="198" type="curve" smooth="yes"/>
      <point x="427" y="231"/>
      <point x="405" y="252"/>
      <point x="373" y="252" type="curve" smooth="yes"/>
      <point x="342" y="252"/>
      <point x="320" y="231"/>
      <point x="320" y="198" type="curve" smooth="yes"/>
      <point x="320" y="164"/>
      <point x="339" y="145"/>
      <point x="373" y="145" type="curve" smooth="yes"/>
      <point x="405" y="145"/>
      <point x="427" y="164"/>
    </contour>
  </outline>
</glyph>
<glyph name="u1E822" format="2">
  <advance width="274"/>
  <unicode hex="1E822"/>
  <outline>
    <contour>
      <point x="174" y="714" type="line"/>
      <point x="100" y="714" type="line"/>
      <point x="100" y="0" type="line"/>
      <point x="174" y="0" type="line"/>
    </contour>
  </outline>
</glyph>
<glyph name="u1E825" format="2">
  <advance width="1018"/>
  <unicode hex="1E825"/>
  <outline>
    <contour>
      <point x="978" y="332" type="line"/>
      <point x="978" y="400" type="line"/>
      <point x="40" y="400" type="line"/>
      <point x="40" y="332" type="line"/>
    </contour>
    <contour>
      <point x="563" y="172" type="curve" smooth="yes"/>
      <point x="563" y="205"/>
      <point x="541" y="226"/>
      <point x="509" y="226" type="curve" smooth="yes"/>
      <point x="478" y="226"/>
      <point x="456" y="205"/>
      <point x="456" y="172" type="curve" smooth="yes"/>
      <point x="456" y="138"/>
      <point x="475" y="119"/>
      <point x="509" y="119" type="curve" smooth="yes"/>
      <point x="541" y="119"/>
      <point x="563" y="138"/>
    </contour>
  </outline>
</glyph>
<glyph name="u1E826" format="2">
  <advance width="274"/>
  <unicode hex="1E826"/>
  <outline>
    <contour>
      <point x="174" y="650" type="line"/>
      <point x="100" y="650" type="line"/>
      <point x="100" y="0" type="line"/>
      <point x="174" y="0" type="line"/>
    </contour>
    <contour>
      <point x="237" y="767" type="line"/>
      <point x="237" y="826" type="line"/>
      <point x="54" y="920" type="line"/>
      <point x="31" y="864" type="line"/>
      <point x="174" y="798" type="line"/>
      <point x="31" y="731" type="line"/>
      <point x="54" y="673" type="line"/>
    </contour>
  </outline>
</glyph>
<glyph name="u1E827" format="2">
  <advance width="688"/>
  <unicode hex="1E827"/>
  <outline>
    <contour>
      <point x="60" y="366" type="curve" smooth="yes"/>
      <point x="60" y="209"/>
      <point x="188" y="85"/>
      <point x="343" y="85" type="curve" smooth="yes"/>
      <point x="500" y="85"/>
      <point x="628" y="209"/>
      <point x="628" y="366" type="curve" smooth="yes"/>
      <point x="628" y="522"/>
      <point x="500" y="650"/>
      <point x="343" y="650" type="curve" smooth="yes"/>
      <point x="188" y="650"/>
      <point x="60" y="522"/>
    </contour>
    <contour>
      <point x="136" y="366" type="curve" smooth="yes"/>
      <point x="136" y="488"/>
      <point x="234" y="580"/>
      <point x="343" y="580" type="curve" smooth="yes"/>
      <point x="454" y="580"/>
      <point x="552" y="488"/>
      <point x="552" y="366" type="curve" smooth="yes"/>
      <point x="552" y="246"/>
      <point x="454" y="155"/>
      <point x="343" y="155" type="curve" smooth="yes"/>
      <point x="234" y="155"/>
      <point x="136" y="246"/>
    </contour>
  </outline>
</glyph>
<glyph name="u1E828" format="2">
  <advance width="980"/>
  <unicode hex="1E828"/>
  <outline>
    <contour>
      <point x="940" y="332" type="line"/>
      <point x="940" y="400" type="line"/>
      <point x="519" y="400" type="line"/>
      <point x="531" y="575"/>
      <point x="672" y="625"/>
      <point x="763" y="625" type="curve" smooth="yes"/>
      <point x="820" y="625"/>
      <point x="848" y="616"/>
      <point x="887" y="599" type="curve"/>
      <point x="928" y="655" type="line"/>
      <point x="893" y="675"/>
      <point x="846" y="695"/>
      <point x="756" y="695" type="curve" smooth="yes"/>
      <point x="618" y="695"/>
      <point x="454" y="591"/>
      <point x="443" y="400" type="curve"/>
      <point x="40" y="400" type="line"/>
      <point x="40" y="332" type="line"/>
      <point x="443" y="332" type="line"/>
      <point x="456" y="142"/>
      <point x="618" y="40"/>
      <point x="756" y="40" type="curve" smooth="yes"/>
      <point x="846" y="40"/>
      <point x="893" y="60"/>
      <point x="928" y="80" type="curve"/>
      <point x="887" y="136" type="line"/>
      <point x="848" y="119"/>
      <point x="820" y="110"/>
      <point x="763" y="110" type="curve" smooth="yes"/>
      <point x="672" y="110"/>
      <point x="532" y="159"/>
      <point x="519" y="332" type="curve"/>
    </contour>
    <contour>
      <point x="330" y="532" type="curve" smooth="yes"/>
      <point x="330" y="565"/>
      <point x="308" y="586"/>
      <point x="276" y="586" type="curve" smooth="yes"/>
      <point x="245" y="586"/>
      <point x="223" y="565"/>
      <point x="223" y="532" type="curve" smooth="yes"/>
      <point x="223" y="498"/>
      <point x="242" y="479"/>
      <point x="276" y="479" type="curve" smooth="yes"/>
      <point x="308" y="479"/>
      <point x="330" y="498"/>
    </contour>
  </outline>
</glyph>
<glyph name="u1E82A" format="2">
  <advance width="418"/>
  <unicode hex="1E82A"/>
  <outline>
    <contour>
      <point x="50" y="355" type="curve" smooth="yes"/>
      <point x="50" y="281"/>
      <point x="103" y="221"/>
      <point x="172" y="204" type="curve"/>
      <point x="172" y="134" type="line"/>
      <point x="64" y="134" type="line"/>
      <point x="64" y="76" type="line"/>
      <point x="172" y="76" type="line"/>
      <point x="172" y="0" type="line"/>
      <point x="246" y="0" type="line"/>
      <point x="246" y="76" type="line"/>
      <point x="354" y="76" type="line"/>
      <point x="354" y="134" type="line"/>
      <point x="246" y="134" type="line"/>
      <point x="246" y="204" type="line"/>
      <point x="315" y="221"/>
      <point x="368" y="281"/>
      <point x="368" y="355" type="curve" smooth="yes"/>
      <point x="368" y="428"/>
      <point x="315" y="489"/>
      <point x="246" y="505" type="curve"/>
      <point x="246" y="565" type="line"/>
      <point x="354" y="565" type="line"/>
      <point x="354" y="623" type="line"/>
      <point x="246" y="623" type="line"/>
      <point x="246" y="714" type="line"/>
      <point x="172" y="714" type="line"/>
      <point x="172" y="623" type="line"/>
      <point x="64" y="623" type="line"/>
      <point x="64" y="565" type="line"/>
      <point x="172" y="565" type="line"/>
      <point x="172" y="505" type="line"/>
      <point x="103" y="489"/>
      <point x="50" y="428"/>
    </contour>
    <contour>
      <point x="119" y="355" type="curve" smooth="yes"/>
      <point x="119" y="405"/>
      <point x="159" y="445"/>
      <point x="209" y="445" type="curve" smooth="yes"/>
      <point x="259" y="445"/>
      <point x="299" y="405"/>
      <point x="299" y="355" type="curve" smooth="yes"/>
      <point x="299" y="305"/>
      <point x="259" y="265"/>
      <point x="209" y="265" type="curve" smooth="yes"/>
      <point x="159" y="265"/>
      <point x="119" y="305"/>
    </contour>
  </outline>
</glyph>
<glyph name="u1E82D" format="2">
  <advance width="814"/>
  <unicode hex="1E82D"/>
  <outline>
    <contour>
      <point x="804" y="265" type="line"/>
      <point x="804" y="333" type="line"/>
      <point x="632" y="333" type="line"/>
      <point x="444" y="720" type="line"/>
      <point x="370" y="720" type="line"/>
      <point x="182" y="333" type="line"/>
      <point x="10" y="333" type="line"/>
      <point x="10" y="265" type="line"/>
      <point x="149" y="265" type="line"/>
      <point x="20" y="0" type="line"/>
      <point x="102" y="0" type="line"/>
      <point x="228" y="265" type="line"/>
      <point x="586" y="265" type="line"/>
      <point x="712" y="0" type="line"/>
      <point x="794" y="0" type="line"/>
      <point x="665" y="265" type="line"/>
    </contour>
    <contour>
      <point x="260" y="333" type="line"/>
      <point x="407" y="640" type="line"/>
      <point x="553" y="333" type="line"/>
    </contour>
    <contour>
      <point x="165" y="601" type="curve" smooth="yes"/>
      <point x="165" y="634"/>
      <point x="143" y="655"/>
      <point x="111" y="655" type="curve" smooth="yes"/>
      <point x="80" y="655"/>
      <point x="58" y="634"/>
      <point x="58" y="601" type="curve" smooth="yes"/>
      <point x="58" y="567"/>
      <point x="77" y="548"/>
      <point x="111" y="548" type="curve" smooth="yes"/>
      <point x="143" y="548"/>
      <point x="165" y="567"/>
    </contour>
  </outline>
</glyph>
<glyph name="u1E831" format="2">
  <advance width="995"/>
  <unicode hex="1E831"/>
  <outline>
    <contour>
      <point x="164" y="555" type="line"/>
      <point x="90" y="555" type="line"/>
      <point x="90" y="130" type="line"/>
      <point x="164" y="130" type="line"/>
      <point x="164" y="307" type="line"/>
      <point x="296" y="307" type="line"/>
      <point x="296" y="130" type="line"/>
      <point x="370" y="130" type="line"/>
      <point x="370" y="307" type="line"/>
      <point x="502" y="307" type="line"/>
      <point x="502" y="130" type="line"/>
      <point x="576" y="130" type="line"/>
      <point x="576" y="307" type="line"/>
      <point x="680" y="307" type="line"/>
      <point x="694" y="246"/>
      <point x="751" y="201"/>
      <point x="816" y="201" type="curve" smooth="yes"/>
      <point x="891" y="201"/>
      <point x="955" y="261"/>
      <point x="955" y="336" type="curve" smooth="yes"/>
      <point x="955" y="412"/>
      <point x="891" y="472"/>
      <point x="816" y="472" type="curve" smooth="yes"/>
      <point x="754" y="472"/>
      <point x="700" y="431"/>
      <point x="683" y="375" type="curve"/>
      <point x="576" y="375" type="line"/>
      <point x="576" y="555" type="line"/>
      <point x="502" y="555" type="line"/>
      <point x="502" y="375" type="line"/>
      <point x="370" y="375" type="line"/>
      <point x="370" y="555" type="line"/>
      <point x="296" y="555" type="line"/>
      <point x="296" y="375" type="line"/>
      <point x="164" y="375" type="line"/>
    </contour>
    <contour>
      <point x="746" y="336" type="curve" smooth="yes"/>
      <point x="746" y="376"/>
      <point x="778" y="407"/>
      <point x="816" y="407" type="curve" smooth="yes"/>
      <point x="854" y="407"/>
      <point x="886" y="377"/>
      <point x="886" y="336" type="curve" smooth="yes"/>
      <point x="886" y="297"/>
      <point x="854" y="266"/>
      <point x="816" y="266" type="curve" smooth="yes"/>
      <point x="778" y="266"/>
      <point x="746" y="297"/>
    </contour>
  </outline>
</glyph>
<glyph name="u1E832" format="2">
  <advance width="988"/>
  <unicode hex="1E832"/>
  <outline>
    <contour>
      <point x="722" y="415" type="line"/>
      <point x="648" y="415" type="line"/>
      <point x="648" y="163" type="line"/>
      <point x="516" y="163" type="line"/>
      <point x="516" y="415" type="line"/>
      <point x="442" y="415" type="line"/>
      <point x="442" y="163" type="line"/>
      <point x="310" y="163" type="line"/>
      <point x="310" y="415" type="line"/>
      <point x="236" y="415" type="line"/>
      <point x="236" y="163" type="line"/>
      <point x="40" y="163" type="line"/>
      <point x="40" y="95" type="line"/>
      <point x="948" y="95" type="line"/>
      <point x="948" y="163" type="line"/>
      <point x="722" y="163" type="line"/>
    </contour>
    <contour>
      <point x="532" y="586" type="curve" smooth="yes"/>
      <point x="532" y="619"/>
      <point x="510" y="640"/>
      <point x="478" y="640" type="curve" smooth="yes"/>
      <point x="447" y="640"/>
      <point x="425" y="619"/>
      <point x="425" y="586" type="curve" smooth="yes"/>
      <point x="425" y="552"/>
      <point x="444" y="533"/>
      <point x="478" y="533" type="curve" smooth="yes"/>
      <point x="510" y="533"/>
      <point x="532" y="552"/>
    </contour>
  </outline>
</glyph>
<glyph name="u1E835" format="2">
  <advance width="598"/>
  <unicode hex="1E835"/>
  <outline>
    <contour>
      <point x="503" y="394" type="line"/>
      <point x="503" y="458" type="line"/>
      <point x="346" y="458" type="line"/>
      <point x="337" y="476"/>
      <point x="327" y="493"/>
      <point x="317" y="511" type="curve"/>
      <point x="503" y="511" type="line"/>
      <point x="503" y="575" type="line"/>
      <point x="276" y="575" type="line"/>
      <point x="237" y="631"/>
      <point x="192" y="682"/>
      <point x="145" y="726" type="curve"/>
      <point x="97" y="680" type="line"/>
      <point x="130" y="648"/>
      <point x="161" y="613"/>
      <point x="191" y="575" type="curve"/>
      <point x="79" y="575" type="line"/>
      <point x="79" y="511" type="line"/>
      <point x="235" y="511" type="line"/>
      <point x="266" y="458" type="line"/>
      <point x="79" y="458" type="line"/>
      <point x="79" y="394" type="line"/>
      <point x="294" y="394" type="line"/>
      <point x="303" y="370"/>
      <point x="311" y="346"/>
      <point x="317" y="322" type="curve"/>
      <point x="309" y="323"/>
      <point x="301" y="323"/>
      <point x="293" y="323" type="curve" smooth="yes"/>
      <point x="134" y="323"/>
      <point x="60" y="246"/>
      <point x="60" y="141" type="curve" smooth="yes"/>
      <point x="60" y="46"/>
      <point x="138" y="-12"/>
      <point x="224" y="-12" type="curve" smooth="yes"/>
      <point x="355" y="-12"/>
      <point x="406" y="90"/>
      <point x="406" y="212" type="curve" smooth="yes"/>
      <point x="406" y="229" type="line"/>
      <point x="462" y="200"/>
      <point x="496" y="147"/>
      <point x="532" y="79" type="curve"/>
      <point x="588" y="117" type="line"/>
      <point x="550" y="200"/>
      <point x="488" y="274"/>
      <point x="397" y="306" type="curve"/>
      <point x="391" y="336"/>
      <point x="383" y="365"/>
      <point x="372" y="394" type="curve"/>
    </contour>
    <contour>
      <point x="223" y="56" type="curve" smooth="yes"/>
      <point x="173" y="56"/>
      <point x="137" y="85"/>
      <point x="137" y="148" type="curve" smooth="yes"/>
      <point x="137" y="239"/>
      <point x="236" y="253"/>
      <point x="289" y="253" type="curve" smooth="yes"/>
      <point x="303" y="253"/>
      <point x="316" y="252"/>
      <point x="329" y="251" type="curve"/>
      <point x="330" y="238"/>
      <point x="330" y="226"/>
      <point x="330" y="213" type="curve" smooth="yes"/>
      <point x="330" y="86"/>
      <point x="282" y="56"/>
    </contour>
  </outline>
</glyph>
<glyph name="u1E836" format="2">
  <advance width="878"/>
  <unicode hex="1E836"/>
  <outline>
    <contour>
      <point x="777" y="162" type="line"/>
      <point x="777" y="230" type="line"/>
      <point x="424" y="230" type="line"/>
      <point x="424" y="350" type="line"/>
      <point x="653" y="350" type="line" smooth="yes"/>
      <point x="766" y="350"/>
      <point x="838" y="390"/>
      <point x="838" y="489" type="curve" smooth="yes"/>
      <point x="838" y="554"/>
      <point x="805" y="589"/>
      <point x="762" y="607" type="curve"/>
      <point x="733" y="540" type="line"/>
      <point x="751" y="529"/>
      <point x="762" y="514"/>
      <point x="762" y="489" type="curve" smooth="yes"/>
      <point x="762" y="445"/>
      <point x="739" y="418"/>
      <point x="655" y="418" type="curve" smooth="yes"/>
      <point x="50" y="418" type="line"/>
      <point x="50" y="350" type="line"/>
      <point x="356" y="350" type="line"/>
      <point x="356" y="230" type="line"/>
      <point x="50" y="230" type="line"/>
      <point x="50" y="162" type="line"/>
    </contour>
  </outline>
</glyph>
<glyph name="u1E837" format="2">
  <advance width="878"/>
  <unicode hex="1E837"/>
  <outline>
    <contour>
      <point x="777" y="162" type="line"/>
      <point x="777" y="230" type="line"/>
      <point x="514" y="230" type="line"/>
      <point x="514" y="350" type="line"/>
      <point x="653" y="350" type="line" smooth="yes"/>
      <point x="766" y="350"/>
      <point x="838" y="390"/>
      <point x="838" y="489" type="curve" smooth="yes"/>
      <point x="838" y="554"/>
      <point x="805" y="589"/>
      <point x="762" y="607" type="curve"/>
      <point x="733" y="540" type="line"/>
      <point x="751" y="529"/>
      <point x="762" y="514"/>
      <point x="762" y="489" type="curve" smooth="yes"/>
      <point x="762" y="445"/>
      <point x="739" y="418"/>
      <point x="655" y="418" type="curve" smooth="yes"/>
      <point x="50" y="418" type="line"/>
      <point x="50" y="350" type="line"/>
      <point x="296" y="350" type="line"/>
      <point x="296" y="230" type="line"/>
      <point x="50" y="230" type="line"/>
      <point x="50" y="162" type="line"/>
    </contour>
    <contour>
      <point x="364" y="230" type="line"/>
      <point x="364" y="350" type="line"/>
      <point x="446" y="350" type="line"/>
      <point x="446" y="230" type="line"/>
    </contour>
    <contour>
      <point x="468" y="534" type="curve" smooth="yes"/>
      <point x="468" y="567"/>
      <point x="446" y="588"/>
      <point x="414" y="588" type="curve" smooth="yes"/>
      <point x="383" y="588"/>
      <point x="361" y="567"/>
      <point x="361" y="534" type="curve" smooth="yes"/>
      <point x="361" y="500"/>
      <point x="380" y="481"/>
      <point x="414" y="481" type="curve" smooth="yes"/>
      <point x="446" y="481"/>
      <point x="468" y="500"/>
    </contour>
  </outline>
</glyph>
<glyph name="u1E838" format="2">
  <advance width="878"/>
  <unicode hex="1E838"/>
  <outline>
    <contour>
      <point x="777" y="162" type="line"/>
      <point x="777" y="230" type="line"/>
      <point x="514" y="230" type="line"/>
      <point x="514" y="350" type="line"/>
      <point x="653" y="350" type="line" smooth="yes"/>
      <point x="766" y="350"/>
      <point x="838" y="390"/>
      <point x="838" y="489" type="curve" smooth="yes"/>
      <point x="838" y="554"/>
      <point x="805" y="589"/>
      <point x="762" y="607" type="curve"/>
      <point x="733" y="540" type="line"/>
      <point x="751" y="529"/>
      <point x="762" y="514"/>
      <point x="762" y="489" type="curve" smooth="yes"/>
      <point x="762" y="445"/>
      <point x="739" y="418"/>
      <point x="655" y="418" type="curve" smooth="yes"/>
      <point x="50" y="418" type="line"/>
      <point x="50" y="350" type="line"/>
      <point x="296" y="350" type="line"/>
      <point x="296" y="230" type="line"/>
      <point x="50" y="230" type="line"/>
      <point x="50" y="162" type="line"/>
    </contour>
    <contour>
      <point x="364" y="230" type="line"/>
      <point x="364" y="350" type="line"/>
      <point x="446" y="350" type="line"/>
      <point x="446" y="230" type="line"/>
    </contour>
    <contour>
      <point x="390" y="534" type="curve" smooth="yes"/>
      <point x="390" y="567"/>
      <point x="368" y="588"/>
      <point x="336" y="588" type="curve" smooth="yes"/>
      <point x="305" y="588"/>
      <point x="283" y="567"/>
      <point x="283" y="534" type="curve" smooth="yes"/>
      <point x="283" y="500"/>
      <point x="302" y="481"/>
      <point x="336" y="481" type="curve" smooth="yes"/>
      <point x="368" y="481"/>
      <point x="390" y="500"/>
    </contour>
    <contour>
      <point x="551" y="534" type="curve" smooth="yes"/>
      <point x="551" y="567"/>
      <point x="529" y="588"/>
      <point x="497" y="588" type="curve" smooth="yes"/>
      <point x="466" y="588"/>
      <point x="444" y="567"/>
      <point x="444" y="534" type="curve" smooth="yes"/>
      <point x="444" y="500"/>
      <point x="463" y="481"/>
      <point x="497" y="481" type="curve" smooth="yes"/>
      <point x="529" y="481"/>
      <point x="551" y="500"/>
    </contour>
  </outline>
</glyph>
<glyph name="u1E839" format="2">
  <advance width="602"/>
  <unicode hex="1E839"/>
  <outline>
    <contour>
      <point x="248" y="569" type="line"/>
      <point x="198" y="618" type="line"/>
      <point x="141" y="558" type="line"/>
      <point x="136" y="582"/>
      <point x="134" y="606"/>
      <point x="134" y="631" type="curve" smooth="yes"/>
      <point x="134" y="714" type="line"/>
      <point x="60" y="714" type="line"/>
      <point x="60" y="630" type="line" smooth="yes"/>
      <point x="60" y="582"/>
      <point x="67" y="536"/>
      <point x="81" y="494" type="curve"/>
      <point x="27" y="437" type="line"/>
      <point x="73" y="391" type="line"/>
      <point x="110" y="428" type="line"/>
      <point x="147" y="357"/>
      <point x="203" y="303"/>
      <point x="264" y="280" type="curve"/>
      <point x="264" y="0" type="line"/>
      <point x="338" y="0" type="line"/>
      <point x="338" y="280" type="line"/>
      <point x="449" y="322"/>
      <point x="542" y="465"/>
      <point x="542" y="630" type="curve" smooth="yes"/>
      <point x="542" y="714" type="line"/>
      <point x="468" y="714" type="line"/>
      <point x="468" y="631" type="line" smooth="yes"/>
      <point x="468" y="496"/>
      <point x="391" y="364"/>
      <point x="301" y="341" type="curve"/>
      <point x="245" y="355"/>
      <point x="194" y="411"/>
      <point x="164" y="483" type="curve"/>
    </contour>
  </outline>
</glyph>
<glyph name="u1E83A" format="2">
  <advance width="1006"/>
  <unicode hex="1E83A"/>
  <outline>
    <contour>
      <point x="40" y="594" type="curve" smooth="yes"/>
      <point x="40" y="527"/>
      <point x="97" y="474"/>
      <point x="164" y="474" type="curve" smooth="yes"/>
      <point x="420" y="474" type="line"/>
      <point x="420" y="229" type="line"/>
      <point x="121" y="229" type="line"/>
      <point x="121" y="161" type="line"/>
      <point x="731" y="161" type="line"/>
      <point x="723" y="145"/>
      <point x="719" y="127"/>
      <point x="719" y="109" type="curve" smooth="yes"/>
      <point x="719" y="41"/>
      <point x="776" y="-12"/>
      <point x="842" y="-12" type="curve" smooth="yes"/>
      <point x="909" y="-12"/>
      <point x="966" y="41"/>
      <point x="966" y="109" type="curve" smooth="yes"/>
      <point x="966" y="176"/>
      <point x="909" y="229"/>
      <point x="842" y="229" type="curve" smooth="yes"/>
      <point x="494" y="229" type="line"/>
      <point x="494" y="474" type="line"/>
      <point x="885" y="474" type="line"/>
      <point x="885" y="542" type="line"/>
      <point x="274" y="542" type="line"/>
      <point x="282" y="557"/>
      <point x="287" y="575"/>
      <point x="287" y="594" type="curve" smooth="yes"/>
      <point x="287" y="661"/>
      <point x="230" y="714"/>
      <point x="164" y="714" type="curve" smooth="yes"/>
      <point x="97" y="714"/>
      <point x="40" y="661"/>
    </contour>
    <contour>
      <point x="106" y="595" type="curve" smooth="yes"/>
      <point x="106" y="628"/>
      <point x="133" y="651"/>
      <point x="164" y="651" type="curve" smooth="yes"/>
      <point x="195" y="651"/>
      <point x="221" y="629"/>
      <point x="221" y="595" type="curve" smooth="yes"/>
      <point x="221" y="562"/>
      <point x="195" y="537"/>
      <point x="164" y="537" type="curve" smooth="yes"/>
      <point x="133" y="537"/>
      <point x="106" y="562"/>
    </contour>
    <contour>
      <point x="900" y="108" type="curve" smooth="yes"/>
      <point x="900" y="75"/>
      <point x="873" y="51"/>
      <point x="842" y="51" type="curve" smooth="yes"/>
      <point x="811" y="51"/>
      <point x="785" y="74"/>
      <point x="785" y="108" type="curve" smooth="yes"/>
      <point x="785" y="141"/>
      <point x="811" y="166"/>
      <point x="842" y="166" type="curve" smooth="yes"/>
      <point x="873" y="166"/>
      <point x="900" y="141"/>
    </contour>
  </outline>
</glyph>
<glyph name="u1E83B" format="2">
  <advance width="438"/>
  <unicode hex="1E83B"/>
  <outline>
    <contour>
      <point x="398" y="211" type="line"/>
      <point x="398" y="440" type="line"/>
      <point x="330" y="440" type="line"/>
      <point x="330" y="367" type="line"/>
      <point x="254" y="367" type="line"/>
      <point x="254" y="460" type="line"/>
      <point x="313" y="475"/>
      <point x="358" y="528"/>
      <point x="358" y="591" type="curve" smooth="yes"/>
      <point x="358" y="667"/>
      <point x="294" y="727"/>
      <point x="219" y="727" type="curve" smooth="yes"/>
      <point x="144" y="727"/>
      <point x="80" y="667"/>
      <point x="80" y="591" type="curve" smooth="yes"/>
      <point x="80" y="528"/>
      <point x="125" y="475"/>
      <point x="184" y="460" type="curve"/>
      <point x="184" y="367" type="line"/>
      <point x="108" y="367" type="line"/>
      <point x="108" y="440" type="line"/>
      <point x="40" y="440" type="line"/>
      <point x="40" y="211" type="line"/>
      <point x="108" y="211" type="line"/>
      <point x="108" y="309" type="line"/>
      <point x="184" y="309" type="line"/>
      <point x="184" y="218" type="line"/>
      <point x="55" y="14" type="line"/>
      <point x="110" y="-20" type="line"/>
      <point x="219" y="158" type="line"/>
      <point x="328" y="-20" type="line"/>
      <point x="383" y="14" type="line"/>
      <point x="254" y="218" type="line"/>
      <point x="254" y="309" type="line"/>
      <point x="330" y="309" type="line"/>
      <point x="330" y="211" type="line"/>
    </contour>
    <contour>
      <point x="149" y="591" type="curve" smooth="yes"/>
      <point x="149" y="631"/>
      <point x="181" y="662"/>
      <point x="219" y="662" type="curve" smooth="yes"/>
      <point x="257" y="662"/>
      <point x="289" y="632"/>
      <point x="289" y="591" type="curve" smooth="yes"/>
      <point x="289" y="552"/>
      <point x="257" y="521"/>
      <point x="219" y="521" type="curve" smooth="yes"/>
      <point x="181" y="521"/>
      <point x="149" y="552"/>
    </contour>
  </outline>
</glyph>
<glyph name="u1E83C" format="2">
  <advance width="407"/>
  <unicode hex="1E83C"/>
  <outline>
    <contour>
      <point x="80" y="609" type="curve" smooth="yes"/>
      <point x="80" y="542"/>
      <point x="137" y="489"/>
      <point x="204" y="489" type="curve" smooth="yes"/>
      <point x="270" y="489"/>
      <point x="327" y="542"/>
      <point x="327" y="609" type="curve" smooth="yes"/>
      <point x="327" y="677"/>
      <point x="270" y="730"/>
      <point x="204" y="730" type="curve" smooth="yes"/>
      <point x="137" y="730"/>
      <point x="80" y="677"/>
    </contour>
    <contour>
      <point x="146" y="610" type="curve" smooth="yes"/>
      <point x="146" y="643"/>
      <point x="173" y="667"/>
      <point x="204" y="667" type="curve" smooth="yes"/>
      <point x="235" y="667"/>
      <point x="261" y="644"/>
      <point x="261" y="610" type="curve" smooth="yes"/>
      <point x="261" y="577"/>
      <point x="235" y="552"/>
      <point x="204" y="552" type="curve" smooth="yes"/>
      <point x="173" y="552"/>
      <point x="146" y="577"/>
    </contour>
    <contour>
      <point x="80" y="339" type="curve" smooth="yes"/>
      <point x="80" y="272"/>
      <point x="137" y="219"/>
      <point x="204" y="219" type="curve" smooth="yes"/>
      <point x="270" y="219"/>
      <point x="327" y="272"/>
      <point x="327" y="339" type="curve" smooth="yes"/>
      <point x="327" y="407"/>
      <point x="270" y="460"/>
      <point x="204" y="460" type="curve" smooth="yes"/>
      <point x="137" y="460"/>
      <point x="80" y="407"/>
    </contour>
    <contour>
      <point x="146" y="340" type="curve" smooth="yes"/>
      <point x="146" y="373"/>
      <point x="173" y="397"/>
      <point x="204" y="397" type="curve" smooth="yes"/>
      <point x="235" y="397"/>
      <point x="261" y="374"/>
      <point x="261" y="340" type="curve" smooth="yes"/>
      <point x="261" y="307"/>
      <point x="235" y="282"/>
      <point x="204" y="282" type="curve" smooth="yes"/>
      <point x="173" y="282"/>
      <point x="146" y="307"/>
    </contour>
    <contour>
      <point x="80" y="69" type="curve" smooth="yes"/>
      <point x="80" y="2"/>
      <point x="137" y="-51"/>
      <point x="204" y="-51" type="curve" smooth="yes"/>
      <point x="270" y="-51"/>
      <point x="327" y="2"/>
      <point x="327" y="69" type="curve" smooth="yes"/>
      <point x="327" y="137"/>
      <point x="270" y="190"/>
      <point x="204" y="190" type="curve" smooth="yes"/>
      <point x="137" y="190"/>
      <point x="80" y="137"/>
    </contour>
    <contour>
      <point x="146" y="70" type="curve" smooth="yes"/>
      <point x="146" y="103"/>
      <point x="173" y="127"/>
      <point x="204" y="127" type="curve" smooth="yes"/>
      <point x="235" y="127"/>
      <point x="261" y="104"/>
      <point x="261" y="70" type="curve" smooth="yes"/>
      <point x="261" y="37"/>
      <point x="235" y="12"/>
      <point x="204" y="12" type="curve" smooth="yes"/>
      <point x="173" y="12"/>
      <point x="146" y="37"/>
    </contour>
  </outline>
</glyph>
<glyph name="u1E83D" format="2">
  <advance width="1149"/>
  <unicode hex="1E83D"/>
  <outline>
    <contour>
      <point x="1109" y="604" type="curve" smooth="yes"/>
      <point x="1109" y="672"/>
      <point x="1052" y="725"/>
      <point x="985" y="725" type="curve" smooth="yes"/>
      <point x="919" y="725"/>
      <point x="862" y="672"/>
      <point x="862" y="604" type="curve" smooth="yes"/>
      <point x="862" y="585"/>
      <point x="866" y="567"/>
      <point x="874" y="552" type="curve"/>
      <point x="274" y="552" type="line"/>
      <point x="282" y="567"/>
      <point x="287" y="585"/>
      <point x="287" y="604" type="curve" smooth="yes"/>
      <point x="287" y="672"/>
      <point x="230" y="725"/>
      <point x="164" y="725" type="curve" smooth="yes"/>
      <point x="97" y="725"/>
      <point x="40" y="672"/>
      <point x="40" y="604" type="curve" smooth="yes"/>
      <point x="40" y="537"/>
      <point x="97" y="484"/>
      <point x="164" y="484" type="curve" smooth="yes"/>
      <point x="540" y="484" type="line"/>
      <point x="540" y="229" type="line"/>
      <point x="164" y="229" type="line" smooth="yes"/>
      <point x="97" y="229"/>
      <point x="40" y="176"/>
      <point x="40" y="109" type="curve" smooth="yes"/>
      <point x="40" y="41"/>
      <point x="97" y="-12"/>
      <point x="164" y="-12" type="curve" smooth="yes"/>
      <point x="230" y="-12"/>
      <point x="287" y="41"/>
      <point x="287" y="109" type="curve" smooth="yes"/>
      <point x="287" y="127"/>
      <point x="282" y="145"/>
      <point x="274" y="161" type="curve"/>
      <point x="874" y="161" type="line"/>
      <point x="866" y="145"/>
      <point x="862" y="127"/>
      <point x="862" y="109" type="curve" smooth="yes"/>
      <point x="862" y="41"/>
      <point x="919" y="-12"/>
      <point x="985" y="-12" type="curve" smooth="yes"/>
      <point x="1052" y="-12"/>
      <point x="1109" y="41"/>
      <point x="1109" y="109" type="curve" smooth="yes"/>
      <point x="1109" y="176"/>
      <point x="1052" y="229"/>
      <point x="985" y="229" type="curve" smooth="yes"/>
      <point x="614" y="229" type="line"/>
      <point x="614" y="484" type="line"/>
      <point x="984" y="484" type="line" smooth="yes"/>
      <point x="1052" y="484"/>
      <point x="1109" y="537"/>
    </contour>
    <contour>
      <point x="1043" y="605" type="curve" smooth="yes"/>
      <point x="1043" y="572"/>
      <point x="1016" y="547"/>
      <point x="985" y="547" type="curve" smooth="yes"/>
      <point x="954" y="547"/>
      <point x="928" y="572"/>
      <point x="928" y="605" type="curve" smooth="yes"/>
      <point x="928" y="639"/>
      <point x="954" y="662"/>
      <point x="985" y="662" type="curve" smooth="yes"/>
      <point x="1016" y="662"/>
      <point x="1043" y="638"/>
    </contour>
    <contour>
      <point x="106" y="605" type="curve" smooth="yes"/>
      <point x="106" y="638"/>
      <point x="133" y="662"/>
      <point x="164" y="662" type="curve" smooth="yes"/>
      <point x="195" y="662"/>
      <point x="221" y="639"/>
      <point x="221" y="605" type="curve" smooth="yes"/>
      <point x="221" y="572"/>
      <point x="195" y="547"/>
      <point x="164" y="547" type="curve" smooth="yes"/>
      <point x="133" y="547"/>
      <point x="106" y="572"/>
    </contour>
    <contour>
      <point x="106" y="108" type="curve" smooth="yes"/>
      <point x="106" y="141"/>
      <point x="133" y="166"/>
      <point x="164" y="166" type="curve" smooth="yes"/>
      <point x="195" y="166"/>
      <point x="221" y="141"/>
      <point x="221" y="108" type="curve" smooth="yes"/>
      <point x="221" y="74"/>
      <point x="195" y="51"/>
      <point x="164" y="51" type="curve" smooth="yes"/>
      <point x="133" y="51"/>
      <point x="106" y="75"/>
    </contour>
    <contour>
      <point x="1043" y="108" type="curve" smooth="yes"/>
      <point x="1043" y="75"/>
      <point x="1016" y="51"/>
      <point x="985" y="51" type="curve" smooth="yes"/>
      <point x="954" y="51"/>
      <point x="928" y="74"/>
      <point x="928" y="108" type="curve" smooth="yes"/>
      <point x="928" y="141"/>
      <point x="954" y="166"/>
      <point x="985" y="166" type="curve" smooth="yes"/>
      <point x="1016" y="166"/>
      <point x="1043" y="141"/>
    </contour>
  </outline>
</glyph>
<glyph name="u1E83E" format="2">
  <advance width="1026"/>
  <unicode hex="1E83E"/>
  <outline>
    <contour>
      <point x="778" y="487" type="curve" smooth="yes"/>
      <point x="50" y="487" type="line"/>
      <point x="50" y="199" type="line"/>
      <point x="778" y="199" type="line" smooth="yes"/>
      <point x="934" y="199"/>
      <point x="986" y="263"/>
      <point x="986" y="348" type="curve" smooth="yes"/>
      <point x="986" y="434"/>
      <point x="908" y="487"/>
    </contour>
    <contour>
      <point x="120" y="419" type="line"/>
      <point x="778" y="419" type="line" smooth="yes"/>
      <point x="872" y="419"/>
      <point x="910" y="394"/>
      <point x="910" y="348" type="curve" smooth="yes"/>
      <point x="910" y="309"/>
      <point x="893" y="267"/>
      <point x="778" y="267" type="curve" smooth="yes"/>
      <point x="120" y="267" type="line"/>
    </contour>
  </outline>
</glyph>
<glyph name="u1E841" format="2">
  <advance width="1018"/>
  <unicode hex="1E841"/>
  <outline>
    <contour>
      <point x="978" y="332" type="line"/>
      <point x="978" y="400" type="line"/>
      <point x="40" y="400" type="line"/>
      <point x="40" y="332" type="line"/>
    </contour>
    <contour>
      <point x="563" y="602" type="curve" smooth="yes"/>
      <point x="563" y="635"/>
      <point x="541" y="656"/>
      <point x="509" y="656" type="curve" smooth="yes"/>
      <point x="478" y="656"/>
      <point x="456" y="635"/>
      <point x="456" y="602" type="curve" smooth="yes"/>
      <point x="456" y="568"/>
      <point x="475" y="549"/>
      <point x="509" y="549" type="curve" smooth="yes"/>
      <point x="541" y="549"/>
      <point x="563" y="568"/>
    </contour>
  </outline>
</glyph>
<glyph name="u1E842" format="2">
  <advance width="338"/>
  <unicode hex="1E842"/>
  <outline>
    <contour>
      <point x="206" y="714" type="line"/>
      <point x="132" y="714" type="line"/>
      <point x="132" y="246" type="line"/>
      <point x="74" y="230"/>
      <point x="30" y="178"/>
      <point x="30" y="115" type="curve" smooth="yes"/>
      <point x="30" y="40"/>
      <point x="94" y="-20"/>
      <point x="169" y="-20" type="curve" smooth="yes"/>
      <point x="244" y="-20"/>
      <point x="308" y="40"/>
      <point x="308" y="115" type="curve" smooth="yes"/>
      <point x="308" y="178"/>
      <point x="264" y="230"/>
      <point x="206" y="246" type="curve"/>
    </contour>
    <contour>
      <point x="99" y="115" type="curve" smooth="yes"/>
      <point x="99" y="155"/>
      <point x="131" y="186"/>
      <point x="169" y="186" type="curve" smooth="yes"/>
      <point x="207" y="186"/>
      <point x="239" y="156"/>
      <point x="239" y="115" type="curve" smooth="yes"/>
      <point x="239" y="76"/>
      <point x="207" y="45"/>
      <point x="169" y="45" type="curve" smooth="yes"/>
      <point x="131" y="45"/>
      <point x="99" y="76"/>
    </contour>
  </outline>
</glyph>
<glyph name="u1E843" format="2">
  <advance width="963"/>
  <unicode hex="1E843"/>
  <outline>
    <contour>
      <point x="923" y="315" type="curve" smooth="yes"/>
      <point x="923" y="427"/>
      <point x="830" y="515"/>
      <point x="719" y="515" type="curve" smooth="yes"/>
      <point x="639" y="515"/>
      <point x="567" y="468"/>
      <point x="534" y="400" type="curve"/>
      <point x="40" y="400" type="line"/>
      <point x="40" y="332" type="line"/>
      <point x="516" y="332" type="line"/>
      <point x="515" y="325"/>
      <point x="515" y="318"/>
      <point x="515" y="312" type="curve" smooth="yes"/>
      <point x="515" y="303"/>
      <point x="515" y="298"/>
      <point x="516" y="290" type="curve"/>
      <point x="40" y="290" type="line"/>
      <point x="40" y="222" type="line"/>
      <point x="539" y="222" type="line"/>
      <point x="574" y="159"/>
      <point x="642" y="117"/>
      <point x="719" y="117" type="curve" smooth="yes"/>
      <point x="830" y="117"/>
      <point x="923" y="204"/>
    </contour>
    <contour>
      <point x="847" y="315" type="curve" smooth="yes"/>
      <point x="847" y="244"/>
      <point x="788" y="187"/>
      <point x="718" y="187" type="curve" smooth="yes"/>
      <point x="650" y="187"/>
      <point x="591" y="244"/>
      <point x="591" y="315" type="curve" smooth="yes"/>
      <point x="591" y="391"/>
      <point x="650" y="445"/>
      <point x="718" y="445" type="curve" smooth="yes"/>
      <point x="788" y="445"/>
      <point x="847" y="390"/>
    </contour>
    <component base="dot1" xOffset="493" yOffset="-508"/>
  </outline>
</glyph>
<glyph name="u1E844" format="2">
  <advance width="466"/>
  <unicode hex="1E844"/>
  <outline>
    <contour>
      <point x="352" y="545" type="line"/>
      <point x="426" y="545" type="line"/>
      <point x="426" y="553" type="line" smooth="yes"/>
      <point x="426" y="684"/>
      <point x="345" y="735"/>
      <point x="250" y="735" type="curve" smooth="yes"/>
      <point x="145" y="735"/>
      <point x="90" y="681"/>
      <point x="90" y="565" type="curve" smooth="yes"/>
      <point x="90" y="0" type="line"/>
      <point x="164" y="0" type="line"/>
      <point x="164" y="565" type="line" smooth="yes"/>
      <point x="164" y="630"/>
      <point x="184" y="670"/>
      <point x="256" y="670" type="curve" smooth="yes"/>
      <point x="308" y="670"/>
      <point x="352" y="641"/>
      <point x="352" y="553" type="curve" smooth="yes"/>
    </contour>
  </outline>
</glyph>
<glyph name="u1E847" format="2">
  <advance width="521"/>
  <unicode hex="1E847"/>
  <outline>
    <contour>
      <point x="79" y="101" type="curve" smooth="yes"/>
      <point x="79" y="38"/>
      <point x="133" y="-13"/>
      <point x="197" y="-13" type="curve" smooth="yes"/>
      <point x="260" y="-13"/>
      <point x="315" y="38"/>
      <point x="315" y="101" type="curve" smooth="yes"/>
      <point x="315" y="499" type="line"/>
      <point x="414" y="500"/>
      <point x="481" y="557"/>
      <point x="481" y="624" type="curve" smooth="yes"/>
      <point x="481" y="672"/>
      <point x="449" y="727"/>
      <point x="370" y="727" type="curve" smooth="yes"/>
      <point x="271" y="727"/>
      <point x="242" y="647"/>
      <point x="241" y="569" type="curve"/>
      <point x="180" y="586"/>
      <point x="128" y="628"/>
      <point x="95" y="714" type="curve"/>
      <point x="30" y="714" type="line"/>
      <point x="49" y="615"/>
      <point x="127" y="532"/>
      <point x="241" y="507" type="curve"/>
      <point x="241" y="207" type="line"/>
      <point x="227" y="213"/>
      <point x="212" y="216"/>
      <point x="197" y="216" type="curve" smooth="yes"/>
      <point x="133" y="216"/>
      <point x="79" y="166"/>
    </contour>
    <contour>
      <point x="143" y="103" type="curve" smooth="yes"/>
      <point x="143" y="135"/>
      <point x="168" y="157"/>
      <point x="197" y="157" type="curve" smooth="yes"/>
      <point x="228" y="157"/>
      <point x="251" y="136"/>
      <point x="251" y="103" type="curve" smooth="yes"/>
      <point x="251" y="71"/>
      <point x="228" y="48"/>
      <point x="197" y="48" type="curve" smooth="yes"/>
      <point x="168" y="48"/>
      <point x="143" y="71"/>
    </contour>
    <contour>
      <point x="315" y="560" type="curve"/>
      <point x="315" y="572" type="line" smooth="yes"/>
      <point x="315" y="651"/>
      <point x="336" y="668"/>
      <point x="370" y="668" type="curve" smooth="yes"/>
      <point x="393" y="668"/>
      <point x="417" y="650"/>
      <point x="417" y="624" type="curve" smooth="yes"/>
      <point x="417" y="587"/>
      <point x="388" y="561"/>
    </contour>
  </outline>
</glyph>
<glyph name="u1E848" format="2">
  <advance width="566"/>
  <unicode hex="1E848"/>
  <outline>
    <contour>
      <point x="452" y="545" type="line"/>
      <point x="526" y="545" type="line"/>
      <point x="526" y="553" type="line" smooth="yes"/>
      <point x="526" y="684"/>
      <point x="445" y="735"/>
      <point x="350" y="735" type="curve" smooth="yes"/>
      <point x="245" y="735"/>
      <point x="190" y="681"/>
      <point x="190" y="565" type="curve" smooth="yes"/>
      <point x="190" y="380" type="line"/>
      <point x="118" y="380" type="line"/>
      <point x="118" y="460" type="line"/>
      <point x="50" y="460" type="line"/>
      <point x="50" y="232" type="line"/>
      <point x="118" y="232" type="line"/>
      <point x="118" y="322" type="line"/>
      <point x="190" y="322" type="line"/>
      <point x="190" y="0" type="line"/>
      <point x="264" y="0" type="line"/>
      <point x="264" y="322" type="line"/>
      <point x="337" y="322" type="line"/>
      <point x="337" y="232" type="line"/>
      <point x="405" y="232" type="line"/>
      <point x="405" y="460" type="line"/>
      <point x="337" y="460" type="line"/>
      <point x="337" y="380" type="line"/>
      <point x="264" y="380" type="line"/>
      <point x="264" y="565" type="line" smooth="yes"/>
      <point x="264" y="630"/>
      <point x="284" y="670"/>
      <point x="356" y="670" type="curve" smooth="yes"/>
      <point x="408" y="670"/>
      <point x="452" y="641"/>
      <point x="452" y="553" type="curve" smooth="yes"/>
    </contour>
  </outline>
</glyph>
<glyph name="u1E849" format="2">
  <advance width="588"/>
  <unicode hex="1E849"/>
  <outline>
    <contour>
      <point x="508" y="387" type="line"/>
      <point x="552" y="428" type="line"/>
      <point x="458" y="543" type="line"/>
      <point x="558" y="688" type="line"/>
      <point x="502" y="727" type="line"/>
      <point x="413" y="597" type="line"/>
      <point x="314" y="719" type="line"/>
      <point x="270" y="678" type="line"/>
      <point x="378" y="545" type="line"/>
      <point x="294" y="421" type="line"/>
      <point x="86" y="727" type="line"/>
      <point x="30" y="688" type="line"/>
      <point x="254" y="363" type="line"/>
      <point x="46" y="58" type="line"/>
      <point x="46" y="0" type="line"/>
      <point x="542" y="0" type="line"/>
      <point x="542" y="58" type="line"/>
      <point x="334" y="363" type="line"/>
      <point x="422" y="491" type="line"/>
    </contour>
    <contour>
      <point x="294" y="305" type="line"/>
      <point x="457" y="68" type="line"/>
      <point x="131" y="68" type="line"/>
    </contour>
  </outline>
</glyph>
<glyph name="u1E84A" format="2">
  <advance width="1153"/>
  <unicode hex="1E84A"/>
  <outline>
    <contour>
      <point x="1103" y="192" type="line"/>
      <point x="1103" y="500" type="line"/>
      <point x="1035" y="500" type="line"/>
      <point x="1035" y="400" type="line"/>
      <point x="118" y="400" type="line"/>
      <point x="118" y="500" type="line"/>
      <point x="50" y="500" type="line"/>
      <point x="50" y="192" type="line"/>
      <point x="118" y="192" type="line"/>
      <point x="118" y="332" type="line"/>
      <point x="1035" y="332" type="line"/>
      <point x="1035" y="192" type="line"/>
    </contour>
    <contour>
      <point x="847" y="192" type="line"/>
      <point x="847" y="256" type="line"/>
      <point x="309" y="256" type="line"/>
      <point x="309" y="192" type="line"/>
    </contour>
    <contour>
      <point x="847" y="476" type="line"/>
      <point x="847" y="540" type="line"/>
      <point x="309" y="540" type="line"/>
      <point x="309" y="476" type="line"/>
    </contour>
  </outline>
</glyph>
<glyph name="u1E84B" format="2">
  <advance width="608"/>
  <unicode hex="1E84B"/>
  <outline>
    <contour>
      <point x="558" y="0" type="line"/>
      <point x="558" y="68" type="line"/>
      <point x="304" y="68" type="line" smooth="yes"/>
      <point x="192" y="68"/>
      <point x="126" y="109"/>
      <point x="126" y="198" type="curve" smooth="yes"/>
      <point x="126" y="290"/>
      <point x="207" y="324"/>
      <point x="291" y="324" type="curve" smooth="yes"/>
      <point x="558" y="324" type="line"/>
      <point x="558" y="392" type="line"/>
      <point x="304" y="392" type="line" smooth="yes"/>
      <point x="192" y="392"/>
      <point x="126" y="432"/>
      <point x="126" y="521" type="curve" smooth="yes"/>
      <point x="126" y="617"/>
      <point x="216" y="646"/>
      <point x="304" y="646" type="curve" smooth="yes"/>
      <point x="558" y="646" type="line"/>
      <point x="558" y="714" type="line"/>
      <point x="294" y="714" type="line" smooth="yes"/>
      <point x="163" y="714"/>
      <point x="50" y="643"/>
      <point x="50" y="517" type="curve" smooth="yes"/>
      <point x="50" y="445"/>
      <point x="86" y="389"/>
      <point x="157" y="355" type="curve"/>
      <point x="91" y="328"/>
      <point x="50" y="271"/>
      <point x="50" y="194" type="curve" smooth="yes"/>
      <point x="50" y="79"/>
      <point x="132" y="0"/>
      <point x="294" y="0" type="curve" smooth="yes"/>
    </contour>
  </outline>
</glyph>
<glyph name="u1E84E" format="2">
  <advance width="787"/>
  <unicode hex="1E84E"/>
  <outline>
    <contour>
      <point x="269" y="0" type="line"/>
      <point x="343" y="0" type="line"/>
      <point x="343" y="224" type="line"/>
      <point x="463" y="225"/>
      <point x="514" y="289"/>
      <point x="514" y="356" type="curve" smooth="yes"/>
      <point x="514" y="404"/>
      <point x="477" y="459"/>
      <point x="398" y="459" type="curve" smooth="yes"/>
      <point x="297" y="459"/>
      <point x="269" y="374"/>
      <point x="269" y="294" type="curve"/>
      <point x="179" y="301"/>
      <point x="126" y="333"/>
      <point x="126" y="395" type="curve" smooth="yes"/>
      <point x="126" y="487"/>
      <point x="239" y="503"/>
      <point x="333" y="503" type="curve" smooth="yes"/>
      <point x="661" y="503" type="line"/>
      <point x="661" y="567" type="line"/>
      <point x="573" y="567" type="line" smooth="yes"/>
      <point x="544" y="567"/>
      <point x="521" y="590"/>
      <point x="521" y="617" type="curve" smooth="yes"/>
      <point x="521" y="648"/>
      <point x="562" y="650"/>
      <point x="589" y="650" type="curve" smooth="yes"/>
      <point x="767" y="650" type="line"/>
      <point x="767" y="714" type="line"/>
      <point x="584" y="714" type="line" smooth="yes"/>
      <point x="512" y="714"/>
      <point x="452" y="680"/>
      <point x="452" y="616" type="curve" smooth="yes"/>
      <point x="452" y="598"/>
      <point x="456" y="581"/>
      <point x="464" y="567" type="curve"/>
      <point x="323" y="567" type="line" smooth="yes"/>
      <point x="193" y="567"/>
      <point x="50" y="529"/>
      <point x="50" y="395" type="curve" smooth="yes"/>
      <point x="50" y="299"/>
      <point x="126" y="238"/>
      <point x="269" y="226" type="curve"/>
    </contour>
    <contour>
      <point x="343" y="292" type="curve"/>
      <point x="343" y="304" type="line" smooth="yes"/>
      <point x="343" y="374"/>
      <point x="364" y="396"/>
      <point x="398" y="396" type="curve" smooth="yes"/>
      <point x="421" y="396"/>
      <point x="445" y="382"/>
      <point x="445" y="356" type="curve" smooth="yes"/>
      <point x="445" y="319"/>
      <point x="424" y="293"/>
    </contour>
  </outline>
</glyph>
<glyph name="u1E84F" format="2">
  <advance width="908"/>
  <unicode hex="1E84F"/>
  <outline>
    <contour>
      <point x="868" y="332" type="line"/>
      <point x="868" y="400" type="line"/>
      <point x="40" y="400" type="line"/>
      <point x="40" y="332" type="line"/>
      <point x="206" y="332" type="line"/>
      <point x="92" y="117" type="line"/>
      <point x="149" y="89" type="line"/>
      <point x="280" y="332" type="line"/>
      <point x="406" y="332" type="line"/>
      <point x="257" y="52" type="line"/>
      <point x="314" y="24" type="line"/>
      <point x="480" y="332" type="line"/>
      <point x="606" y="332" type="line"/>
      <point x="437" y="15" type="line"/>
      <point x="494" y="-13" type="line"/>
      <point x="680" y="332" type="line"/>
    </contour>
    <contour>
      <point x="788" y="502" type="line"/>
      <point x="788" y="566" type="line"/>
      <point x="120" y="566" type="line"/>
      <point x="120" y="502" type="line"/>
    </contour>
  </outline>
</glyph>
<glyph name="u1E850" format="2">
  <advance width="1026"/>
  <unicode hex="1E850"/>
  <outline>
    <contour>
      <point x="640" y="633" type="line"/>
      <point x="572" y="633" type="line"/>
      <point x="572" y="487" type="line"/>
      <point x="520" y="487" type="line"/>
      <point x="520" y="633" type="line"/>
      <point x="452" y="633" type="line"/>
      <point x="452" y="487" type="line"/>
      <point x="400" y="487" type="line"/>
      <point x="400" y="633" type="line"/>
      <point x="332" y="633" type="line"/>
      <point x="332" y="487" type="line"/>
      <point x="50" y="487" type="line"/>
      <point x="50" y="199" type="line"/>
      <point x="340" y="199" type="line"/>
      <point x="237" y="5" type="line"/>
      <point x="294" y="-23" type="line"/>
      <point x="414" y="199" type="line"/>
      <point x="481" y="199" type="line"/>
      <point x="377" y="5" type="line"/>
      <point x="434" y="-23" type="line"/>
      <point x="554" y="199" type="line"/>
      <point x="778" y="199" type="line" smooth="yes"/>
      <point x="934" y="199"/>
      <point x="986" y="263"/>
      <point x="986" y="348" type="curve" smooth="yes"/>
      <point x="986" y="434"/>
      <point x="908" y="487"/>
      <point x="778" y="487" type="curve" smooth="yes"/>
      <point x="640" y="487" type="line"/>
    </contour>
    <contour>
      <point x="120" y="419" type="line"/>
      <point x="778" y="419" type="line" smooth="yes"/>
      <point x="872" y="419"/>
      <point x="910" y="394"/>
      <point x="910" y="348" type="curve" smooth="yes"/>
      <point x="910" y="309"/>
      <point x="893" y="267"/>
      <point x="778" y="267" type="curve" smooth="yes"/>
      <point x="120" y="267" type="line"/>
    </contour>
  </outline>
</glyph>
<glyph name="u1E851" format="2">
  <advance width="738"/>
  <unicode hex="1E851"/>
  <outline>
    <contour>
      <point x="698" y="612" type="line"/>
      <point x="698" y="680" type="line"/>
      <point x="40" y="680" type="line"/>
      <point x="40" y="612" type="line"/>
      <point x="555" y="360" type="line"/>
      <point x="40" y="360" type="line"/>
      <point x="40" y="292" type="line"/>
      <point x="698" y="292" type="line"/>
      <point x="698" y="359" type="line"/>
      <point x="182" y="612" type="line"/>
    </contour>
    <contour>
      <point x="698" y="112" type="line"/>
      <point x="698" y="180" type="line"/>
      <point x="40" y="180" type="line"/>
      <point x="40" y="112" type="line"/>
    </contour>
  </outline>
</glyph>
<glyph name="u1E852" format="2">
  <advance width="873"/>
  <unicode hex="1E852"/>
  <outline>
    <contour>
      <point x="231" y="40" type="line"/>
      <point x="305" y="40" type="line"/>
      <point x="305" y="400" type="line"/>
      <point x="597" y="400" type="line"/>
      <point x="597" y="268" type="line"/>
      <point x="665" y="268" type="line"/>
      <point x="665" y="400" type="line"/>
      <point x="843" y="400" type="line"/>
      <point x="843" y="468" type="line"/>
      <point x="665" y="468" type="line"/>
      <point x="665" y="606" type="line"/>
      <point x="597" y="606" type="line"/>
      <point x="597" y="468" type="line"/>
      <point x="305" y="468" type="line"/>
      <point x="305" y="506" type="line" smooth="yes"/>
      <point x="305" y="586"/>
      <point x="277" y="670"/>
      <point x="176" y="670" type="curve" smooth="yes"/>
      <point x="77" y="670"/>
      <point x="40" y="595"/>
      <point x="40" y="547" type="curve" smooth="yes"/>
      <point x="40" y="461"/>
      <point x="110" y="401"/>
      <point x="231" y="400" type="curve"/>
    </contour>
    <contour>
      <point x="109" y="547" type="curve" smooth="yes"/>
      <point x="109" y="573"/>
      <point x="123" y="607"/>
      <point x="168" y="607" type="curve" smooth="yes"/>
      <point x="210" y="607"/>
      <point x="231" y="585"/>
      <point x="231" y="515" type="curve" smooth="yes"/>
      <point x="231" y="468" type="line"/>
      <point x="148" y="468"/>
      <point x="109" y="491"/>
    </contour>
  </outline>
</glyph>
<glyph name="u1E853" format="2">
  <advance width="629"/>
  <unicode hex="1E853"/>
  <outline>
    <contour>
      <point x="351" y="714" type="line"/>
      <point x="277" y="714" type="line"/>
      <point x="277" y="420" type="line"/>
      <point x="152" y="439"/>
      <point x="128" y="560"/>
      <point x="125" y="714" type="curve"/>
      <point x="50" y="714" type="line"/>
      <point x="54" y="490"/>
      <point x="118" y="366"/>
      <point x="277" y="350" type="curve"/>
      <point x="277" y="0" type="line"/>
      <point x="351" y="0" type="line"/>
      <point x="351" y="350" type="line"/>
      <point x="506" y="366"/>
      <point x="574" y="491"/>
      <point x="579" y="714" type="curve"/>
      <point x="503" y="714" type="line"/>
      <point x="499" y="560"/>
      <point x="477" y="440"/>
      <point x="351" y="421" type="curve"/>
    </contour>
  </outline>
</glyph>
<glyph name="u1E856" format="2">
  <advance width="1026"/>
  <unicode hex="1E856"/>
  <outline>
    <contour>
      <point x="361" y="487" type="curve"/>
      <point x="50" y="487" type="line"/>
      <point x="50" y="199" type="line"/>
      <point x="362" y="199" type="line"/>
      <point x="353" y="182"/>
      <point x="348" y="163"/>
      <point x="348" y="143" type="curve" smooth="yes"/>
      <point x="348" y="80"/>
      <point x="402" y="29"/>
      <point x="466" y="29" type="curve" smooth="yes"/>
      <point x="529" y="29"/>
      <point x="584" y="80"/>
      <point x="584" y="143" type="curve" smooth="yes"/>
      <point x="584" y="163"/>
      <point x="578" y="182"/>
      <point x="569" y="199" type="curve"/>
      <point x="778" y="199" type="line" smooth="yes"/>
      <point x="934" y="199"/>
      <point x="986" y="263"/>
      <point x="986" y="348" type="curve" smooth="yes"/>
      <point x="986" y="434"/>
      <point x="908" y="487"/>
      <point x="778" y="487" type="curve" smooth="yes"/>
      <point x="570" y="487" type="line"/>
      <point x="579" y="503"/>
      <point x="584" y="521"/>
      <point x="584" y="540" type="curve" smooth="yes"/>
      <point x="584" y="605"/>
      <point x="529" y="655"/>
      <point x="466" y="655" type="curve" smooth="yes"/>
      <point x="402" y="655"/>
      <point x="348" y="605"/>
      <point x="348" y="540" type="curve" smooth="yes"/>
      <point x="348" y="521"/>
      <point x="353" y="503"/>
    </contour>
    <contour>
      <point x="120" y="419" type="line"/>
      <point x="778" y="419" type="line" smooth="yes"/>
      <point x="872" y="419"/>
      <point x="910" y="394"/>
      <point x="910" y="348" type="curve" smooth="yes"/>
      <point x="910" y="309"/>
      <point x="893" y="267"/>
      <point x="778" y="267" type="curve" smooth="yes"/>
      <point x="120" y="267" type="line"/>
    </contour>
    <contour>
      <point x="412" y="145" type="curve" smooth="yes"/>
      <point x="412" y="172"/>
      <point x="431" y="199"/>
      <point x="466" y="199" type="curve" smooth="yes"/>
      <point x="497" y="199"/>
      <point x="520" y="178"/>
      <point x="520" y="145" type="curve" smooth="yes"/>
      <point x="520" y="113"/>
      <point x="497" y="90"/>
      <point x="466" y="90" type="curve" smooth="yes"/>
      <point x="437" y="90"/>
      <point x="412" y="113"/>
    </contour>
    <contour>
      <point x="412" y="542" type="curve" smooth="yes"/>
      <point x="412" y="574"/>
      <point x="437" y="596"/>
      <point x="466" y="596" type="curve" smooth="yes"/>
      <point x="497" y="596"/>
      <point x="520" y="575"/>
      <point x="520" y="542" type="curve" smooth="yes"/>
      <point x="520" y="510"/>
      <point x="497" y="487"/>
      <point x="466" y="487" type="curve" smooth="yes"/>
      <point x="437" y="487"/>
      <point x="412" y="510"/>
    </contour>
  </outline>
</glyph>
<glyph name="u1E857" format="2">
  <advance width="857"/>
  <unicode hex="1E857"/>
  <outline>
    <contour>
      <point x="124" y="580" type="line"/>
      <point x="124" y="524" type="line"/>
      <point x="656" y="375" type="line"/>
      <point x="676" y="445" type="line"/>
      <point x="257" y="552" type="line"/>
      <point x="676" y="659" type="line"/>
      <point x="656" y="729" type="line"/>
    </contour>
    <contour>
      <point x="124" y="190" type="line"/>
      <point x="124" y="134" type="line"/>
      <point x="656" y="-15" type="line"/>
      <point x="676" y="55" type="line"/>
      <point x="257" y="162" type="line"/>
      <point x="676" y="269" type="line"/>
      <point x="656" y="339" type="line"/>
    </contour>
    <contour>
      <point x="137" y="347" type="curve" smooth="yes"/>
      <point x="137" y="380"/>
      <point x="115" y="401"/>
      <point x="83" y="401" type="curve" smooth="yes"/>
      <point x="52" y="401"/>
      <point x="30" y="380"/>
      <point x="30" y="347" type="curve" smooth="yes"/>
      <point x="30" y="313"/>
      <point x="49" y="294"/>
      <point x="83" y="294" type="curve" smooth="yes"/>
      <point x="115" y="294"/>
      <point x="137" y="313"/>
    </contour>
    <contour>
      <point x="827" y="347" type="curve" smooth="yes"/>
      <point x="827" y="380"/>
      <point x="805" y="401"/>
      <point x="773" y="401" type="curve" smooth="yes"/>
      <point x="742" y="401"/>
      <point x="720" y="380"/>
      <point x="720" y="347" type="curve" smooth="yes"/>
      <point x="720" y="313"/>
      <point x="739" y="294"/>
      <point x="773" y="294" type="curve" smooth="yes"/>
      <point x="805" y="294"/>
      <point x="827" y="313"/>
    </contour>
  </outline>
</glyph>
<glyph name="u1E858" format="2">
  <advance width="766"/>
  <unicode hex="1E858"/>
  <outline>
    <contour>
      <point x="40" y="285" type="curve" smooth="yes"/>
      <point x="40" y="199"/>
      <point x="113" y="130"/>
      <point x="199" y="130" type="curve" smooth="yes"/>
      <point x="285" y="130"/>
      <point x="358" y="199"/>
      <point x="358" y="285" type="curve" smooth="yes"/>
      <point x="358" y="317"/>
      <point x="348" y="347"/>
      <point x="330" y="372" type="curve"/>
      <point x="514" y="372" type="line"/>
      <point x="514" y="223" type="line"/>
      <point x="588" y="223" type="line"/>
      <point x="588" y="372" type="line"/>
      <point x="746" y="372" type="line"/>
      <point x="746" y="440" type="line"/>
      <point x="588" y="440" type="line"/>
      <point x="588" y="572" type="line"/>
      <point x="514" y="572" type="line"/>
      <point x="514" y="440" type="line"/>
      <point x="199" y="440" type="line" smooth="yes"/>
      <point x="113" y="440"/>
      <point x="40" y="371"/>
    </contour>
    <contour>
      <point x="109" y="285" type="curve" smooth="yes"/>
      <point x="109" y="335"/>
      <point x="149" y="375"/>
      <point x="199" y="375" type="curve" smooth="yes"/>
      <point x="249" y="375"/>
      <point x="289" y="335"/>
      <point x="289" y="285" type="curve" smooth="yes"/>
      <point x="289" y="235"/>
      <point x="249" y="195"/>
      <point x="199" y="195" type="curve" smooth="yes"/>
      <point x="149" y="195"/>
      <point x="109" y="235"/>
    </contour>
  </outline>
</glyph>
<glyph name="u1E859" format="2">
  <advance width="738"/>
  <unicode hex="1E859"/>
  <outline>
    <contour>
      <point x="698" y="320" type="line"/>
      <point x="698" y="388" type="line"/>
      <point x="40" y="388" type="line"/>
      <point x="40" y="320" type="line"/>
      <point x="555" y="68" type="line"/>
      <point x="40" y="68" type="line"/>
      <point x="40" y="0" type="line"/>
      <point x="698" y="0" type="line"/>
      <point x="698" y="67" type="line"/>
      <point x="182" y="320" type="line"/>
    </contour>
    <contour>
      <point x="263" y="582" type="line"/>
      <point x="263" y="523" type="line"/>
      <point x="446" y="429" type="line"/>
      <point x="469" y="487" type="line"/>
      <point x="326" y="554" type="line"/>
      <point x="469" y="620" type="line"/>
      <point x="446" y="676" type="line"/>
    </contour>
  </outline>
</glyph>
<glyph name="u1E85A" format="2">
  <advance width="688"/>
  <unicode hex="1E85A"/>
  <outline>
    <contour>
      <point x="221" y="368" type="curve" smooth="yes"/>
      <point x="221" y="301"/>
      <point x="278" y="248"/>
      <point x="345" y="248" type="curve" smooth="yes"/>
      <point x="411" y="248"/>
      <point x="468" y="301"/>
      <point x="468" y="368" type="curve" smooth="yes"/>
      <point x="468" y="436"/>
      <point x="411" y="489"/>
      <point x="345" y="489" type="curve" smooth="yes"/>
      <point x="278" y="489"/>
      <point x="221" y="436"/>
    </contour>
    <contour>
      <point x="287" y="369" type="curve" smooth="yes"/>
      <point x="287" y="402"/>
      <point x="314" y="426"/>
      <point x="345" y="426" type="curve" smooth="yes"/>
      <point x="376" y="426"/>
      <point x="402" y="403"/>
      <point x="402" y="369" type="curve" smooth="yes"/>
      <point x="402" y="336"/>
      <point x="376" y="311"/>
      <point x="345" y="311" type="curve" smooth="yes"/>
      <point x="314" y="311"/>
      <point x="287" y="336"/>
    </contour>
    <contour>
      <point x="60" y="366" type="curve" smooth="yes"/>
      <point x="60" y="209"/>
      <point x="188" y="85"/>
      <point x="343" y="85" type="curve" smooth="yes"/>
      <point x="500" y="85"/>
      <point x="628" y="209"/>
      <point x="628" y="366" type="curve" smooth="yes"/>
      <point x="628" y="522"/>
      <point x="500" y="650"/>
      <point x="343" y="650" type="curve" smooth="yes"/>
      <point x="188" y="650"/>
      <point x="60" y="522"/>
    </contour>
    <contour>
      <point x="136" y="366" type="curve" smooth="yes"/>
      <point x="136" y="488"/>
      <point x="234" y="580"/>
      <point x="343" y="580" type="curve" smooth="yes"/>
      <point x="454" y="580"/>
      <point x="552" y="488"/>
      <point x="552" y="366" type="curve" smooth="yes"/>
      <point x="552" y="246"/>
      <point x="454" y="155"/>
      <point x="343" y="155" type="curve" smooth="yes"/>
      <point x="234" y="155"/>
      <point x="136" y="246"/>
    </contour>
  </outline>
</glyph>
<glyph name="u1E85E" format="2">
  <advance width="756"/>
  <unicode hex="1E85E"/>
  <outline>
    <contour>
      <point x="455" y="714" type="line"/>
      <point x="381" y="714" type="line"/>
      <point x="381" y="589" type="line"/>
      <point x="228" y="589" type="line" smooth="yes"/>
      <point x="98" y="589"/>
      <point x="30" y="546"/>
      <point x="30" y="470" type="curve" smooth="yes"/>
      <point x="30" y="385"/>
      <point x="72" y="341"/>
      <point x="228" y="341" type="curve" smooth="yes"/>
      <point x="254" y="341" type="line"/>
      <point x="254" y="409" type="line"/>
      <point x="228" y="409" type="line" smooth="yes"/>
      <point x="113" y="409"/>
      <point x="99" y="431"/>
      <point x="99" y="470" type="curve" smooth="yes"/>
      <point x="99" y="506"/>
      <point x="134" y="521"/>
      <point x="228" y="521" type="curve" smooth="yes"/>
      <point x="381" y="521" type="line"/>
      <point x="381" y="220" type="line"/>
      <point x="271" y="220" type="line"/>
      <point x="271" y="156" type="line"/>
      <point x="381" y="156" type="line"/>
      <point x="381" y="0" type="line"/>
      <point x="455" y="0" type="line"/>
      <point x="455" y="156" type="line"/>
      <point x="565" y="156" type="line"/>
      <point x="565" y="220" type="line"/>
      <point x="455" y="220" type="line"/>
      <point x="455" y="521" type="line"/>
      <point x="736" y="521" type="line"/>
      <point x="736" y="589" type="line"/>
      <point x="455" y="589" type="line"/>
    </contour>
  </outline>
</glyph>
<glyph name="u1E85F" format="2">
  <advance width="713"/>
  <unicode hex="1E85F"/>
  <outline>
    <contour>
      <point x="383" y="714" type="line"/>
      <point x="309" y="714" type="line"/>
      <point x="309" y="547" type="line"/>
      <point x="67" y="642" type="line"/>
      <point x="40" y="574" type="line"/>
      <point x="309" y="469" type="line"/>
      <point x="309" y="268" type="line"/>
      <point x="40" y="164" type="line"/>
      <point x="67" y="96" type="line"/>
      <point x="309" y="191" type="line"/>
      <point x="309" y="0" type="line"/>
      <point x="383" y="0" type="line"/>
      <point x="383" y="220" type="line"/>
      <point x="673" y="334" type="line"/>
      <point x="673" y="404" type="line"/>
      <point x="383" y="518" type="line"/>
    </contour>
    <contour>
      <point x="383" y="440" type="line"/>
      <point x="567" y="369" type="line"/>
      <point x="383" y="297" type="line"/>
    </contour>
  </outline>
</glyph>
<glyph name="u1E860" format="2">
  <advance width="1142"/>
  <unicode hex="1E860"/>
  <outline>
    <contour>
      <point x="1101" y="604" type="curve" smooth="yes"/>
      <point x="1101" y="672"/>
      <point x="1044" y="725"/>
      <point x="977" y="725" type="curve" smooth="yes"/>
      <point x="911" y="725"/>
      <point x="854" y="672"/>
      <point x="854" y="604" type="curve" smooth="yes"/>
      <point x="854" y="596"/>
      <point x="855" y="588"/>
      <point x="856" y="580" type="curve"/>
      <point x="488" y="471" type="line"/>
      <point x="419" y="528"/>
      <point x="321" y="596"/>
      <point x="210" y="596" type="curve" smooth="yes"/>
      <point x="110" y="596"/>
      <point x="40" y="553"/>
      <point x="40" y="469" type="curve" smooth="yes"/>
      <point x="40" y="421"/>
      <point x="75" y="352"/>
      <point x="223" y="352" type="curve" smooth="yes"/>
      <point x="286" y="352"/>
      <point x="370" y="372"/>
      <point x="447" y="395" type="curve" smooth="yes"/>
      <point x="467" y="401" type="line"/>
      <point x="599" y="289" type="line"/>
      <point x="258" y="187" type="line"/>
      <point x="235" y="213"/>
      <point x="201" y="229"/>
      <point x="165" y="229" type="curve" smooth="yes"/>
      <point x="98" y="229"/>
      <point x="41" y="176"/>
      <point x="41" y="109" type="curve" smooth="yes"/>
      <point x="41" y="41"/>
      <point x="98" y="-12"/>
      <point x="165" y="-12" type="curve" smooth="yes"/>
      <point x="231" y="-12"/>
      <point x="288" y="41"/>
      <point x="288" y="109" type="curve" smooth="yes"/>
      <point x="288" y="117"/>
      <point x="287" y="125"/>
      <point x="285" y="132" type="curve"/>
      <point x="653" y="242" type="line"/>
      <point x="722" y="185"/>
      <point x="821" y="117"/>
      <point x="932" y="117" type="curve" smooth="yes"/>
      <point x="1032" y="117"/>
      <point x="1102" y="160"/>
      <point x="1102" y="244" type="curve" smooth="yes"/>
      <point x="1102" y="292"/>
      <point x="1067" y="361"/>
      <point x="919" y="361" type="curve" smooth="yes"/>
      <point x="856" y="361"/>
      <point x="772" y="341"/>
      <point x="695" y="318" type="curve" smooth="yes"/>
      <point x="675" y="312" type="line"/>
      <point x="543" y="424" type="line"/>
      <point x="884" y="526" type="line"/>
      <point x="907" y="500"/>
      <point x="940" y="484"/>
      <point x="977" y="484" type="curve" smooth="yes"/>
      <point x="1044" y="484"/>
      <point x="1101" y="537"/>
    </contour>
    <contour>
      <point x="732" y="265" type="curve"/>
      <point x="767" y="276" type="line" smooth="yes"/>
      <point x="807" y="288"/>
      <point x="860" y="298"/>
      <point x="910" y="298" type="curve" smooth="yes"/>
      <point x="996" y="298"/>
      <point x="1036" y="274"/>
      <point x="1036" y="244" type="curve" smooth="yes"/>
      <point x="1036" y="207"/>
      <point x="1006" y="180"/>
      <point x="930" y="180" type="curve" smooth="yes"/>
      <point x="857" y="180"/>
      <point x="798" y="214"/>
    </contour>
    <contour>
      <point x="232" y="415" type="curve" smooth="yes"/>
      <point x="146" y="415"/>
      <point x="106" y="439"/>
      <point x="106" y="469" type="curve" smooth="yes"/>
      <point x="106" y="506"/>
      <point x="136" y="533"/>
      <point x="212" y="533" type="curve" smooth="yes"/>
      <point x="284" y="533"/>
      <point x="344" y="499"/>
      <point x="410" y="447" type="curve"/>
      <point x="375" y="437" type="line" smooth="yes"/>
      <point x="335" y="425"/>
      <point x="282" y="415"/>
    </contour>
    <contour>
      <point x="1035" y="605" type="curve" smooth="yes"/>
      <point x="1035" y="572"/>
      <point x="1008" y="547"/>
      <point x="977" y="547" type="curve" smooth="yes"/>
      <point x="946" y="547"/>
      <point x="920" y="572"/>
      <point x="920" y="605" type="curve" smooth="yes"/>
      <point x="920" y="639"/>
      <point x="946" y="662"/>
      <point x="977" y="662" type="curve" smooth="yes"/>
      <point x="1008" y="662"/>
      <point x="1035" y="638"/>
    </contour>
    <contour>
      <point x="107" y="108" type="curve" smooth="yes"/>
      <point x="107" y="141"/>
      <point x="134" y="166"/>
      <point x="165" y="166" type="curve" smooth="yes"/>
      <point x="196" y="166"/>
      <point x="222" y="141"/>
      <point x="222" y="108" type="curve" smooth="yes"/>
      <point x="222" y="74"/>
      <point x="196" y="51"/>
      <point x="165" y="51" type="curve" smooth="yes"/>
      <point x="134" y="51"/>
      <point x="107" y="75"/>
    </contour>
  </outline>
</glyph>
<glyph name="u1E861" format="2">
  <advance width="1104"/>
  <unicode hex="1E861"/>
  <outline>
    <contour>
      <point x="254" y="555" type="line"/>
      <point x="186" y="555" type="line"/>
      <point x="186" y="400" type="line"/>
      <point x="128" y="400" type="line"/>
      <point x="128" y="555" type="line"/>
      <point x="60" y="555" type="line"/>
      <point x="60" y="210" type="line"/>
      <point x="128" y="210" type="line"/>
      <point x="128" y="332" type="line"/>
      <point x="186" y="332" type="line"/>
      <point x="186" y="210" type="line"/>
      <point x="254" y="210" type="line"/>
      <point x="254" y="332" type="line"/>
      <point x="416" y="332" type="line"/>
      <point x="403" y="311"/>
      <point x="396" y="287"/>
      <point x="396" y="261" type="curve" smooth="yes"/>
      <point x="396" y="186"/>
      <point x="460" y="126"/>
      <point x="535" y="126" type="curve" smooth="yes"/>
      <point x="610" y="126"/>
      <point x="674" y="186"/>
      <point x="674" y="261" type="curve" smooth="yes"/>
      <point x="674" y="287"/>
      <point x="666" y="311"/>
      <point x="653" y="332" type="curve"/>
      <point x="806" y="332" type="line"/>
      <point x="793" y="311"/>
      <point x="786" y="287"/>
      <point x="786" y="261" type="curve" smooth="yes"/>
      <point x="786" y="186"/>
      <point x="850" y="126"/>
      <point x="925" y="126" type="curve" smooth="yes"/>
      <point x="1000" y="126"/>
      <point x="1064" y="186"/>
      <point x="1064" y="261" type="curve" smooth="yes"/>
      <point x="1064" y="337"/>
      <point x="1000" y="400"/>
      <point x="925" y="400" type="curve" smooth="yes"/>
      <point x="254" y="400" type="line"/>
    </contour>
    <contour>
      <point x="855" y="261" type="curve" smooth="yes"/>
      <point x="855" y="301"/>
      <point x="887" y="332"/>
      <point x="925" y="332" type="curve" smooth="yes"/>
      <point x="963" y="332"/>
      <point x="995" y="302"/>
      <point x="995" y="261" type="curve" smooth="yes"/>
      <point x="995" y="222"/>
      <point x="963" y="191"/>
      <point x="925" y="191" type="curve" smooth="yes"/>
      <point x="887" y="191"/>
      <point x="855" y="222"/>
    </contour>
    <contour>
      <point x="465" y="261" type="curve" smooth="yes"/>
      <point x="465" y="301"/>
      <point x="497" y="332"/>
      <point x="535" y="332" type="curve" smooth="yes"/>
      <point x="573" y="332"/>
      <point x="605" y="302"/>
      <point x="605" y="261" type="curve" smooth="yes"/>
      <point x="605" y="222"/>
      <point x="573" y="191"/>
      <point x="535" y="191" type="curve" smooth="yes"/>
      <point x="497" y="191"/>
      <point x="465" y="222"/>
    </contour>
  </outline>
</glyph>
<glyph name="u1E862" format="2">
  <advance width="438"/>
  <unicode hex="1E862"/>
  <outline>
    <contour>
      <point x="80" y="123" type="curve" smooth="yes"/>
      <point x="80" y="48"/>
      <point x="144" y="-12"/>
      <point x="219" y="-12" type="curve" smooth="yes"/>
      <point x="294" y="-12"/>
      <point x="358" y="48"/>
      <point x="358" y="123" type="curve" smooth="yes"/>
      <point x="358" y="187"/>
      <point x="313" y="239"/>
      <point x="254" y="254" type="curve"/>
      <point x="254" y="340" type="line"/>
      <point x="368" y="380" type="line"/>
      <point x="368" y="448" type="line"/>
      <point x="254" y="408" type="line"/>
      <point x="254" y="460" type="line"/>
      <point x="313" y="475"/>
      <point x="358" y="528"/>
      <point x="358" y="591" type="curve" smooth="yes"/>
      <point x="358" y="667"/>
      <point x="294" y="727"/>
      <point x="219" y="727" type="curve" smooth="yes"/>
      <point x="144" y="727"/>
      <point x="80" y="667"/>
      <point x="80" y="591" type="curve" smooth="yes"/>
      <point x="80" y="528"/>
      <point x="125" y="475"/>
      <point x="184" y="460" type="curve"/>
      <point x="184" y="384" type="line"/>
      <point x="70" y="345" type="line"/>
      <point x="70" y="277" type="line"/>
      <point x="184" y="316" type="line"/>
      <point x="184" y="254" type="line"/>
      <point x="125" y="239"/>
      <point x="80" y="187"/>
    </contour>
    <contour>
      <point x="149" y="591" type="curve" smooth="yes"/>
      <point x="149" y="631"/>
      <point x="181" y="662"/>
      <point x="219" y="662" type="curve" smooth="yes"/>
      <point x="257" y="662"/>
      <point x="289" y="632"/>
      <point x="289" y="591" type="curve" smooth="yes"/>
      <point x="289" y="552"/>
      <point x="257" y="521"/>
      <point x="219" y="521" type="curve" smooth="yes"/>
      <point x="181" y="521"/>
      <point x="149" y="552"/>
    </contour>
    <contour>
      <point x="149" y="123" type="curve" smooth="yes"/>
      <point x="149" y="163"/>
      <point x="181" y="194"/>
      <point x="219" y="194" type="curve" smooth="yes"/>
      <point x="257" y="194"/>
      <point x="289" y="164"/>
      <point x="289" y="123" type="curve" smooth="yes"/>
      <point x="289" y="84"/>
      <point x="257" y="53"/>
      <point x="219" y="53" type="curve" smooth="yes"/>
      <point x="181" y="53"/>
      <point x="149" y="84"/>
    </contour>
  </outline>
</glyph>
<glyph name="u1E863" format="2">
  <advance width="780"/>
  <unicode hex="1E863"/>
  <outline>
    <contour>
      <point x="118" y="400" type="line"/>
      <point x="118" y="510" type="line"/>
      <point x="50" y="510" type="line"/>
      <point x="50" y="332" type="line"/>
      <point x="597" y="332" type="line"/>
      <point x="50" y="65" type="line"/>
      <point x="84" y="0" type="line"/>
      <point x="740" y="332" type="line"/>
      <point x="740" y="400" type="line"/>
    </contour>
  </outline>
</glyph>
<glyph name="u1E867" format="2">
  <advance width="368"/>
  <unicode hex="1E867"/>
  <outline>
    <contour>
      <point x="221" y="650" type="line"/>
      <point x="147" y="650" type="line"/>
      <point x="147" y="102" type="line"/>
      <point x="221" y="102" type="line"/>
    </contour>
    <contour>
      <point x="147" y="48" type="curve" smooth="yes"/>
      <point x="147" y="81"/>
      <point x="125" y="102"/>
      <point x="93" y="102" type="curve" smooth="yes"/>
      <point x="62" y="102"/>
      <point x="40" y="81"/>
      <point x="40" y="48" type="curve" smooth="yes"/>
      <point x="40" y="14"/>
      <point x="59" y="-5"/>
      <point x="93" y="-5" type="curve" smooth="yes"/>
      <point x="125" y="-5"/>
      <point x="147" y="14"/>
    </contour>
    <contour>
      <point x="328" y="48" type="curve" smooth="yes"/>
      <point x="328" y="81"/>
      <point x="305" y="102"/>
      <point x="274" y="102" type="curve" smooth="yes"/>
      <point x="243" y="102"/>
      <point x="221" y="81"/>
      <point x="221" y="48" type="curve" smooth="yes"/>
      <point x="221" y="14"/>
      <point x="240" y="-5"/>
      <point x="274" y="-5" type="curve" smooth="yes"/>
      <point x="306" y="-5"/>
      <point x="328" y="14"/>
    </contour>
    <contour>
      <point x="147" y="703" type="curve" smooth="yes"/>
      <point x="147" y="736"/>
      <point x="125" y="757"/>
      <point x="93" y="757" type="curve" smooth="yes"/>
      <point x="62" y="757"/>
      <point x="40" y="736"/>
      <point x="40" y="703" type="curve" smooth="yes"/>
      <point x="40" y="669"/>
      <point x="59" y="650"/>
      <point x="93" y="650" type="curve" smooth="yes"/>
      <point x="125" y="650"/>
      <point x="147" y="669"/>
    </contour>
    <contour>
      <point x="328" y="703" type="curve" smooth="yes"/>
      <point x="328" y="736"/>
      <point x="305" y="757"/>
      <point x="274" y="757" type="curve" smooth="yes"/>
      <point x="243" y="757"/>
      <point x="221" y="736"/>
      <point x="221" y="703" type="curve" smooth="yes"/>
      <point x="221" y="669"/>
      <point x="240" y="650"/>
      <point x="274" y="650" type="curve" smooth="yes"/>
      <point x="306" y="650"/>
      <point x="328" y="669"/>
    </contour>
  </outline>
</glyph>
<glyph name="u1E868" format="2">
  <advance width="774"/>
  <unicode hex="1E868"/>
  <outline>
    <contour>
      <point x="292" y="394" type="curve"/>
      <point x="293" y="404"/>
      <point x="293" y="414"/>
      <point x="293" y="422" type="curve" smooth="yes"/>
      <point x="293" y="512"/>
      <point x="242" y="556"/>
      <point x="166" y="556" type="curve" smooth="yes"/>
      <point x="97" y="556"/>
      <point x="50" y="506"/>
      <point x="50" y="447" type="curve" smooth="yes"/>
      <point x="50" y="368"/>
      <point x="103" y="313"/>
      <point x="203" y="313" type="curve" smooth="yes"/>
      <point x="213" y="313" type="line"/>
      <point x="213" y="311"/>
      <point x="212" y="306"/>
      <point x="211" y="302" type="curve" smooth="yes"/>
      <point x="145" y="0" type="line"/>
      <point x="216" y="0" type="line"/>
      <point x="277" y="279" type="line" smooth="yes"/>
      <point x="280" y="294"/>
      <point x="283" y="310"/>
      <point x="285" y="326" type="curve"/>
      <point x="355" y="348"/>
      <point x="416" y="381"/>
      <point x="481" y="401" type="curve"/>
      <point x="481" y="374" type="line" smooth="yes"/>
      <point x="481" y="284"/>
      <point x="532" y="240"/>
      <point x="608" y="240" type="curve" smooth="yes"/>
      <point x="677" y="240"/>
      <point x="724" y="290"/>
      <point x="724" y="349" type="curve" smooth="yes"/>
      <point x="724" y="428"/>
      <point x="671" y="483"/>
      <point x="571" y="483" type="curve" smooth="yes"/>
      <point x="567" y="483"/>
      <point x="561" y="482"/>
      <point x="560" y="482" type="curve"/>
      <point x="576" y="554" type="line"/>
      <point x="704" y="554" type="line"/>
      <point x="704" y="612" type="line"/>
      <point x="588" y="612" type="line"/>
      <point x="611" y="714" type="line"/>
      <point x="540" y="714" type="line"/>
      <point x="517" y="612" type="line"/>
      <point x="410" y="612" type="line"/>
      <point x="410" y="554" type="line"/>
      <point x="505" y="554" type="line"/>
      <point x="493" y="501"/>
      <point x="491" y="485"/>
      <point x="488" y="469" type="curve"/>
      <point x="420" y="448"/>
      <point x="359" y="413"/>
    </contour>
    <contour>
      <point x="569" y="418" type="curve" smooth="yes"/>
      <point x="645" y="418"/>
      <point x="655" y="386"/>
      <point x="655" y="349" type="curve" smooth="yes"/>
      <point x="655" y="323"/>
      <point x="631" y="305"/>
      <point x="608" y="305" type="curve" smooth="yes"/>
      <point x="584" y="305"/>
      <point x="550" y="322"/>
      <point x="550" y="374" type="curve" smooth="yes"/>
      <point x="550" y="389"/>
      <point x="550" y="403"/>
      <point x="551" y="417" type="curve"/>
      <point x="558" y="418"/>
      <point x="563" y="418"/>
    </contour>
    <contour>
      <point x="205" y="378" type="curve" smooth="yes"/>
      <point x="129" y="378"/>
      <point x="119" y="410"/>
      <point x="119" y="447" type="curve" smooth="yes"/>
      <point x="119" y="473"/>
      <point x="143" y="491"/>
      <point x="166" y="491" type="curve" smooth="yes"/>
      <point x="190" y="491"/>
      <point x="224" y="474"/>
      <point x="224" y="422" type="curve" smooth="yes"/>
      <point x="224" y="407"/>
      <point x="223" y="393"/>
      <point x="222" y="379" type="curve"/>
      <point x="216" y="378"/>
      <point x="210" y="378"/>
    </contour>
  </outline>
</glyph>
<glyph name="u1E86A" format="2">
  <advance width="525"/>
  <unicode hex="1E86A"/>
  <outline>
    <contour>
      <point x="395" y="248" type="line"/>
      <point x="395" y="312" type="line"/>
      <point x="147" y="312" type="line"/>
      <point x="165" y="432" type="line"/>
      <point x="495" y="432" type="line"/>
      <point x="495" y="496" type="line"/>
      <point x="174" y="496" type="line"/>
      <point x="207" y="714" type="line"/>
      <point x="137" y="714" type="line"/>
      <point x="30" y="0" type="line"/>
      <point x="101" y="0" type="line"/>
      <point x="138" y="248" type="line"/>
    </contour>
  </outline>
</glyph>
<glyph name="u1E86B" format="2">
  <advance width="841"/>
  <unicode hex="1E86B"/>
  <outline>
    <contour>
      <point x="496" y="412" type="curve"/>
      <point x="513" y="415"/>
      <point x="531" y="416"/>
      <point x="550" y="416" type="curve" smooth="yes"/>
      <point x="672" y="416"/>
      <point x="736" y="317"/>
      <point x="742" y="248" type="curve"/>
      <point x="811" y="248" type="line"/>
      <point x="811" y="333"/>
      <point x="733" y="484"/>
      <point x="544" y="484" type="curve" smooth="yes"/>
      <point x="500" y="484"/>
      <point x="457" y="477"/>
      <point x="420" y="462" type="curve"/>
      <point x="383" y="477"/>
      <point x="341" y="484"/>
      <point x="297" y="484" type="curve" smooth="yes"/>
      <point x="111" y="484"/>
      <point x="30" y="333"/>
      <point x="30" y="248" type="curve"/>
      <point x="99" y="248" type="line"/>
      <point x="105" y="317"/>
      <point x="169" y="416"/>
      <point x="291" y="416" type="curve" smooth="yes"/>
      <point x="310" y="416"/>
      <point x="328" y="415"/>
      <point x="345" y="412" type="curve"/>
      <point x="311" y="378"/>
      <point x="291" y="331"/>
      <point x="291" y="271" type="curve" smooth="yes"/>
      <point x="291" y="187"/>
      <point x="337" y="118"/>
      <point x="418" y="118" type="curve" smooth="yes"/>
      <point x="506" y="118"/>
      <point x="550" y="187"/>
      <point x="550" y="271" type="curve" smooth="yes"/>
      <point x="550" y="331"/>
      <point x="529" y="378"/>
    </contour>
    <contour>
      <point x="420" y="388" type="curve"/>
      <point x="455" y="366"/>
      <point x="476" y="331"/>
      <point x="476" y="275" type="curve" smooth="yes"/>
      <point x="476" y="223"/>
      <point x="456" y="186"/>
      <point x="421" y="186" type="curve" smooth="yes"/>
      <point x="374" y="186"/>
      <point x="365" y="240"/>
      <point x="365" y="275" type="curve" smooth="yes"/>
      <point x="365" y="331"/>
      <point x="385" y="366"/>
    </contour>
  </outline>
</glyph>
<glyph name="u1E86C" format="2">
  <advance width="634"/>
  <unicode hex="1E86C"/>
  <outline>
    <contour>
      <point x="488" y="650" type="line"/>
      <point x="90" y="650" type="line"/>
      <point x="90" y="40" type="line"/>
      <point x="488" y="40" type="line"/>
    </contour>
    <contour>
      <point x="164" y="108" type="line"/>
      <point x="164" y="582" type="line"/>
      <point x="414" y="582" type="line"/>
      <point x="414" y="108" type="line"/>
    </contour>
    <contour>
      <point x="343" y="448" type="curve" smooth="yes"/>
      <point x="343" y="481"/>
      <point x="321" y="502"/>
      <point x="289" y="502" type="curve" smooth="yes"/>
      <point x="258" y="502"/>
      <point x="236" y="481"/>
      <point x="236" y="448" type="curve" smooth="yes"/>
      <point x="236" y="414"/>
      <point x="255" y="395"/>
      <point x="289" y="395" type="curve" smooth="yes"/>
      <point x="321" y="395"/>
      <point x="343" y="414"/>
    </contour>
    <contour>
      <point x="343" y="258" type="curve" smooth="yes"/>
      <point x="343" y="291"/>
      <point x="321" y="312"/>
      <point x="289" y="312" type="curve" smooth="yes"/>
      <point x="258" y="312"/>
      <point x="236" y="291"/>
      <point x="236" y="258" type="curve" smooth="yes"/>
      <point x="236" y="224"/>
      <point x="255" y="205"/>
      <point x="289" y="205" type="curve" smooth="yes"/>
      <point x="321" y="205"/>
      <point x="343" y="224"/>
    </contour>
  </outline>
</glyph>
<glyph name="u1E86F" format="2">
  <advance width="888"/>
  <unicode hex="1E86F"/>
  <outline>
    <contour>
      <point x="542" y="326" type="curve"/>
      <point x="618" y="326" type="line"/>
      <point x="618" y="482"/>
      <point x="490" y="610"/>
      <point x="333" y="610" type="curve" smooth="yes"/>
      <point x="178" y="610"/>
      <point x="50" y="482"/>
      <point x="50" y="326" type="curve"/>
      <point x="126" y="326" type="line"/>
      <point x="126" y="448"/>
      <point x="224" y="540"/>
      <point x="333" y="540" type="curve" smooth="yes"/>
      <point x="444" y="540"/>
      <point x="542" y="448"/>
    </contour>
    <contour>
      <point x="838" y="360" type="curve"/>
      <point x="762" y="360" type="line"/>
      <point x="762" y="238"/>
      <point x="664" y="146"/>
      <point x="553" y="146" type="curve" smooth="yes"/>
      <point x="444" y="146"/>
      <point x="346" y="238"/>
      <point x="346" y="360" type="curve"/>
      <point x="270" y="360" type="line"/>
      <point x="270" y="204"/>
      <point x="398" y="76"/>
      <point x="553" y="76" type="curve" smooth="yes"/>
      <point x="710" y="76"/>
      <point x="838" y="204"/>
    </contour>
  </outline>
</glyph>
<glyph name="u1E870" format="2">
  <advance width="935"/>
  <unicode hex="1E870"/>
  <outline>
    <contour>
      <point x="155" y="118" type="curve" smooth="yes"/>
      <point x="212" y="118"/>
      <point x="260" y="163"/>
      <point x="260" y="221" type="curve" smooth="yes"/>
      <point x="260" y="278"/>
      <point x="212" y="323"/>
      <point x="155" y="323" type="curve" smooth="yes"/>
      <point x="145" y="323"/>
      <point x="135" y="321"/>
      <point x="126" y="319" type="curve"/>
      <point x="147" y="387"/>
      <point x="223" y="436"/>
      <point x="314" y="436" type="curve" smooth="yes"/>
      <point x="352" y="436"/>
      <point x="383" y="431"/>
      <point x="408" y="422" type="curve"/>
      <point x="387" y="396"/>
      <point x="374" y="363"/>
      <point x="374" y="325" type="curve" smooth="yes"/>
      <point x="374" y="267"/>
      <point x="410" y="212"/>
      <point x="467" y="212" type="curve" smooth="yes"/>
      <point x="527" y="212"/>
      <point x="561" y="264"/>
      <point x="561" y="325" type="curve" smooth="yes"/>
      <point x="561" y="363"/>
      <point x="548" y="396"/>
      <point x="526" y="422" type="curve"/>
      <point x="549" y="430"/>
      <point x="578" y="435"/>
      <point x="611" y="436" type="curve"/>
      <point x="611" y="328" type="line"/>
      <point x="679" y="328" type="line"/>
      <point x="679" y="429" type="line"/>
      <point x="743" y="413"/>
      <point x="792" y="372"/>
      <point x="809" y="319" type="curve"/>
      <point x="800" y="321"/>
      <point x="790" y="323"/>
      <point x="780" y="323" type="curve" smooth="yes"/>
      <point x="723" y="323"/>
      <point x="675" y="278"/>
      <point x="675" y="221" type="curve" smooth="yes"/>
      <point x="675" y="163"/>
      <point x="723" y="118"/>
      <point x="780" y="118" type="curve" smooth="yes"/>
      <point x="837" y="118"/>
      <point x="885" y="162"/>
      <point x="885" y="236" type="curve" smooth="yes"/>
      <point x="885" y="376"/>
      <point x="800" y="472"/>
      <point x="679" y="497" type="curve"/>
      <point x="679" y="650" type="line"/>
      <point x="611" y="650" type="line"/>
      <point x="611" y="504" type="line"/>
      <point x="559" y="503"/>
      <point x="508" y="492"/>
      <point x="467" y="470" type="curve"/>
      <point x="425" y="492"/>
      <point x="373" y="504"/>
      <point x="320" y="504" type="curve" smooth="yes"/>
      <point x="166" y="504"/>
      <point x="50" y="400"/>
      <point x="50" y="236" type="curve" smooth="yes"/>
      <point x="50" y="162"/>
      <point x="98" y="118"/>
    </contour>
    <contour>
      <point x="821" y="220" type="curve" smooth="yes"/>
      <point x="821" y="196"/>
      <point x="803" y="179"/>
      <point x="780" y="179" type="curve" smooth="yes"/>
      <point x="757" y="179"/>
      <point x="739" y="195"/>
      <point x="739" y="220" type="curve" smooth="yes"/>
      <point x="739" y="243"/>
      <point x="757" y="261"/>
      <point x="780" y="261" type="curve" smooth="yes"/>
      <point x="803" y="261"/>
      <point x="821" y="243"/>
    </contour>
    <contour>
      <point x="114" y="220" type="curve" smooth="yes"/>
      <point x="114" y="243"/>
      <point x="132" y="261"/>
      <point x="155" y="261" type="curve" smooth="yes"/>
      <point x="178" y="261"/>
      <point x="196" y="243"/>
      <point x="196" y="220" type="curve" smooth="yes"/>
      <point x="196" y="195"/>
      <point x="178" y="179"/>
      <point x="155" y="179" type="curve" smooth="yes"/>
      <point x="132" y="179"/>
      <point x="114" y="196"/>
    </contour>
    <contour>
      <point x="495" y="323" type="curve" smooth="yes"/>
      <point x="495" y="298"/>
      <point x="489" y="275"/>
      <point x="468" y="275" type="curve" smooth="yes"/>
      <point x="446" y="275"/>
      <point x="440" y="298"/>
      <point x="440" y="323" type="curve" smooth="yes"/>
      <point x="440" y="346"/>
      <point x="448" y="369"/>
      <point x="467" y="388" type="curve"/>
      <point x="486" y="369"/>
      <point x="495" y="346"/>
    </contour>
  </outline>
</glyph>
<glyph name="u1E871" format="2">
  <advance width="493"/>
  <unicode hex="1E871"/>
  <outline>
    <contour>
      <point x="117" y="462" type="line"/>
      <point x="85" y="405" type="line"/>
      <point x="197" y="353" type="line"/>
      <point x="127" y="295"/>
      <point x="60" y="234"/>
      <point x="60" y="158" type="curve" smooth="yes"/>
      <point x="60" y="75"/>
      <point x="107" y="-12"/>
      <point x="242" y="-12" type="curve" smooth="yes"/>
      <point x="378" y="-12"/>
      <point x="432" y="89"/>
      <point x="432" y="172" type="curve"/>
      <point x="359" y="172" type="line"/>
      <point x="359" y="113"/>
      <point x="333" y="56"/>
      <point x="243" y="56" type="curve" smooth="yes"/>
      <point x="164" y="56"/>
      <point x="136" y="98"/>
      <point x="136" y="158" type="curve" smooth="yes"/>
      <point x="136" y="217"/>
      <point x="196" y="269"/>
      <point x="262" y="323" type="curve"/>
      <point x="398" y="261" type="line"/>
      <point x="429" y="318" type="line"/>
      <point x="317" y="369" type="line"/>
      <point x="379" y="423"/>
      <point x="433" y="482"/>
      <point x="433" y="557" type="curve" smooth="yes"/>
      <point x="433" y="640"/>
      <point x="386" y="727"/>
      <point x="251" y="727" type="curve" smooth="yes"/>
      <point x="115" y="727"/>
      <point x="61" y="626"/>
      <point x="61" y="543" type="curve"/>
      <point x="134" y="543" type="line"/>
      <point x="134" y="602"/>
      <point x="160" y="659"/>
      <point x="250" y="659" type="curve" smooth="yes"/>
      <point x="329" y="659"/>
      <point x="357" y="617"/>
      <point x="357" y="557" type="curve" smooth="yes"/>
      <point x="357" y="498"/>
      <point x="309" y="448"/>
      <point x="252" y="399" type="curve"/>
    </contour>
  </outline>
</glyph>
<glyph name="u1E872" format="2">
  <advance width="593"/>
  <unicode hex="1E872"/>
  <outline>
    <contour>
      <point x="97" y="732" type="curve"/>
      <point x="60" y="675" type="line"/>
      <point x="133" y="623"/>
      <point x="197" y="552"/>
      <point x="252" y="473" type="curve"/>
      <point x="161" y="326"/>
      <point x="101" y="153"/>
      <point x="80" y="0" type="curve"/>
      <point x="157" y="0" type="line"/>
      <point x="171" y="123"/>
      <point x="220" y="270"/>
      <point x="296" y="402" type="curve"/>
      <point x="373" y="270"/>
      <point x="422" y="123"/>
      <point x="436" y="0" type="curve"/>
      <point x="513" y="0" type="line"/>
      <point x="491" y="153"/>
      <point x="432" y="326"/>
      <point x="341" y="473" type="curve"/>
      <point x="395" y="552"/>
      <point x="460" y="623"/>
      <point x="533" y="675" type="curve"/>
      <point x="496" y="732" type="line"/>
      <point x="420" y="684"/>
      <point x="353" y="617"/>
      <point x="296" y="539" type="curve"/>
      <point x="239" y="617"/>
      <point x="172" y="684"/>
    </contour>
  </outline>
</glyph>
<glyph name="u1E873" format="2">
  <advance width="555"/>
  <unicode hex="1E873"/>
  <outline>
    <contour>
      <point x="308" y="278" type="line"/>
      <point x="228" y="0" type="line"/>
      <point x="303" y="0" type="line"/>
      <point x="383" y="278" type="line"/>
      <point x="535" y="278" type="line"/>
      <point x="535" y="342" type="line"/>
      <point x="401" y="342" type="line"/>
      <point x="509" y="714" type="line"/>
      <point x="435" y="714" type="line"/>
      <point x="395" y="616"/>
      <point x="321" y="585"/>
      <point x="231" y="585" type="curve" smooth="yes"/>
      <point x="135" y="585"/>
      <point x="96" y="638"/>
      <point x="96" y="714" type="curve"/>
      <point x="20" y="714" type="line"/>
      <point x="20" y="629"/>
      <point x="67" y="515"/>
      <point x="228" y="515" type="curve" smooth="yes"/>
      <point x="291" y="515"/>
      <point x="347" y="532"/>
      <point x="389" y="558" type="curve"/>
      <point x="327" y="342" type="line"/>
      <point x="171" y="342" type="line"/>
      <point x="171" y="278" type="line"/>
    </contour>
  </outline>
</glyph>
<glyph name="u1E874" format="2">
  <advance width="630"/>
  <unicode hex="1E874"/>
  <outline>
    <contour>
      <point x="610" y="436" type="line"/>
      <point x="587" y="493" type="line"/>
      <point x="524" y="472" type="line"/>
      <point x="524" y="567" type="line"/>
      <point x="333" y="567" type="line"/>
      <point x="333" y="638" type="line" smooth="yes"/>
      <point x="333" y="667"/>
      <point x="346" y="686"/>
      <point x="374" y="686" type="curve" smooth="yes"/>
      <point x="392" y="686"/>
      <point x="411" y="678"/>
      <point x="411" y="646" type="curve"/>
      <point x="475" y="646" type="line"/>
      <point x="475" y="709"/>
      <point x="438" y="747"/>
      <point x="365" y="747" type="curve" smooth="yes"/>
      <point x="308" y="747"/>
      <point x="259" y="705"/>
      <point x="259" y="646" type="curve" smooth="yes"/>
      <point x="259" y="567" type="line"/>
      <point x="106" y="567" type="line"/>
      <point x="106" y="336" type="line"/>
      <point x="20" y="308" type="line"/>
      <point x="38" y="249" type="line"/>
      <point x="106" y="271" type="line"/>
      <point x="106" y="167" type="line"/>
      <point x="297" y="167" type="line"/>
      <point x="297" y="97" type="line" smooth="yes"/>
      <point x="297" y="68"/>
      <point x="284" y="49"/>
      <point x="256" y="49" type="curve" smooth="yes"/>
      <point x="238" y="49"/>
      <point x="219" y="57"/>
      <point x="219" y="89" type="curve"/>
      <point x="155" y="89" type="line"/>
      <point x="155" y="26"/>
      <point x="192" y="-12"/>
      <point x="265" y="-12" type="curve" smooth="yes"/>
      <point x="322" y="-12"/>
      <point x="371" y="30"/>
      <point x="371" y="89" type="curve" smooth="yes"/>
      <point x="371" y="167" type="line"/>
      <point x="524" y="167" type="line"/>
      <point x="524" y="408" type="line"/>
    </contour>
    <contour>
      <point x="176" y="231" type="line"/>
      <point x="176" y="294" type="line"/>
      <point x="454" y="385" type="line"/>
      <point x="454" y="231" type="line"/>
    </contour>
    <contour>
      <point x="176" y="359" type="line"/>
      <point x="176" y="503" type="line"/>
      <point x="454" y="503" type="line"/>
      <point x="454" y="449" type="line"/>
    </contour>
  </outline>
</glyph>
<glyph name="u1E875" format="2">
  <advance width="529"/>
  <unicode hex="1E875"/>
  <outline>
    <contour>
      <point x="389" y="558" type="curve"/>
      <point x="228" y="0" type="line"/>
      <point x="303" y="0" type="line"/>
      <point x="509" y="714" type="line"/>
      <point x="435" y="714" type="line"/>
      <point x="406" y="630"/>
      <point x="321" y="585"/>
      <point x="231" y="585" type="curve" smooth="yes"/>
      <point x="135" y="585"/>
      <point x="96" y="638"/>
      <point x="96" y="714" type="curve"/>
      <point x="20" y="714" type="line"/>
      <point x="20" y="629"/>
      <point x="67" y="515"/>
      <point x="228" y="515" type="curve" smooth="yes"/>
      <point x="291" y="515"/>
      <point x="347" y="532"/>
    </contour>
    <contour>
      <point x="248" y="311" type="curve" smooth="yes"/>
      <point x="248" y="344"/>
      <point x="226" y="365"/>
      <point x="194" y="365" type="curve" smooth="yes"/>
      <point x="163" y="365"/>
      <point x="141" y="344"/>
      <point x="141" y="311" type="curve" smooth="yes"/>
      <point x="141" y="277"/>
      <point x="160" y="258"/>
      <point x="194" y="258" type="curve" smooth="yes"/>
      <point x="226" y="258"/>
      <point x="248" y="277"/>
    </contour>
  </outline>
</glyph>
<glyph name="u1E876" format="2">
  <advance width="730"/>
  <unicode hex="1E876"/>
  <outline>
    <contour>
      <point x="691" y="382" type="line"/>
      <point x="549" y="522" type="line"/>
      <point x="664" y="637" type="line"/>
      <point x="620" y="681" type="line"/>
      <point x="505" y="566" type="line"/>
      <point x="370" y="701" type="line"/>
      <point x="38" y="369" type="line"/>
      <point x="359" y="50" type="line"/>
    </contour>
    <contour>
      <point x="310" y="371" type="line"/>
      <point x="354" y="327" type="line"/>
      <point x="501" y="474" type="line"/>
      <point x="598" y="377" type="line"/>
      <point x="361" y="140" type="line"/>
      <point x="130" y="373" type="line"/>
      <point x="366" y="609" type="line"/>
      <point x="457" y="518" type="line"/>
    </contour>
  </outline>
</glyph>
<glyph name="u1E877" format="2">
  <advance width="685"/>
  <unicode hex="1E877"/>
  <outline>
    <contour>
      <point x="50" y="515" type="curve"/>
      <point x="119" y="546" type="line"/>
      <point x="109" y="565"/>
      <point x="106" y="582"/>
      <point x="106" y="597" type="curve" smooth="yes"/>
      <point x="106" y="637"/>
      <point x="129" y="654"/>
      <point x="165" y="654" type="curve" smooth="yes"/>
      <point x="239" y="654"/>
      <point x="250" y="591"/>
      <point x="362" y="591" type="curve" smooth="yes"/>
      <point x="395" y="591"/>
      <point x="420" y="594"/>
      <point x="446" y="608" type="curve"/>
      <point x="356" y="386" type="line"/>
      <point x="306" y="386" type="line"/>
      <point x="292" y="426"/>
      <point x="252" y="455"/>
      <point x="207" y="455" type="curve" smooth="yes"/>
      <point x="150" y="455"/>
      <point x="102" y="410"/>
      <point x="102" y="353" type="curve" smooth="yes"/>
      <point x="102" y="295"/>
      <point x="150" y="250"/>
      <point x="207" y="250" type="curve" smooth="yes"/>
      <point x="253" y="250"/>
      <point x="293" y="280"/>
      <point x="307" y="322" type="curve"/>
      <point x="331" y="322" type="line"/>
      <point x="202" y="0" type="line"/>
      <point x="281" y="0" type="line"/>
      <point x="410" y="322" type="line"/>
      <point x="459" y="322" type="line"/>
      <point x="473" y="279"/>
      <point x="513" y="250"/>
      <point x="560" y="250" type="curve" smooth="yes"/>
      <point x="617" y="250"/>
      <point x="665" y="295"/>
      <point x="665" y="353" type="curve" smooth="yes"/>
      <point x="665" y="410"/>
      <point x="617" y="455"/>
      <point x="560" y="455" type="curve" smooth="yes"/>
      <point x="514" y="455"/>
      <point x="474" y="426"/>
      <point x="460" y="386" type="curve"/>
      <point x="435" y="386" type="line"/>
      <point x="567" y="714" type="line"/>
      <point x="499" y="714" type="line"/>
      <point x="475" y="669"/>
      <point x="418" y="657"/>
      <point x="374" y="657" type="curve" smooth="yes"/>
      <point x="266" y="657"/>
      <point x="266" y="720"/>
      <point x="165" y="720" type="curve" smooth="yes"/>
      <point x="98" y="720"/>
      <point x="30" y="676"/>
      <point x="30" y="594" type="curve" smooth="yes"/>
      <point x="30" y="570"/>
      <point x="35" y="543"/>
    </contour>
    <contour>
      <point x="516" y="351" type="curve" smooth="yes"/>
      <point x="516" y="376"/>
      <point x="536" y="396"/>
      <point x="559" y="396" type="curve" smooth="yes"/>
      <point x="584" y="396"/>
      <point x="604" y="376"/>
      <point x="604" y="351" type="curve" smooth="yes"/>
      <point x="604" y="326"/>
      <point x="584" y="308"/>
      <point x="559" y="308" type="curve" smooth="yes"/>
      <point x="536" y="308"/>
      <point x="516" y="327"/>
    </contour>
    <contour>
      <point x="163" y="351" type="curve" smooth="yes"/>
      <point x="163" y="376"/>
      <point x="183" y="396"/>
      <point x="206" y="396" type="curve" smooth="yes"/>
      <point x="231" y="396"/>
      <point x="251" y="376"/>
      <point x="251" y="351" type="curve" smooth="yes"/>
      <point x="251" y="326"/>
      <point x="231" y="308"/>
      <point x="206" y="308" type="curve" smooth="yes"/>
      <point x="183" y="308"/>
      <point x="163" y="327"/>
    </contour>
  </outline>
</glyph>
<glyph name="u1E879" format="2">
  <advance width="528"/>
  <unicode hex="1E879"/>
  <outline>
    <contour>
      <point x="508" y="560" type="line"/>
      <point x="508" y="624" type="line"/>
      <point x="369" y="624" type="line"/>
      <point x="369" y="714" type="line"/>
      <point x="295" y="714" type="line"/>
      <point x="295" y="624" type="line"/>
      <point x="124" y="624" type="line"/>
      <point x="124" y="560" type="line"/>
      <point x="295" y="560" type="line"/>
      <point x="295" y="499" type="line"/>
      <point x="286" y="501"/>
      <point x="274" y="502"/>
      <point x="264" y="502" type="curve" smooth="yes"/>
      <point x="154" y="502"/>
      <point x="60" y="424"/>
      <point x="60" y="312" type="curve" smooth="yes"/>
      <point x="60" y="201"/>
      <point x="154" y="124"/>
      <point x="264" y="124" type="curve" smooth="yes"/>
      <point x="274" y="124"/>
      <point x="285" y="124"/>
      <point x="295" y="126" type="curve"/>
      <point x="295" y="0" type="line"/>
      <point x="369" y="0" type="line"/>
      <point x="369" y="560" type="line"/>
    </contour>
    <contour>
      <point x="263" y="194" type="curve" smooth="yes"/>
      <point x="195" y="194"/>
      <point x="136" y="241"/>
      <point x="136" y="312" type="curve" smooth="yes"/>
      <point x="136" y="388"/>
      <point x="195" y="432"/>
      <point x="263" y="432" type="curve" smooth="yes"/>
      <point x="274" y="432"/>
      <point x="285" y="431"/>
      <point x="295" y="428" type="curve"/>
      <point x="295" y="198" type="line"/>
      <point x="284" y="195"/>
      <point x="273" y="194"/>
    </contour>
  </outline>
</glyph>
<glyph name="u1E87A" format="2">
  <advance width="688"/>
  <unicode hex="1E87A"/>
  <outline>
    <contour>
      <point x="584" y="280" type="curve"/>
      <point x="646" y="280" type="line"/>
      <point x="635" y="326"/>
      <point x="594" y="360"/>
      <point x="544" y="360" type="curve" smooth="yes"/>
      <point x="487" y="360"/>
      <point x="439" y="322"/>
      <point x="439" y="264" type="curve" smooth="yes"/>
      <point x="439" y="238"/>
      <point x="452" y="219"/>
      <point x="471" y="206" type="curve"/>
      <point x="447" y="189"/>
      <point x="429" y="164"/>
      <point x="429" y="136" type="curve" smooth="yes"/>
      <point x="429" y="78"/>
      <point x="467" y="36"/>
      <point x="544" y="36" type="curve" smooth="yes"/>
      <point x="617" y="36"/>
      <point x="651" y="78"/>
      <point x="658" y="129" type="curve"/>
      <point x="596" y="129" type="line"/>
      <point x="593" y="105"/>
      <point x="574" y="94"/>
      <point x="543" y="94" type="curve" smooth="yes"/>
      <point x="510" y="94"/>
      <point x="490" y="115"/>
      <point x="490" y="139" type="curve" smooth="yes"/>
      <point x="490" y="164"/>
      <point x="510" y="183"/>
      <point x="533" y="183" type="curve" smooth="yes"/>
      <point x="615" y="183" type="line"/>
      <point x="615" y="235" type="line"/>
      <point x="543" y="235" type="line" smooth="yes"/>
      <point x="514" y="235"/>
      <point x="500" y="248"/>
      <point x="500" y="269" type="curve" smooth="yes"/>
      <point x="500" y="285"/>
      <point x="516" y="302"/>
      <point x="543" y="302" type="curve" smooth="yes"/>
      <point x="561" y="302"/>
      <point x="578" y="297"/>
    </contour>
    <contour>
      <point x="50" y="515" type="curve"/>
      <point x="119" y="546" type="line"/>
      <point x="109" y="565"/>
      <point x="106" y="582"/>
      <point x="106" y="597" type="curve" smooth="yes"/>
      <point x="106" y="637"/>
      <point x="129" y="654"/>
      <point x="165" y="654" type="curve" smooth="yes"/>
      <point x="239" y="654"/>
      <point x="250" y="591"/>
      <point x="362" y="591" type="curve" smooth="yes"/>
      <point x="395" y="591"/>
      <point x="422" y="594"/>
      <point x="448" y="608" type="curve"/>
      <point x="204" y="0" type="line"/>
      <point x="281" y="0" type="line"/>
      <point x="567" y="714" type="line"/>
      <point x="501" y="714" type="line"/>
      <point x="477" y="669"/>
      <point x="418" y="657"/>
      <point x="374" y="657" type="curve" smooth="yes"/>
      <point x="266" y="657"/>
      <point x="266" y="720"/>
      <point x="165" y="720" type="curve" smooth="yes"/>
      <point x="98" y="720"/>
      <point x="30" y="676"/>
      <point x="30" y="594" type="curve" smooth="yes"/>
      <point x="30" y="570"/>
      <point x="35" y="543"/>
    </contour>
  </outline>
</glyph>
<glyph name="u1E87D" format="2">
  <advance width="574"/>
  <unicode hex="1E87D"/>
  <outline>
    <contour>
      <point x="50" y="64" type="curve"/>
      <point x="50" y="-4" type="line"/>
      <point x="313" y="37"/>
      <point x="524" y="281"/>
      <point x="524" y="532" type="curve" smooth="yes"/>
      <point x="524" y="625"/>
      <point x="467" y="727"/>
      <point x="309" y="727" type="curve" smooth="yes"/>
      <point x="152" y="727"/>
      <point x="93" y="623"/>
      <point x="93" y="532" type="curve" smooth="yes"/>
      <point x="93" y="422"/>
      <point x="162" y="333"/>
      <point x="309" y="333" type="curve" smooth="yes"/>
      <point x="349" y="333"/>
      <point x="383" y="341"/>
      <point x="412" y="354" type="curve"/>
      <point x="346" y="215"/>
      <point x="207" y="95"/>
    </contour>
    <contour>
      <point x="166" y="531" type="curve" smooth="yes"/>
      <point x="166" y="593"/>
      <point x="203" y="658"/>
      <point x="308" y="658" type="curve" smooth="yes"/>
      <point x="417" y="658"/>
      <point x="449" y="593"/>
      <point x="449" y="531" type="curve" smooth="yes"/>
      <point x="449" y="470"/>
      <point x="416" y="400"/>
      <point x="308" y="400" type="curve" smooth="yes"/>
      <point x="202" y="400"/>
      <point x="166" y="470"/>
    </contour>
    <contour>
      <point x="363" y="532" type="curve" smooth="yes"/>
      <point x="363" y="565"/>
      <point x="341" y="586"/>
      <point x="309" y="586" type="curve" smooth="yes"/>
      <point x="278" y="586"/>
      <point x="256" y="565"/>
      <point x="256" y="532" type="curve" smooth="yes"/>
      <point x="256" y="498"/>
      <point x="275" y="479"/>
      <point x="309" y="479" type="curve" smooth="yes"/>
      <point x="341" y="479"/>
      <point x="363" y="498"/>
    </contour>
  </outline>
</glyph>
<glyph name="u1E87E" format="2">
  <advance width="597"/>
  <unicode hex="1E87E"/>
  <outline>
    <contour>
      <point x="50" y="515" type="curve"/>
      <point x="119" y="546" type="line"/>
      <point x="109" y="565"/>
      <point x="106" y="582"/>
      <point x="106" y="597" type="curve" smooth="yes"/>
      <point x="106" y="637"/>
      <point x="129" y="654"/>
      <point x="165" y="654" type="curve" smooth="yes"/>
      <point x="239" y="654"/>
      <point x="250" y="591"/>
      <point x="362" y="591" type="curve" smooth="yes"/>
      <point x="395" y="591"/>
      <point x="422" y="594"/>
      <point x="448" y="608" type="curve"/>
      <point x="204" y="0" type="line"/>
      <point x="281" y="0" type="line"/>
      <point x="393" y="281" type="line"/>
      <point x="413" y="262"/>
      <point x="439" y="250"/>
      <point x="469" y="250" type="curve" smooth="yes"/>
      <point x="526" y="250"/>
      <point x="574" y="295"/>
      <point x="574" y="353" type="curve" smooth="yes"/>
      <point x="574" y="410"/>
      <point x="526" y="455"/>
      <point x="469" y="455" type="curve" smooth="yes"/>
      <point x="463" y="455" type="line"/>
      <point x="567" y="714" type="line"/>
      <point x="501" y="714" type="line"/>
      <point x="477" y="669"/>
      <point x="418" y="657"/>
      <point x="374" y="657" type="curve" smooth="yes"/>
      <point x="266" y="657"/>
      <point x="266" y="720"/>
      <point x="165" y="720" type="curve" smooth="yes"/>
      <point x="98" y="720"/>
      <point x="30" y="676"/>
      <point x="30" y="594" type="curve" smooth="yes"/>
      <point x="30" y="570"/>
      <point x="35" y="543"/>
    </contour>
    <contour>
      <point x="268" y="351" type="curve" smooth="yes"/>
      <point x="268" y="384"/>
      <point x="246" y="405"/>
      <point x="214" y="405" type="curve" smooth="yes"/>
      <point x="183" y="405"/>
      <point x="161" y="384"/>
      <point x="161" y="351" type="curve" smooth="yes"/>
      <point x="161" y="317"/>
      <point x="180" y="298"/>
      <point x="214" y="298" type="curve" smooth="yes"/>
      <point x="246" y="298"/>
      <point x="268" y="317"/>
    </contour>
    <contour>
      <point x="425" y="351" type="curve" smooth="yes"/>
      <point x="425" y="376"/>
      <point x="445" y="396"/>
      <point x="468" y="396" type="curve" smooth="yes"/>
      <point x="493" y="396"/>
      <point x="513" y="376"/>
      <point x="513" y="351" type="curve" smooth="yes"/>
      <point x="513" y="326"/>
      <point x="493" y="308"/>
      <point x="468" y="308" type="curve" smooth="yes"/>
      <point x="445" y="308"/>
      <point x="425" y="327"/>
    </contour>
  </outline>
</glyph>
<glyph name="u1E87F" format="2">
  <advance width="1203"/>
  <unicode hex="1E87F"/>
  <outline>
    <contour>
      <point x="651" y="428" type="line"/>
      <point x="651" y="486" type="line"/>
      <point x="541" y="486" type="line"/>
      <point x="541" y="583" type="line"/>
      <point x="471" y="583" type="line"/>
      <point x="471" y="486" type="line"/>
      <point x="361" y="486" type="line"/>
      <point x="361" y="428" type="line"/>
      <point x="471" y="428" type="line"/>
      <point x="471" y="344" type="line"/>
      <point x="223" y="344" type="line" smooth="yes"/>
      <point x="139" y="344"/>
      <point x="116" y="371"/>
      <point x="116" y="415" type="curve" smooth="yes"/>
      <point x="116" y="465"/>
      <point x="159" y="470"/>
      <point x="197" y="470" type="curve" smooth="yes"/>
      <point x="223" y="470" type="line"/>
      <point x="223" y="538" type="line"/>
      <point x="197" y="538" type="line" smooth="yes"/>
      <point x="89" y="538"/>
      <point x="40" y="487"/>
      <point x="40" y="415" type="curve" smooth="yes"/>
      <point x="40" y="316"/>
      <point x="112" y="276"/>
      <point x="225" y="276" type="curve" smooth="yes"/>
      <point x="749" y="276" type="line"/>
      <point x="768" y="184"/>
      <point x="852" y="117"/>
      <point x="949" y="117" type="curve" smooth="yes"/>
      <point x="1060" y="117"/>
      <point x="1153" y="204"/>
      <point x="1153" y="315" type="curve" smooth="yes"/>
      <point x="1153" y="427"/>
      <point x="1060" y="515"/>
      <point x="949" y="515" type="curve" smooth="yes"/>
      <point x="848" y="515"/>
      <point x="761" y="442"/>
      <point x="747" y="344" type="curve"/>
      <point x="541" y="344" type="line"/>
      <point x="541" y="428" type="line"/>
    </contour>
    <contour>
      <point x="1077" y="315" type="curve" smooth="yes"/>
      <point x="1077" y="244"/>
      <point x="1018" y="187"/>
      <point x="948" y="187" type="curve" smooth="yes"/>
      <point x="880" y="187"/>
      <point x="821" y="244"/>
      <point x="821" y="315" type="curve" smooth="yes"/>
      <point x="821" y="391"/>
      <point x="880" y="445"/>
      <point x="948" y="445" type="curve" smooth="yes"/>
      <point x="1018" y="445"/>
      <point x="1077" y="390"/>
    </contour>
  </outline>
</glyph>
<glyph name="u1E880" format="2">
  <advance width="1203"/>
  <unicode hex="1E880"/>
  <outline>
    <contour>
      <point x="980" y="538" type="line"/>
      <point x="980" y="470" type="line"/>
      <point x="1006" y="470" type="line" smooth="yes"/>
      <point x="1044" y="470"/>
      <point x="1087" y="465"/>
      <point x="1087" y="415" type="curve" smooth="yes"/>
      <point x="1087" y="371"/>
      <point x="1064" y="344"/>
      <point x="980" y="344" type="curve" smooth="yes"/>
      <point x="732" y="344" type="line"/>
      <point x="732" y="428" type="line"/>
      <point x="842" y="428" type="line"/>
      <point x="842" y="486" type="line"/>
      <point x="732" y="486" type="line"/>
      <point x="732" y="583" type="line"/>
      <point x="662" y="583" type="line"/>
      <point x="662" y="486" type="line"/>
      <point x="552" y="486" type="line"/>
      <point x="552" y="428" type="line"/>
      <point x="662" y="428" type="line"/>
      <point x="662" y="344" type="line"/>
      <point x="456" y="344" type="line"/>
      <point x="441" y="442"/>
      <point x="354" y="515"/>
      <point x="254" y="515" type="curve" smooth="yes"/>
      <point x="143" y="515"/>
      <point x="50" y="427"/>
      <point x="50" y="315" type="curve" smooth="yes"/>
      <point x="50" y="204"/>
      <point x="143" y="117"/>
      <point x="254" y="117" type="curve" smooth="yes"/>
      <point x="350" y="117"/>
      <point x="435" y="184"/>
      <point x="454" y="276" type="curve"/>
      <point x="662" y="276" type="line"/>
      <point x="662" y="95" type="line"/>
      <point x="732" y="95" type="line"/>
      <point x="732" y="276" type="line"/>
      <point x="978" y="276" type="line" smooth="yes"/>
      <point x="1091" y="276"/>
      <point x="1163" y="316"/>
      <point x="1163" y="415" type="curve" smooth="yes"/>
      <point x="1163" y="487"/>
      <point x="1114" y="538"/>
      <point x="1006" y="538" type="curve" smooth="yes"/>
    </contour>
    <contour>
      <point x="126" y="315" type="curve" smooth="yes"/>
      <point x="126" y="390"/>
      <point x="185" y="445"/>
      <point x="255" y="445" type="curve" smooth="yes"/>
      <point x="323" y="445"/>
      <point x="382" y="391"/>
      <point x="382" y="315" type="curve" smooth="yes"/>
      <point x="382" y="244"/>
      <point x="323" y="187"/>
      <point x="255" y="187" type="curve" smooth="yes"/>
      <point x="185" y="187"/>
      <point x="126" y="244"/>
    </contour>
  </outline>
</glyph>
<glyph name="u1E881" format="2">
  <advance width="730"/>
  <unicode hex="1E881"/>
  <outline>
    <contour>
      <point x="101" y="149" type="curve"/>
      <point x="62" y="98" type="line"/>
      <point x="82" y="72"/>
      <point x="184" y="-12"/>
      <point x="320" y="-12" type="curve" smooth="yes"/>
      <point x="555" y="-12"/>
      <point x="670" y="159"/>
      <point x="670" y="360" type="curve" smooth="yes"/>
      <point x="670" y="562"/>
      <point x="549" y="727"/>
      <point x="329" y="727" type="curve" smooth="yes"/>
      <point x="225" y="727"/>
      <point x="127" y="687"/>
      <point x="62" y="617" type="curve"/>
      <point x="101" y="566" type="line"/>
      <point x="121" y="588"/>
      <point x="144" y="606"/>
      <point x="170" y="620" type="curve"/>
      <point x="170" y="94" type="line"/>
      <point x="142" y="109"/>
      <point x="118" y="128"/>
    </contour>
    <contour>
      <point x="319" y="57" type="curve" smooth="yes"/>
      <point x="293" y="57"/>
      <point x="268" y="60"/>
      <point x="244" y="66" type="curve"/>
      <point x="244" y="336" type="line"/>
      <point x="593" y="336" type="line"/>
      <point x="586" y="169"/>
      <point x="506" y="57"/>
    </contour>
    <contour>
      <point x="322" y="658" type="curve" smooth="yes"/>
      <point x="481" y="658"/>
      <point x="579" y="560"/>
      <point x="592" y="400" type="curve"/>
      <point x="244" y="400" type="line"/>
      <point x="244" y="648" type="line"/>
      <point x="269" y="654"/>
      <point x="295" y="658"/>
    </contour>
    <contour>
      <point x="436" y="520" type="curve" smooth="yes"/>
      <point x="436" y="553"/>
      <point x="414" y="574"/>
      <point x="382" y="574" type="curve" smooth="yes"/>
      <point x="351" y="574"/>
      <point x="329" y="553"/>
      <point x="329" y="520" type="curve" smooth="yes"/>
      <point x="329" y="486"/>
      <point x="348" y="467"/>
      <point x="382" y="467" type="curve" smooth="yes"/>
      <point x="414" y="467"/>
      <point x="436" y="486"/>
    </contour>
  </outline>
</glyph>
<glyph name="u1E882" format="2">
  <advance width="629"/>
  <unicode hex="1E882"/>
  <outline>
    <contour>
      <point x="174" y="714" type="line"/>
      <point x="100" y="714" type="line"/>
      <point x="100" y="0" type="line"/>
      <point x="174" y="0" type="line"/>
      <point x="174" y="317" type="line"/>
      <point x="205" y="379"/>
      <point x="266" y="426"/>
      <point x="351" y="426" type="curve" smooth="yes"/>
      <point x="445" y="426"/>
      <point x="511" y="380"/>
      <point x="511" y="265" type="curve" smooth="yes"/>
      <point x="511" y="240" type="line"/>
      <point x="490" y="252"/>
      <point x="465" y="259"/>
      <point x="440" y="259" type="curve" smooth="yes"/>
      <point x="365" y="259"/>
      <point x="301" y="199"/>
      <point x="301" y="123" type="curve" smooth="yes"/>
      <point x="301" y="48"/>
      <point x="365" y="-12"/>
      <point x="440" y="-12" type="curve" smooth="yes"/>
      <point x="515" y="-12"/>
      <point x="579" y="48"/>
      <point x="579" y="123" type="curve" smooth="yes"/>
      <point x="579" y="263" type="line" smooth="yes"/>
      <point x="579" y="413"/>
      <point x="491" y="496"/>
      <point x="347" y="496" type="curve" smooth="yes"/>
      <point x="291" y="496"/>
      <point x="218" y="467"/>
      <point x="174" y="422" type="curve"/>
    </contour>
    <contour>
      <point x="370" y="123" type="curve" smooth="yes"/>
      <point x="370" y="163"/>
      <point x="402" y="194"/>
      <point x="440" y="194" type="curve" smooth="yes"/>
      <point x="478" y="194"/>
      <point x="510" y="164"/>
      <point x="510" y="123" type="curve" smooth="yes"/>
      <point x="510" y="84"/>
      <point x="478" y="53"/>
      <point x="440" y="53" type="curve" smooth="yes"/>
      <point x="402" y="53"/>
      <point x="370" y="84"/>
    </contour>
  </outline>
</glyph>
<glyph name="u1E883" format="2">
  <advance width="685"/>
  <unicode hex="1E883"/>
  <outline>
    <contour>
      <point x="200" y="386" type="line"/>
      <point x="200" y="322" type="line"/>
      <point x="331" y="322" type="line"/>
      <point x="202" y="0" type="line"/>
      <point x="281" y="0" type="line"/>
      <point x="410" y="322" type="line"/>
      <point x="459" y="322" type="line"/>
      <point x="473" y="279"/>
      <point x="513" y="250"/>
      <point x="560" y="250" type="curve" smooth="yes"/>
      <point x="617" y="250"/>
      <point x="665" y="295"/>
      <point x="665" y="353" type="curve" smooth="yes"/>
      <point x="665" y="410"/>
      <point x="617" y="455"/>
      <point x="560" y="455" type="curve" smooth="yes"/>
      <point x="514" y="455"/>
      <point x="474" y="426"/>
      <point x="460" y="386" type="curve"/>
      <point x="435" y="386" type="line"/>
      <point x="567" y="714" type="line"/>
      <point x="499" y="714" type="line"/>
      <point x="475" y="669"/>
      <point x="418" y="657"/>
      <point x="374" y="657" type="curve" smooth="yes"/>
      <point x="266" y="657"/>
      <point x="266" y="720"/>
      <point x="165" y="720" type="curve" smooth="yes"/>
      <point x="98" y="720"/>
      <point x="30" y="676"/>
      <point x="30" y="594" type="curve" smooth="yes"/>
      <point x="30" y="570"/>
      <point x="35" y="543"/>
      <point x="50" y="515" type="curve"/>
      <point x="119" y="546" type="line"/>
      <point x="109" y="565"/>
      <point x="106" y="582"/>
      <point x="106" y="597" type="curve" smooth="yes"/>
      <point x="106" y="637"/>
      <point x="129" y="654"/>
      <point x="165" y="654" type="curve" smooth="yes"/>
      <point x="239" y="654"/>
      <point x="250" y="591"/>
      <point x="362" y="591" type="curve" smooth="yes"/>
      <point x="395" y="591"/>
      <point x="420" y="594"/>
      <point x="446" y="608" type="curve"/>
      <point x="356" y="386" type="line"/>
    </contour>
    <contour>
      <point x="516" y="351" type="curve" smooth="yes"/>
      <point x="516" y="376"/>
      <point x="536" y="396"/>
      <point x="559" y="396" type="curve" smooth="yes"/>
      <point x="584" y="396"/>
      <point x="604" y="376"/>
      <point x="604" y="351" type="curve" smooth="yes"/>
      <point x="604" y="326"/>
      <point x="584" y="308"/>
      <point x="559" y="308" type="curve" smooth="yes"/>
      <point x="536" y="308"/>
      <point x="516" y="327"/>
    </contour>
  </outline>
</glyph>
<glyph name="u1E884" format="2">
  <advance width="811"/>
  <unicode hex="1E884"/>
  <outline>
    <contour>
      <point x="375" y="594" type="line"/>
      <point x="331" y="638" type="line"/>
      <point x="233" y="541" type="line"/>
      <point x="136" y="638" type="line"/>
      <point x="92" y="594" type="line"/>
      <point x="189" y="497" type="line"/>
      <point x="92" y="400" type="line"/>
      <point x="92" y="332" type="line"/>
      <point x="691" y="332" type="line"/>
      <point x="691" y="180" type="line"/>
      <point x="50" y="180" type="line"/>
      <point x="50" y="112" type="line"/>
      <point x="761" y="112" type="line"/>
      <point x="761" y="400" type="line"/>
      <point x="375" y="400" type="line"/>
      <point x="277" y="497" type="line"/>
    </contour>
    <contour>
      <point x="180" y="400" type="line"/>
      <point x="233" y="453" type="line"/>
      <point x="287" y="400" type="line"/>
    </contour>
  </outline>
</glyph>
<glyph name="u1E885" format="2">
  <advance width="943"/>
  <unicode hex="1E885"/>
  <outline>
    <contour>
      <point x="50" y="544" type="curve" smooth="yes"/>
      <point x="50" y="469"/>
      <point x="114" y="409"/>
      <point x="189" y="409" type="curve" smooth="yes"/>
      <point x="256" y="409"/>
      <point x="313" y="456"/>
      <point x="325" y="520" type="curve"/>
      <point x="654" y="520" type="line" smooth="yes"/>
      <point x="742" y="520"/>
      <point x="817" y="461"/>
      <point x="817" y="364" type="curve" smooth="yes"/>
      <point x="817" y="275"/>
      <point x="766" y="204"/>
      <point x="654" y="204" type="curve" smooth="yes"/>
      <point x="322" y="204" type="line"/>
      <point x="305" y="261"/>
      <point x="251" y="302"/>
      <point x="189" y="302" type="curve" smooth="yes"/>
      <point x="114" y="302"/>
      <point x="50" y="242"/>
      <point x="50" y="166" type="curve" smooth="yes"/>
      <point x="50" y="91"/>
      <point x="114" y="31"/>
      <point x="189" y="31" type="curve" smooth="yes"/>
      <point x="253" y="31"/>
      <point x="310" y="75"/>
      <point x="324" y="136" type="curve"/>
      <point x="664" y="136" type="line" smooth="yes"/>
      <point x="826" y="136"/>
      <point x="893" y="245"/>
      <point x="893" y="360" type="curve" smooth="yes"/>
      <point x="893" y="487"/>
      <point x="795" y="588"/>
      <point x="664" y="588" type="curve" smooth="yes"/>
      <point x="320" y="588" type="line"/>
      <point x="301" y="642"/>
      <point x="248" y="680"/>
      <point x="189" y="680" type="curve" smooth="yes"/>
      <point x="114" y="680"/>
      <point x="50" y="620"/>
    </contour>
    <contour>
      <point x="119" y="544" type="curve" smooth="yes"/>
      <point x="119" y="584"/>
      <point x="151" y="615"/>
      <point x="189" y="615" type="curve" smooth="yes"/>
      <point x="227" y="615"/>
      <point x="259" y="585"/>
      <point x="259" y="544" type="curve" smooth="yes"/>
      <point x="259" y="505"/>
      <point x="227" y="474"/>
      <point x="189" y="474" type="curve" smooth="yes"/>
      <point x="151" y="474"/>
      <point x="119" y="505"/>
    </contour>
    <contour>
      <point x="119" y="166" type="curve" smooth="yes"/>
      <point x="119" y="206"/>
      <point x="151" y="237"/>
      <point x="189" y="237" type="curve" smooth="yes"/>
      <point x="227" y="237"/>
      <point x="259" y="207"/>
      <point x="259" y="166" type="curve" smooth="yes"/>
      <point x="259" y="127"/>
      <point x="227" y="96"/>
      <point x="189" y="96" type="curve" smooth="yes"/>
      <point x="151" y="96"/>
      <point x="119" y="127"/>
    </contour>
    <contour>
      <point x="548" y="696" type="curve" smooth="yes"/>
      <point x="548" y="729"/>
      <point x="526" y="750"/>
      <point x="494" y="750" type="curve" smooth="yes"/>
      <point x="463" y="750"/>
      <point x="441" y="729"/>
      <point x="441" y="696" type="curve" smooth="yes"/>
      <point x="441" y="662"/>
      <point x="460" y="643"/>
      <point x="494" y="643" type="curve" smooth="yes"/>
      <point x="526" y="643"/>
      <point x="548" y="662"/>
    </contour>
  </outline>
</glyph>
<glyph name="u1E886" format="2">
  <advance width="671"/>
  <unicode hex="1E886"/>
  <outline>
    <contour>
      <point x="621" y="190" type="curve"/>
      <point x="552" y="159" type="line"/>
      <point x="562" y="140"/>
      <point x="565" y="123"/>
      <point x="565" y="108" type="curve" smooth="yes"/>
      <point x="565" y="68"/>
      <point x="542" y="51"/>
      <point x="506" y="51" type="curve" smooth="yes"/>
      <point x="441" y="51"/>
      <point x="409" y="114"/>
      <point x="319" y="114" type="curve" smooth="yes"/>
      <point x="293" y="114"/>
      <point x="278" y="110"/>
      <point x="265" y="105" type="curve"/>
      <point x="542" y="714" type="line"/>
      <point x="474" y="714" type="line"/>
      <point x="450" y="669"/>
      <point x="408" y="657"/>
      <point x="364" y="657" type="curve" smooth="yes"/>
      <point x="298" y="657"/>
      <point x="244" y="720"/>
      <point x="165" y="720" type="curve" smooth="yes"/>
      <point x="98" y="720"/>
      <point x="30" y="676"/>
      <point x="30" y="594" type="curve" smooth="yes"/>
      <point x="30" y="570"/>
      <point x="35" y="543"/>
      <point x="50" y="515" type="curve"/>
      <point x="119" y="546" type="line"/>
      <point x="109" y="565"/>
      <point x="106" y="582"/>
      <point x="106" y="597" type="curve" smooth="yes"/>
      <point x="106" y="637"/>
      <point x="129" y="654"/>
      <point x="165" y="654" type="curve" smooth="yes"/>
      <point x="230" y="654"/>
      <point x="262" y="591"/>
      <point x="352" y="591" type="curve" smooth="yes"/>
      <point x="385" y="591"/>
      <point x="405" y="597"/>
      <point x="421" y="604" type="curve"/>
      <point x="142" y="0" type="line"/>
      <point x="218" y="0" type="line"/>
      <point x="224" y="11" type="line" smooth="yes"/>
      <point x="241" y="43"/>
      <point x="277" y="48"/>
      <point x="307" y="48" type="curve" smooth="yes"/>
      <point x="373" y="48"/>
      <point x="427" y="-15"/>
      <point x="506" y="-15" type="curve" smooth="yes"/>
      <point x="573" y="-15"/>
      <point x="641" y="29"/>
      <point x="641" y="111" type="curve" smooth="yes"/>
      <point x="641" y="135"/>
      <point x="636" y="162"/>
    </contour>
  </outline>
</glyph>
<glyph name="u1E887" format="2">
  <advance width="1126"/>
  <unicode hex="1E887"/>
  <outline>
    <contour>
      <point x="1076" y="207" type="line"/>
      <point x="1076" y="495" type="line"/>
      <point x="1008" y="495" type="line"/>
      <point x="1008" y="385" type="line"/>
      <point x="863" y="385" type="line"/>
      <point x="850" y="558"/>
      <point x="722" y="635"/>
      <point x="554" y="635" type="curve" smooth="yes"/>
      <point x="174" y="635" type="line" smooth="yes"/>
      <point x="107" y="635"/>
      <point x="50" y="582"/>
      <point x="50" y="515" type="curve" smooth="yes"/>
      <point x="50" y="447"/>
      <point x="107" y="394"/>
      <point x="174" y="394" type="curve" smooth="yes"/>
      <point x="240" y="394"/>
      <point x="297" y="447"/>
      <point x="297" y="515" type="curve" smooth="yes"/>
      <point x="297" y="533"/>
      <point x="292" y="551"/>
      <point x="284" y="567" type="curve"/>
      <point x="555" y="567" type="line" smooth="yes"/>
      <point x="729" y="567"/>
      <point x="779" y="484"/>
      <point x="786" y="385" type="curve"/>
      <point x="529" y="385" type="line"/>
      <point x="529" y="495" type="line"/>
      <point x="461" y="495" type="line"/>
      <point x="461" y="207" type="line"/>
      <point x="529" y="207" type="line"/>
      <point x="529" y="327" type="line"/>
      <point x="787" y="327" type="line"/>
      <point x="779" y="223"/>
      <point x="727" y="144"/>
      <point x="555" y="144" type="curve" smooth="yes"/>
      <point x="284" y="144" type="line"/>
      <point x="292" y="160"/>
      <point x="297" y="178"/>
      <point x="297" y="196" type="curve" smooth="yes"/>
      <point x="297" y="264"/>
      <point x="240" y="317"/>
      <point x="174" y="317" type="curve" smooth="yes"/>
      <point x="107" y="317"/>
      <point x="50" y="264"/>
      <point x="50" y="196" type="curve" smooth="yes"/>
      <point x="50" y="129"/>
      <point x="107" y="76"/>
      <point x="174" y="76" type="curve" smooth="yes"/>
      <point x="554" y="76" type="line" smooth="yes"/>
      <point x="734" y="76"/>
      <point x="851" y="168"/>
      <point x="863" y="327" type="curve"/>
      <point x="1008" y="327" type="line"/>
      <point x="1008" y="207" type="line"/>
    </contour>
    <contour>
      <point x="116" y="196" type="curve" smooth="yes"/>
      <point x="116" y="229"/>
      <point x="143" y="253"/>
      <point x="174" y="253" type="curve" smooth="yes"/>
      <point x="205" y="253"/>
      <point x="231" y="230"/>
      <point x="231" y="196" type="curve" smooth="yes"/>
      <point x="231" y="163"/>
      <point x="205" y="138"/>
      <point x="174" y="138" type="curve" smooth="yes"/>
      <point x="143" y="138"/>
      <point x="116" y="163"/>
    </contour>
    <contour>
      <point x="116" y="515" type="curve" smooth="yes"/>
      <point x="116" y="548"/>
      <point x="143" y="573"/>
      <point x="174" y="573" type="curve" smooth="yes"/>
      <point x="205" y="573"/>
      <point x="231" y="548"/>
      <point x="231" y="515" type="curve" smooth="yes"/>
      <point x="231" y="481"/>
      <point x="205" y="458"/>
      <point x="174" y="458" type="curve" smooth="yes"/>
      <point x="143" y="458"/>
      <point x="116" y="482"/>
    </contour>
  </outline>
</glyph>
<glyph name="u1E888" format="2">
  <advance width="824"/>
  <unicode hex="1E888"/>
  <outline>
    <contour>
      <point x="374" y="64" type="line"/>
      <point x="284" y="64" type="line"/>
      <point x="284" y="0" type="line"/>
      <point x="538" y="0" type="line"/>
      <point x="538" y="64" type="line"/>
      <point x="448" y="64" type="line"/>
      <point x="448" y="188" type="line"/>
      <point x="523" y="203"/>
      <point x="583" y="264"/>
      <point x="591" y="342" type="curve"/>
      <point x="706" y="342" type="line"/>
      <point x="706" y="252" type="line"/>
      <point x="774" y="252" type="line"/>
      <point x="774" y="480" type="line"/>
      <point x="706" y="480" type="line"/>
      <point x="706" y="400" type="line"/>
      <point x="587" y="400" type="line"/>
      <point x="571" y="466"/>
      <point x="516" y="518"/>
      <point x="448" y="531" type="curve"/>
      <point x="448" y="651" type="line"/>
      <point x="538" y="651" type="line"/>
      <point x="538" y="715" type="line"/>
      <point x="284" y="715" type="line"/>
      <point x="284" y="651" type="line"/>
      <point x="374" y="651" type="line"/>
      <point x="374" y="531" type="line"/>
      <point x="307" y="516"/>
      <point x="253" y="465"/>
      <point x="237" y="400" type="curve"/>
      <point x="118" y="400" type="line"/>
      <point x="118" y="480" type="line"/>
      <point x="50" y="480" type="line"/>
      <point x="50" y="252" type="line"/>
      <point x="118" y="252" type="line"/>
      <point x="118" y="342" type="line"/>
      <point x="234" y="342" type="line"/>
      <point x="242" y="265"/>
      <point x="300" y="205"/>
      <point x="374" y="189" type="curve"/>
    </contour>
    <contour>
      <point x="302" y="360" type="curve" smooth="yes"/>
      <point x="302" y="423"/>
      <point x="354" y="470"/>
      <point x="414" y="470" type="curve" smooth="yes"/>
      <point x="472" y="470"/>
      <point x="523" y="424"/>
      <point x="523" y="360" type="curve" smooth="yes"/>
      <point x="523" y="298"/>
      <point x="472" y="250"/>
      <point x="414" y="250" type="curve" smooth="yes"/>
      <point x="354" y="250"/>
      <point x="302" y="298"/>
    </contour>
  </outline>
</glyph>
<glyph name="u1E889" format="2">
  <advance width="629"/>
  <unicode hex="1E889"/>
  <outline>
    <contour>
      <point x="174" y="714" type="line"/>
      <point x="100" y="714" type="line"/>
      <point x="100" y="0" type="line"/>
      <point x="174" y="0" type="line"/>
      <point x="174" y="317" type="line"/>
      <point x="205" y="379"/>
      <point x="266" y="426"/>
      <point x="351" y="426" type="curve" smooth="yes"/>
      <point x="445" y="426"/>
      <point x="503" y="365"/>
      <point x="503" y="270" type="curve" smooth="yes"/>
      <point x="503" y="159"/>
      <point x="439" y="58"/>
      <point x="350" y="52" type="curve"/>
      <point x="370" y="-15" type="line"/>
      <point x="496" y="5"/>
      <point x="579" y="123"/>
      <point x="579" y="261" type="curve" smooth="yes"/>
      <point x="579" y="409"/>
      <point x="490" y="496"/>
      <point x="347" y="496" type="curve" smooth="yes"/>
      <point x="291" y="496"/>
      <point x="218" y="467"/>
      <point x="174" y="422" type="curve"/>
    </contour>
    <contour>
      <point x="399" y="648" type="curve" smooth="yes"/>
      <point x="399" y="681"/>
      <point x="377" y="702"/>
      <point x="345" y="702" type="curve" smooth="yes"/>
      <point x="314" y="702"/>
      <point x="292" y="681"/>
      <point x="292" y="648" type="curve" smooth="yes"/>
      <point x="292" y="614"/>
      <point x="311" y="595"/>
      <point x="345" y="595" type="curve" smooth="yes"/>
      <point x="377" y="595"/>
      <point x="399" y="614"/>
    </contour>
  </outline>
</glyph>
<glyph name="u1E88A" format="2">
  <advance width="730"/>
  <unicode hex="1E88A"/>
  <outline>
    <contour>
      <point x="691" y="382" type="line"/>
      <point x="370" y="701" type="line"/>
      <point x="38" y="369" type="line"/>
      <point x="359" y="50" type="line"/>
    </contour>
    <contour>
      <point x="361" y="140" type="line"/>
      <point x="130" y="373" type="line"/>
      <point x="366" y="609" type="line"/>
      <point x="598" y="377" type="line"/>
    </contour>
    <contour>
      <point x="417" y="376" type="curve" smooth="yes"/>
      <point x="417" y="409"/>
      <point x="395" y="430"/>
      <point x="363" y="430" type="curve" smooth="yes"/>
      <point x="332" y="430"/>
      <point x="310" y="409"/>
      <point x="310" y="376" type="curve" smooth="yes"/>
      <point x="310" y="342"/>
      <point x="329" y="323"/>
      <point x="363" y="323" type="curve" smooth="yes"/>
      <point x="395" y="323"/>
      <point x="417" y="342"/>
    </contour>
  </outline>
</glyph>
<glyph name="u1E88B" format="2">
  <advance width="730"/>
  <unicode hex="1E88B"/>
  <outline>
    <contour>
      <point x="691" y="382" type="line"/>
      <point x="549" y="522" type="line"/>
      <point x="664" y="637" type="line"/>
      <point x="620" y="681" type="line"/>
      <point x="505" y="566" type="line"/>
      <point x="370" y="701" type="line"/>
      <point x="38" y="369" type="line"/>
      <point x="175" y="232" type="line"/>
      <point x="61" y="118" type="line"/>
      <point x="105" y="74" type="line"/>
      <point x="219" y="188" type="line"/>
      <point x="359" y="50" type="line"/>
    </contour>
    <contour>
      <point x="383" y="444" type="line"/>
      <point x="428" y="401" type="line"/>
      <point x="501" y="474" type="line"/>
      <point x="598" y="377" type="line"/>
      <point x="361" y="140" type="line"/>
      <point x="266" y="235" type="line"/>
      <point x="342" y="311" type="line"/>
      <point x="297" y="354" type="line"/>
      <point x="222" y="279" type="line"/>
      <point x="130" y="373" type="line"/>
      <point x="366" y="609" type="line"/>
      <point x="457" y="518" type="line"/>
    </contour>
  </outline>
</glyph>
<glyph name="u1E88C" format="2">
  <advance width="699"/>
  <unicode hex="1E88C"/>
  <outline>
    <contour>
      <point x="567" y="650" type="line"/>
      <point x="493" y="650" type="line"/>
      <point x="493" y="400" type="line"/>
      <point x="206" y="400" type="line"/>
      <point x="206" y="461" type="line"/>
      <point x="264" y="477"/>
      <point x="308" y="529"/>
      <point x="308" y="592" type="curve" smooth="yes"/>
      <point x="308" y="667"/>
      <point x="244" y="727"/>
      <point x="169" y="727" type="curve" smooth="yes"/>
      <point x="94" y="727"/>
      <point x="30" y="667"/>
      <point x="30" y="592" type="curve" smooth="yes"/>
      <point x="30" y="529"/>
      <point x="74" y="477"/>
      <point x="132" y="461" type="curve"/>
      <point x="132" y="57" type="line"/>
      <point x="206" y="57" type="line"/>
      <point x="206" y="332" type="line"/>
      <point x="493" y="332" type="line"/>
      <point x="493" y="246" type="line"/>
      <point x="435" y="230"/>
      <point x="391" y="178"/>
      <point x="391" y="115" type="curve" smooth="yes"/>
      <point x="391" y="40"/>
      <point x="455" y="-20"/>
      <point x="530" y="-20" type="curve" smooth="yes"/>
      <point x="605" y="-20"/>
      <point x="669" y="40"/>
      <point x="669" y="115" type="curve" smooth="yes"/>
      <point x="669" y="178"/>
      <point x="625" y="230"/>
      <point x="567" y="246" type="curve"/>
    </contour>
    <contour>
      <point x="460" y="115" type="curve" smooth="yes"/>
      <point x="460" y="155"/>
      <point x="492" y="186"/>
      <point x="530" y="186" type="curve" smooth="yes"/>
      <point x="568" y="186"/>
      <point x="600" y="156"/>
      <point x="600" y="115" type="curve" smooth="yes"/>
      <point x="600" y="76"/>
      <point x="568" y="45"/>
      <point x="530" y="45" type="curve" smooth="yes"/>
      <point x="492" y="45"/>
      <point x="460" y="76"/>
    </contour>
    <contour>
      <point x="99" y="592" type="curve" smooth="yes"/>
      <point x="99" y="631"/>
      <point x="131" y="662"/>
      <point x="169" y="662" type="curve" smooth="yes"/>
      <point x="207" y="662"/>
      <point x="239" y="631"/>
      <point x="239" y="592" type="curve" smooth="yes"/>
      <point x="239" y="551"/>
      <point x="207" y="521"/>
      <point x="169" y="521" type="curve" smooth="yes"/>
      <point x="131" y="521"/>
      <point x="99" y="552"/>
    </contour>
  </outline>
</glyph>
<glyph name="u1E88D" format="2">
  <advance width="723"/>
  <unicode hex="1E88D"/>
  <outline>
    <contour>
      <point x="324" y="80" type="line"/>
      <point x="398" y="80" type="line"/>
      <point x="703" y="714" type="line"/>
      <point x="621" y="714" type="line"/>
      <point x="361" y="160" type="line"/>
      <point x="102" y="714" type="line"/>
      <point x="20" y="714" type="line"/>
    </contour>
    <contour>
      <point x="415" y="-67" type="curve" smooth="yes"/>
      <point x="415" y="-34"/>
      <point x="393" y="-13"/>
      <point x="361" y="-13" type="curve" smooth="yes"/>
      <point x="330" y="-13"/>
      <point x="308" y="-34"/>
      <point x="308" y="-67" type="curve" smooth="yes"/>
      <point x="308" y="-101"/>
      <point x="327" y="-120"/>
      <point x="361" y="-120" type="curve" smooth="yes"/>
      <point x="393" y="-120"/>
      <point x="415" y="-101"/>
    </contour>
  </outline>
</glyph>
<glyph name="u1E88E" format="2">
  <advance width="614"/>
  <unicode hex="1E88E"/>
  <outline>
    <contour>
      <point x="311" y="326" type="line"/>
      <point x="84" y="28" type="line"/>
      <point x="140" y="-6" type="line"/>
      <point x="348" y="267" type="line"/>
      <point x="348" y="0" type="line"/>
      <point x="422" y="0" type="line"/>
      <point x="422" y="364" type="line"/>
      <point x="594" y="590" type="line"/>
      <point x="538" y="624" type="line"/>
      <point x="422" y="471" type="line"/>
      <point x="422" y="714" type="line"/>
      <point x="348" y="714" type="line"/>
      <point x="348" y="634" type="line"/>
      <point x="288" y="634" type="line" smooth="yes"/>
      <point x="158" y="634"/>
      <point x="50" y="589"/>
      <point x="50" y="475" type="curve" smooth="yes"/>
      <point x="50" y="378"/>
      <point x="101" y="326"/>
      <point x="278" y="326" type="curve" smooth="yes"/>
    </contour>
    <contour>
      <point x="126" y="475" type="curve" smooth="yes"/>
      <point x="126" y="545"/>
      <point x="204" y="566"/>
      <point x="298" y="566" type="curve" smooth="yes"/>
      <point x="348" y="566" type="line"/>
      <point x="348" y="394" type="line"/>
      <point x="288" y="394" type="line" smooth="yes"/>
      <point x="156" y="394"/>
      <point x="126" y="421"/>
    </contour>
    <contour>
      <point x="287" y="723" type="curve" smooth="yes"/>
      <point x="287" y="756"/>
      <point x="265" y="777"/>
      <point x="233" y="777" type="curve" smooth="yes"/>
      <point x="202" y="777"/>
      <point x="180" y="756"/>
      <point x="180" y="723" type="curve" smooth="yes"/>
      <point x="180" y="689"/>
      <point x="199" y="670"/>
      <point x="233" y="670" type="curve" smooth="yes"/>
      <point x="265" y="670"/>
      <point x="287" y="689"/>
    </contour>
  </outline>
</glyph>
<glyph name="u1E88F" format="2">
  <advance width="723"/>
  <unicode hex="1E88F"/>
  <outline>
    <contour>
      <point x="398" y="714" type="line"/>
      <point x="324" y="714" type="line"/>
      <point x="20" y="80" type="line"/>
      <point x="102" y="80" type="line"/>
      <point x="231" y="356" type="line"/>
      <point x="491" y="356" type="line"/>
      <point x="621" y="80" type="line"/>
      <point x="703" y="80" type="line"/>
    </contour>
    <contour>
      <point x="450" y="237" type="curve"/>
      <point x="378" y="237" type="line"/>
      <point x="379" y="231"/>
      <point x="379" y="224"/>
      <point x="379" y="217" type="curve" smooth="yes"/>
      <point x="379" y="15"/>
      <point x="-13" y="124"/>
      <point x="-13" y="-165" type="curve"/>
      <point x="59" y="-165" type="line"/>
      <point x="59" y="68"/>
      <point x="451" y="-46"/>
      <point x="451" y="217" type="curve" smooth="yes"/>
      <point x="451" y="224"/>
      <point x="451" y="230"/>
    </contour>
    <contour>
      <point x="261" y="420" type="line"/>
      <point x="361" y="634" type="line"/>
      <point x="461" y="420" type="line"/>
    </contour>
  </outline>
</glyph>
<glyph name="u1E890" format="2">
  <advance width="604"/>
  <unicode hex="1E890"/>
  <outline>
    <contour>
      <point x="584" y="560" type="line"/>
      <point x="584" y="624" type="line"/>
      <point x="458" y="624" type="line"/>
      <point x="458" y="714" type="line"/>
      <point x="384" y="714" type="line"/>
      <point x="384" y="624" type="line"/>
      <point x="260" y="624" type="line"/>
      <point x="260" y="560" type="line"/>
      <point x="384" y="560" type="line"/>
      <point x="384" y="394" type="line"/>
      <point x="191" y="405"/>
      <point x="126" y="515"/>
      <point x="126" y="714" type="curve"/>
      <point x="50" y="714" type="line"/>
      <point x="50" y="544"/>
      <point x="108" y="416"/>
      <point x="238" y="358" type="curve"/>
      <point x="108" y="300"/>
      <point x="50" y="170"/>
      <point x="50" y="0" type="curve"/>
      <point x="126" y="0" type="line"/>
      <point x="126" y="199"/>
      <point x="191" y="312"/>
      <point x="384" y="324" type="curve"/>
      <point x="384" y="0" type="line"/>
      <point x="458" y="0" type="line"/>
      <point x="458" y="560" type="line"/>
    </contour>
  </outline>
</glyph>
<glyph name="u1E891" format="2">
  <advance width="733"/>
  <unicode hex="1E891"/>
  <outline>
    <contour>
      <point x="354" y="405" type="line"/>
      <point x="310" y="449" type="line"/>
      <point x="206" y="351" type="line"/>
      <point x="206" y="461" type="line"/>
      <point x="264" y="477"/>
      <point x="308" y="529"/>
      <point x="308" y="592" type="curve" smooth="yes"/>
      <point x="308" y="667"/>
      <point x="244" y="727"/>
      <point x="169" y="727" type="curve" smooth="yes"/>
      <point x="94" y="727"/>
      <point x="30" y="667"/>
      <point x="30" y="592" type="curve" smooth="yes"/>
      <point x="30" y="529"/>
      <point x="74" y="477"/>
      <point x="132" y="461" type="curve"/>
      <point x="132" y="282" type="line"/>
      <point x="5" y="164" type="line"/>
      <point x="45" y="118" type="line"/>
      <point x="132" y="199" type="line"/>
      <point x="141" y="67"/>
      <point x="227" y="-12"/>
      <point x="356" y="-12" type="curve" smooth="yes"/>
      <point x="511" y="-12"/>
      <point x="601" y="74"/>
      <point x="601" y="221" type="curve" smooth="yes"/>
      <point x="601" y="461" type="line"/>
      <point x="659" y="477"/>
      <point x="703" y="529"/>
      <point x="703" y="592" type="curve" smooth="yes"/>
      <point x="703" y="667"/>
      <point x="639" y="727"/>
      <point x="564" y="727" type="curve" smooth="yes"/>
      <point x="489" y="727"/>
      <point x="425" y="667"/>
      <point x="425" y="592" type="curve" smooth="yes"/>
      <point x="425" y="529"/>
      <point x="469" y="477"/>
      <point x="527" y="461" type="curve"/>
      <point x="527" y="219" type="line" smooth="yes"/>
      <point x="527" y="104"/>
      <point x="461" y="58"/>
      <point x="367" y="58" type="curve" smooth="yes"/>
      <point x="272" y="58"/>
      <point x="206" y="104"/>
      <point x="206" y="219" type="curve" smooth="yes"/>
      <point x="206" y="267" type="line"/>
    </contour>
    <contour>
      <point x="99" y="592" type="curve" smooth="yes"/>
      <point x="99" y="631"/>
      <point x="131" y="662"/>
      <point x="169" y="662" type="curve" smooth="yes"/>
      <point x="207" y="662"/>
      <point x="239" y="631"/>
      <point x="239" y="592" type="curve" smooth="yes"/>
      <point x="239" y="551"/>
      <point x="207" y="521"/>
      <point x="169" y="521" type="curve" smooth="yes"/>
      <point x="131" y="521"/>
      <point x="99" y="552"/>
    </contour>
    <contour>
      <point x="634" y="592" type="curve" smooth="yes"/>
      <point x="634" y="552"/>
      <point x="602" y="521"/>
      <point x="564" y="521" type="curve" smooth="yes"/>
      <point x="526" y="521"/>
      <point x="494" y="551"/>
      <point x="494" y="592" type="curve" smooth="yes"/>
      <point x="494" y="631"/>
      <point x="526" y="662"/>
      <point x="564" y="662" type="curve" smooth="yes"/>
      <point x="602" y="662"/>
      <point x="634" y="631"/>
    </contour>
  </outline>
</glyph>
<glyph name="u1E892" format="2">
  <advance width="902"/>
  <unicode hex="1E892"/>
  <outline>
    <contour>
      <point x="581" y="588" type="curve"/>
      <point x="60" y="588" type="line"/>
      <point x="60" y="136" type="line"/>
      <point x="577" y="136" type="line"/>
      <point x="592" y="75"/>
      <point x="648" y="31"/>
      <point x="713" y="31" type="curve" smooth="yes"/>
      <point x="788" y="31"/>
      <point x="852" y="91"/>
      <point x="852" y="166" type="curve" smooth="yes"/>
      <point x="852" y="242"/>
      <point x="788" y="302"/>
      <point x="713" y="302" type="curve" smooth="yes"/>
      <point x="651" y="302"/>
      <point x="596" y="261"/>
      <point x="579" y="204" type="curve"/>
      <point x="134" y="204" type="line"/>
      <point x="134" y="520" type="line"/>
      <point x="576" y="520" type="line"/>
      <point x="588" y="456"/>
      <point x="646" y="409"/>
      <point x="713" y="409" type="curve" smooth="yes"/>
      <point x="788" y="409"/>
      <point x="852" y="469"/>
      <point x="852" y="544" type="curve" smooth="yes"/>
      <point x="852" y="620"/>
      <point x="788" y="680"/>
      <point x="713" y="680" type="curve" smooth="yes"/>
      <point x="653" y="680"/>
      <point x="600" y="642"/>
    </contour>
    <contour>
      <point x="783" y="166" type="curve" smooth="yes"/>
      <point x="783" y="127"/>
      <point x="751" y="96"/>
      <point x="713" y="96" type="curve" smooth="yes"/>
      <point x="675" y="96"/>
      <point x="643" y="127"/>
      <point x="643" y="166" type="curve" smooth="yes"/>
      <point x="643" y="207"/>
      <point x="675" y="237"/>
      <point x="713" y="237" type="curve" smooth="yes"/>
      <point x="751" y="237"/>
      <point x="783" y="206"/>
    </contour>
    <contour>
      <point x="783" y="544" type="curve" smooth="yes"/>
      <point x="783" y="505"/>
      <point x="751" y="474"/>
      <point x="713" y="474" type="curve" smooth="yes"/>
      <point x="675" y="474"/>
      <point x="643" y="505"/>
      <point x="643" y="544" type="curve" smooth="yes"/>
      <point x="643" y="585"/>
      <point x="675" y="615"/>
      <point x="713" y="615" type="curve" smooth="yes"/>
      <point x="751" y="615"/>
      <point x="783" y="584"/>
    </contour>
  </outline>
</glyph>
<glyph name="u1E893" format="2">
  <advance width="696"/>
  <unicode hex="1E893"/>
  <outline>
    <contour>
      <point x="385" y="714" type="line"/>
      <point x="311" y="714" type="line"/>
      <point x="311" y="650" type="line"/>
      <point x="277" y="650" type="line" smooth="yes"/>
      <point x="204" y="650"/>
      <point x="50" y="634"/>
      <point x="50" y="490" type="curve" smooth="yes"/>
      <point x="50" y="433"/>
      <point x="86" y="392"/>
      <point x="135" y="366" type="curve"/>
      <point x="86" y="340"/>
      <point x="50" y="299"/>
      <point x="50" y="242" type="curve" smooth="yes"/>
      <point x="50" y="98"/>
      <point x="204" y="82"/>
      <point x="277" y="82" type="curve" smooth="yes"/>
      <point x="311" y="82" type="line"/>
      <point x="311" y="0" type="line"/>
      <point x="385" y="0" type="line"/>
      <point x="385" y="202" type="line"/>
      <point x="418" y="202" type="line" smooth="yes"/>
      <point x="519" y="202"/>
      <point x="646" y="253"/>
      <point x="646" y="360" type="curve" smooth="yes"/>
      <point x="646" y="504"/>
      <point x="492" y="520"/>
      <point x="419" y="520" type="curve" smooth="yes"/>
      <point x="385" y="520" type="line"/>
    </contour>
    <contour>
      <point x="126" y="493" type="curve" smooth="yes"/>
      <point x="126" y="576"/>
      <point x="215" y="582"/>
      <point x="278" y="582" type="curve" smooth="yes"/>
      <point x="311" y="582" type="line"/>
      <point x="311" y="400" type="line"/>
      <point x="279" y="400" type="line" smooth="yes"/>
      <point x="205" y="400"/>
      <point x="126" y="409"/>
    </contour>
    <contour>
      <point x="385" y="452" type="line"/>
      <point x="418" y="452" type="line" smooth="yes"/>
      <point x="481" y="452"/>
      <point x="570" y="446"/>
      <point x="570" y="363" type="curve" smooth="yes"/>
      <point x="570" y="279"/>
      <point x="491" y="270"/>
      <point x="417" y="270" type="curve" smooth="yes"/>
      <point x="385" y="270" type="line"/>
    </contour>
    <contour>
      <point x="126" y="239" type="curve" smooth="yes"/>
      <point x="126" y="323"/>
      <point x="205" y="332"/>
      <point x="279" y="332" type="curve" smooth="yes"/>
      <point x="311" y="332" type="line"/>
      <point x="311" y="150" type="line"/>
      <point x="278" y="150" type="line" smooth="yes"/>
      <point x="215" y="150"/>
      <point x="126" y="156"/>
    </contour>
  </outline>
</glyph>
